M48
; DRILL file {KiCad 8.0.1} date 2024-04-17T14:21:33+0300
; FORMAT={-:-/ absolute / inch / decimal}
; #@! TF.CreationDate,2024-04-17T14:21:33+03:00
; #@! TF.GenerationSoftware,Kicad,Pcbnew,8.0.1
; #@! TF.FileFunction,Plated,1,2,PTH
FMAT,2
INCH
; #@! TA.AperFunction,Plated,PTH,ViaDrill
T1C0.0236
; #@! TA.AperFunction,Plated,PTH,ComponentDrill
T2C0.0315
; #@! TA.AperFunction,Plated,PTH,ComponentDrill
T3C0.0354
; #@! TA.AperFunction,Plated,PTH,ComponentDrill
T4C0.0394
; #@! TA.AperFunction,Plated,PTH,ComponentDrill
T5C0.0409
; #@! TA.AperFunction,Plated,PTH,ComponentDrill
T6C0.0433
%
G90
G05
T1
X4.7835Y-3.4449
X5.0394Y-4.3701
X5.2461Y-5.3839
X5.3051Y-3.8484
X5.4232Y-4.3701
X5.6004Y-3.8484
X6.1024Y-2.9528
X6.1319Y-2.7165
T2
X5.8858Y-2.7496
X5.8858Y-3.1496
X5.935Y-3.3465
X6.0335Y-3.3465
X6.1811Y-3.3465
X6.2598Y-2.1622
X6.2598Y-2.2622
X6.2598Y-2.3622
X6.2795Y-3.3465
T3
X5.9055Y-2.185
X5.9055Y-2.285
T4
X4.5079Y-3.5992
X4.5079Y-3.6992
X4.5079Y-3.7992
X4.5079Y-3.8992
X4.5079Y-3.9992
X4.5079Y-4.0992
X4.5079Y-4.1992
X4.5079Y-4.2992
X4.5079Y-4.3992
X4.5079Y-4.4992
X4.5079Y-4.5992
X4.5079Y-4.6992
X4.5079Y-4.7992
X4.5079Y-4.8992
X4.5079Y-4.9992
X4.5079Y-5.0992
X4.5079Y-5.1992
X4.5079Y-5.2992
X4.5079Y-5.3992
X4.9165Y-3.2087
X5.0165Y-3.2087
X5.1165Y-3.2087
X5.2165Y-3.2087
X5.3165Y-3.2087
X5.4165Y-3.2087
X5.5165Y-3.2087
X5.9055Y-3.6024
X5.9055Y-3.7024
X5.9055Y-3.8024
X5.9055Y-3.9024
X5.9055Y-4.0024
X5.9055Y-4.1024
X5.9055Y-4.2024
X5.9055Y-4.3024
X5.9055Y-4.4024
X5.9055Y-4.5024
X5.9055Y-4.6024
X5.9055Y-4.7024
X5.9055Y-4.8024
X5.9055Y-4.9024
X5.9055Y-5.0024
X5.9055Y-5.1024
X5.9055Y-5.2024
X5.9055Y-5.3024
X5.9055Y-5.4024
X6.0138Y-2.5492
X6.0138Y-3.1496
X6.378Y-2.5492
X6.378Y-3.1496
T5
X4.7087Y-3.5969
X4.7087Y-3.6969
X4.7087Y-3.7969
X4.7087Y-3.8969
X4.7087Y-3.9969
X4.7087Y-4.0969
X4.7087Y-4.1969
X4.7087Y-4.2969
X4.7087Y-4.3969
X4.7087Y-4.4969
X4.7087Y-4.5969
X4.7087Y-4.6969
X4.7087Y-4.7969
X4.7087Y-4.8969
X4.7087Y-4.9969
X4.7087Y-5.0969
X4.7087Y-5.1969
X4.7087Y-5.2969
X4.7087Y-5.3969
X5.7087Y-3.5969
X5.7087Y-3.6969
X5.7087Y-3.7969
X5.7087Y-3.8969
X5.7087Y-3.9969
X5.7087Y-4.0969
X5.7087Y-4.1969
X5.7087Y-4.2969
X5.7087Y-4.3969
X5.7087Y-4.4969
X5.7087Y-4.5969
X5.7087Y-4.6969
X5.7087Y-4.7969
X5.7087Y-4.8969
X5.7087Y-4.9969
X5.7087Y-5.0969
X5.7087Y-5.1969
X5.7087Y-5.2969
X5.7087Y-5.3969
T6
X5.8858Y-1.811
X6.0748Y-1.811
M30
