%TF.GenerationSoftware,KiCad,Pcbnew,8.0.1*%
%TF.CreationDate,2024-04-17T14:21:35+03:00*%
%TF.ProjectId,PCB_Receiver,5043425f-5265-4636-9569-7665722e6b69,A*%
%TF.SameCoordinates,Original*%
%TF.FileFunction,Soldermask,Top*%
%TF.FilePolarity,Negative*%
%FSLAX46Y46*%
G04 Gerber Fmt 4.6, Leading zero omitted, Abs format (unit mm)*
G04 Created by KiCad (PCBNEW 8.0.1) date 2024-04-17 14:21:35*
%MOMM*%
%LPD*%
G01*
G04 APERTURE LIST*
G04 Aperture macros list*
%AMRoundRect*
0 Rectangle with rounded corners*
0 $1 Rounding radius*
0 $2 $3 $4 $5 $6 $7 $8 $9 X,Y pos of 4 corners*
0 Add a 4 corners polygon primitive as box body*
4,1,4,$2,$3,$4,$5,$6,$7,$8,$9,$2,$3,0*
0 Add four circle primitives for the rounded corners*
1,1,$1+$1,$2,$3*
1,1,$1+$1,$4,$5*
1,1,$1+$1,$6,$7*
1,1,$1+$1,$8,$9*
0 Add four rect primitives between the rounded corners*
20,1,$1+$1,$2,$3,$4,$5,0*
20,1,$1+$1,$4,$5,$6,$7,0*
20,1,$1+$1,$6,$7,$8,$9,0*
20,1,$1+$1,$8,$9,$2,$3,0*%
G04 Aperture macros list end*
%ADD10C,3.200000*%
%ADD11RoundRect,0.250001X0.899999X0.899999X-0.899999X0.899999X-0.899999X-0.899999X0.899999X-0.899999X0*%
%ADD12C,2.300000*%
%ADD13C,1.600000*%
%ADD14O,1.600000X1.600000*%
%ADD15R,1.800000X1.800000*%
%ADD16C,1.800000*%
%ADD17R,1.600000X1.600000*%
%ADD18R,2.000000X2.000000*%
%ADD19R,1.700000X1.700000*%
%ADD20O,1.700000X1.700000*%
%ADD21RoundRect,0.102000X-0.780000X-0.780000X0.780000X-0.780000X0.780000X0.780000X-0.780000X0.780000X0*%
%ADD22C,1.764000*%
%ADD23R,1.500000X1.500000*%
%ADD24R,1.500000X0.900000*%
G04 APERTURE END LIST*
D10*
%TO.C,H6*%
X144000000Y-45500000D03*
%TD*%
%TO.C,H5*%
X121000000Y-45500000D03*
%TD*%
D11*
%TO.C,J2*%
X154300000Y-46000000D03*
D12*
X149500000Y-46000000D03*
%TD*%
D13*
%TO.C,R9*%
X149500000Y-69840000D03*
D14*
X149500000Y-80000000D03*
%TD*%
D15*
%TO.C,D4*%
X150000000Y-55500000D03*
D16*
X150000000Y-58040000D03*
%TD*%
D13*
%TO.C,C6*%
X153250000Y-85000000D03*
X150750000Y-85000000D03*
%TD*%
D17*
%TO.C,C5*%
X157000000Y-85000000D03*
D13*
X159500000Y-85000000D03*
%TD*%
D18*
%TO.C,U5*%
X152750000Y-64750000D03*
X162000000Y-64750000D03*
X152750000Y-80000000D03*
X162000000Y-80000000D03*
%TD*%
D10*
%TO.C,H2*%
X160500000Y-46500000D03*
%TD*%
%TO.C,H4*%
X160500000Y-96500000D03*
%TD*%
%TO.C,H3*%
X160500000Y-136500000D03*
%TD*%
D19*
%TO.C,J6*%
X150000000Y-137220000D03*
D20*
X150000000Y-134680000D03*
X150000000Y-132140000D03*
X150000000Y-129600000D03*
X150000000Y-127060000D03*
X150000000Y-124520000D03*
X150000000Y-121980000D03*
X150000000Y-119440000D03*
X150000000Y-116900000D03*
X150000000Y-114360000D03*
X150000000Y-111820000D03*
X150000000Y-109280000D03*
X150000000Y-106740000D03*
X150000000Y-104200000D03*
X150000000Y-101660000D03*
X150000000Y-99120000D03*
X150000000Y-96580000D03*
X150000000Y-94040000D03*
X150000000Y-91500000D03*
%TD*%
D21*
%TO.C,U4*%
X119600000Y-91360000D03*
D22*
X119600000Y-93900000D03*
X119600000Y-96440000D03*
X119600000Y-98980000D03*
X119600000Y-101520000D03*
X119600000Y-104060000D03*
X119600000Y-106600000D03*
X119600000Y-109140000D03*
X119600000Y-111680000D03*
X119600000Y-114220000D03*
X119600000Y-116760000D03*
X119600000Y-119300000D03*
X119600000Y-121840000D03*
X119600000Y-124380000D03*
X119600000Y-126920000D03*
X119600000Y-129460000D03*
X119600000Y-132000000D03*
X119600000Y-134540000D03*
X119600000Y-137080000D03*
X145000000Y-91360000D03*
X145000000Y-93900000D03*
X145000000Y-96440000D03*
X145000000Y-98980000D03*
X145000000Y-101520000D03*
X145000000Y-104060000D03*
X145000000Y-106600000D03*
X145000000Y-109140000D03*
X145000000Y-111680000D03*
X145000000Y-114220000D03*
X145000000Y-116760000D03*
X145000000Y-119300000D03*
X145000000Y-121840000D03*
X145000000Y-124380000D03*
X145000000Y-126920000D03*
X145000000Y-129460000D03*
X145000000Y-132000000D03*
X145000000Y-134540000D03*
X145000000Y-137080000D03*
%TD*%
D10*
%TO.C,H1*%
X115500000Y-71500000D03*
%TD*%
D23*
%TO.C,SW2*%
X159000000Y-57460000D03*
D13*
X159000000Y-54920000D03*
X159000000Y-60000000D03*
%TD*%
D19*
%TO.C,J1*%
X124880000Y-81500000D03*
D20*
X127420000Y-81500000D03*
X129960000Y-81500000D03*
X132500000Y-81500000D03*
X135040000Y-81500000D03*
X137580000Y-81500000D03*
X140120000Y-81500000D03*
%TD*%
D19*
%TO.C,J8*%
X114500000Y-137140000D03*
D20*
X114500000Y-134600000D03*
X114500000Y-132060000D03*
X114500000Y-129520000D03*
X114500000Y-126980000D03*
X114500000Y-124440000D03*
X114500000Y-121900000D03*
X114500000Y-119360000D03*
X114500000Y-116820000D03*
X114500000Y-114280000D03*
X114500000Y-111740000D03*
X114500000Y-109200000D03*
X114500000Y-106660000D03*
X114500000Y-104120000D03*
X114500000Y-101580000D03*
X114500000Y-99040000D03*
X114500000Y-96500000D03*
X114500000Y-93960000D03*
X114500000Y-91420000D03*
%TD*%
D24*
%TO.C,D3*%
X130550000Y-133350000D03*
X130550000Y-136650000D03*
X135450000Y-136650000D03*
X135450000Y-133350000D03*
%TD*%
M02*
