%TF.GenerationSoftware,KiCad,Pcbnew,8.0.1*%
%TF.CreationDate,2024-04-17T14:21:35+03:00*%
%TF.ProjectId,PCB_Receiver,5043425f-5265-4636-9569-7665722e6b69,A*%
%TF.SameCoordinates,Original*%
%TF.FileFunction,Copper,L2,Bot*%
%TF.FilePolarity,Positive*%
%FSLAX46Y46*%
G04 Gerber Fmt 4.6, Leading zero omitted, Abs format (unit mm)*
G04 Created by KiCad (PCBNEW 8.0.1) date 2024-04-17 14:21:35*
%MOMM*%
%LPD*%
G01*
G04 APERTURE LIST*
G04 Aperture macros list*
%AMRoundRect*
0 Rectangle with rounded corners*
0 $1 Rounding radius*
0 $2 $3 $4 $5 $6 $7 $8 $9 X,Y pos of 4 corners*
0 Add a 4 corners polygon primitive as box body*
4,1,4,$2,$3,$4,$5,$6,$7,$8,$9,$2,$3,0*
0 Add four circle primitives for the rounded corners*
1,1,$1+$1,$2,$3*
1,1,$1+$1,$4,$5*
1,1,$1+$1,$6,$7*
1,1,$1+$1,$8,$9*
0 Add four rect primitives between the rounded corners*
20,1,$1+$1,$2,$3,$4,$5,0*
20,1,$1+$1,$4,$5,$6,$7,0*
20,1,$1+$1,$6,$7,$8,$9,0*
20,1,$1+$1,$8,$9,$2,$3,0*%
G04 Aperture macros list end*
%TA.AperFunction,ComponentPad*%
%ADD10RoundRect,0.250001X0.899999X0.899999X-0.899999X0.899999X-0.899999X-0.899999X0.899999X-0.899999X0*%
%TD*%
%TA.AperFunction,ComponentPad*%
%ADD11C,2.300000*%
%TD*%
%TA.AperFunction,ComponentPad*%
%ADD12C,1.600000*%
%TD*%
%TA.AperFunction,ComponentPad*%
%ADD13O,1.600000X1.600000*%
%TD*%
%TA.AperFunction,ComponentPad*%
%ADD14R,1.800000X1.800000*%
%TD*%
%TA.AperFunction,ComponentPad*%
%ADD15C,1.800000*%
%TD*%
%TA.AperFunction,ComponentPad*%
%ADD16R,1.600000X1.600000*%
%TD*%
%TA.AperFunction,ComponentPad*%
%ADD17R,2.000000X2.000000*%
%TD*%
%TA.AperFunction,ComponentPad*%
%ADD18R,1.700000X1.700000*%
%TD*%
%TA.AperFunction,ComponentPad*%
%ADD19O,1.700000X1.700000*%
%TD*%
%TA.AperFunction,ComponentPad*%
%ADD20R,1.560000X1.560000*%
%TD*%
%TA.AperFunction,ComponentPad*%
%ADD21C,1.560000*%
%TD*%
%TA.AperFunction,ComponentPad*%
%ADD22R,1.500000X1.500000*%
%TD*%
%TA.AperFunction,ViaPad*%
%ADD23C,0.800000*%
%TD*%
%TA.AperFunction,Conductor*%
%ADD24C,0.500000*%
%TD*%
G04 APERTURE END LIST*
D10*
%TO.P,J2,1,Pin_1*%
%TO.N,Net-(J2-Pin_1)*%
X154300000Y-46000000D03*
D11*
%TO.P,J2,2,Pin_2*%
%TO.N,GND*%
X149500000Y-46000000D03*
%TD*%
D12*
%TO.P,R9,1*%
%TO.N,Net-(D4-A)*%
X149500000Y-69840000D03*
D13*
%TO.P,R9,2*%
%TO.N,+5V*%
X149500000Y-80000000D03*
%TD*%
D14*
%TO.P,D4,1,K*%
%TO.N,GND*%
X150000000Y-55500000D03*
D15*
%TO.P,D4,2,A*%
%TO.N,Net-(D4-A)*%
X150000000Y-58040000D03*
%TD*%
D12*
%TO.P,C6,1*%
%TO.N,+5V*%
X153250000Y-85000000D03*
%TO.P,C6,2*%
%TO.N,GND*%
X150750000Y-85000000D03*
%TD*%
D16*
%TO.P,C5,1*%
%TO.N,+5V*%
X157000000Y-85000000D03*
D12*
%TO.P,C5,2*%
%TO.N,GND*%
X159500000Y-85000000D03*
%TD*%
D17*
%TO.P,U5,1,Vin*%
%TO.N,Net-(SW2-A)*%
X152750000Y-64750000D03*
%TO.P,U5,2,GND*%
%TO.N,GND*%
X162000000Y-64750000D03*
%TO.P,U5,3,Vout*%
%TO.N,+5V*%
X152750000Y-80000000D03*
%TO.P,U5,4,GND*%
%TO.N,GND*%
X162000000Y-80000000D03*
%TD*%
D18*
%TO.P,J6,1,Pin_1*%
%TO.N,/CLK*%
X150000000Y-137220000D03*
D19*
%TO.P,J6,2,Pin_2*%
%TO.N,/SD0*%
X150000000Y-134680000D03*
%TO.P,J6,3,Pin_3*%
%TO.N,/SD1*%
X150000000Y-132140000D03*
%TO.P,J6,4,Pin_4*%
%TO.N,/IO15*%
X150000000Y-129600000D03*
%TO.P,J6,5,Pin_5*%
%TO.N,/IO2*%
X150000000Y-127060000D03*
%TO.P,J6,6,Pin_6*%
%TO.N,/IO0*%
X150000000Y-124520000D03*
%TO.P,J6,7,Pin_7*%
%TO.N,/IO4*%
X150000000Y-121980000D03*
%TO.P,J6,8,Pin_8*%
%TO.N,/IO16*%
X150000000Y-119440000D03*
%TO.P,J6,9,Pin_9*%
%TO.N,/IO17*%
X150000000Y-116900000D03*
%TO.P,J6,10,Pin_10*%
%TO.N,/CS*%
X150000000Y-114360000D03*
%TO.P,J6,11,Pin_11*%
%TO.N,/SCK*%
X150000000Y-111820000D03*
%TO.P,J6,12,Pin_12*%
%TO.N,/SO*%
X150000000Y-109280000D03*
%TO.P,J6,13,Pin_13*%
%TO.N,GND*%
X150000000Y-106740000D03*
%TO.P,J6,14,Pin_14*%
%TO.N,/INT*%
X150000000Y-104200000D03*
%TO.P,J6,15,Pin_15*%
%TO.N,/RXD0*%
X150000000Y-101660000D03*
%TO.P,J6,16,Pin_16*%
%TO.N,/TXD0*%
X150000000Y-99120000D03*
%TO.P,J6,17,Pin_17*%
%TO.N,/IO22*%
X150000000Y-96580000D03*
%TO.P,J6,18,Pin_18*%
%TO.N,/SI*%
X150000000Y-94040000D03*
%TO.P,J6,19,Pin_19*%
%TO.N,GND*%
X150000000Y-91500000D03*
%TD*%
D20*
%TO.P,U4,J2-1,3V3*%
%TO.N,+3V3*%
X119600000Y-91360000D03*
D21*
%TO.P,U4,J2-2,EN*%
%TO.N,/EN*%
X119600000Y-93900000D03*
%TO.P,U4,J2-3,SENSOR_VP*%
%TO.N,/NTC_3*%
X119600000Y-96440000D03*
%TO.P,U4,J2-4,SENSOR_VN*%
%TO.N,/NTC_2*%
X119600000Y-98980000D03*
%TO.P,U4,J2-5,IO34*%
%TO.N,/NTC_1*%
X119600000Y-101520000D03*
%TO.P,U4,J2-6,IO35*%
%TO.N,/NTC_0*%
X119600000Y-104060000D03*
%TO.P,U4,J2-7,IO32*%
%TO.N,/VBat*%
X119600000Y-106600000D03*
%TO.P,U4,J2-8,IO33*%
%TO.N,/NTC_INT*%
X119600000Y-109140000D03*
%TO.P,U4,J2-9,IO25*%
%TO.N,/IO25*%
X119600000Y-111680000D03*
%TO.P,U4,J2-10,IO26*%
%TO.N,/IO26*%
X119600000Y-114220000D03*
%TO.P,U4,J2-11,IO27*%
%TO.N,/IO27*%
X119600000Y-116760000D03*
%TO.P,U4,J2-12,IO14*%
%TO.N,/IO14*%
X119600000Y-119300000D03*
%TO.P,U4,J2-13,IO12*%
%TO.N,/IO12*%
X119600000Y-121840000D03*
%TO.P,U4,J2-14,GND1*%
%TO.N,/GND1*%
X119600000Y-124380000D03*
%TO.P,U4,J2-15,IO13*%
%TO.N,/WS_LED*%
X119600000Y-126920000D03*
%TO.P,U4,J2-16,SD2*%
%TO.N,/SD2*%
X119600000Y-129460000D03*
%TO.P,U4,J2-17,SD3*%
%TO.N,/SD3*%
X119600000Y-132000000D03*
%TO.P,U4,J2-18,CMD*%
%TO.N,/CMD*%
X119600000Y-134540000D03*
%TO.P,U4,J2-19,EXT_5V*%
%TO.N,+5V*%
X119600000Y-137080000D03*
%TO.P,U4,J3-1,GND3*%
%TO.N,GND*%
X145000000Y-91360000D03*
%TO.P,U4,J3-2,IO23*%
%TO.N,/SI*%
X145000000Y-93900000D03*
%TO.P,U4,J3-3,IO22*%
%TO.N,/IO22*%
X145000000Y-96440000D03*
%TO.P,U4,J3-4,TXD0*%
%TO.N,/TXD0*%
X145000000Y-98980000D03*
%TO.P,U4,J3-5,RXD0*%
%TO.N,/RXD0*%
X145000000Y-101520000D03*
%TO.P,U4,J3-6,IO21*%
%TO.N,/INT*%
X145000000Y-104060000D03*
%TO.P,U4,J3-7,GND2*%
%TO.N,GND*%
X145000000Y-106600000D03*
%TO.P,U4,J3-8,IO19*%
%TO.N,/SO*%
X145000000Y-109140000D03*
%TO.P,U4,J3-9,IO18*%
%TO.N,/SCK*%
X145000000Y-111680000D03*
%TO.P,U4,J3-10,IO5*%
%TO.N,/CS*%
X145000000Y-114220000D03*
%TO.P,U4,J3-11,IO17*%
%TO.N,/IO17*%
X145000000Y-116760000D03*
%TO.P,U4,J3-12,IO16*%
%TO.N,/IO16*%
X145000000Y-119300000D03*
%TO.P,U4,J3-13,IO4*%
%TO.N,/IO4*%
X145000000Y-121840000D03*
%TO.P,U4,J3-14,IO0*%
%TO.N,/IO0*%
X145000000Y-124380000D03*
%TO.P,U4,J3-15,IO2*%
%TO.N,/IO2*%
X145000000Y-126920000D03*
%TO.P,U4,J3-16,IO15*%
%TO.N,/IO15*%
X145000000Y-129460000D03*
%TO.P,U4,J3-17,SD1*%
%TO.N,/SD1*%
X145000000Y-132000000D03*
%TO.P,U4,J3-18,SD0*%
%TO.N,/SD0*%
X145000000Y-134540000D03*
%TO.P,U4,J3-19,CLK*%
%TO.N,/CLK*%
X145000000Y-137080000D03*
%TD*%
D22*
%TO.P,SW2,1,B*%
%TO.N,Net-(J2-Pin_1)*%
X159000000Y-57460000D03*
D12*
%TO.P,SW2,2,C*%
%TO.N,unconnected-(SW2-C-Pad2)*%
X159000000Y-54920000D03*
%TO.P,SW2,3,A*%
%TO.N,Net-(SW2-A)*%
X159000000Y-60000000D03*
%TD*%
D18*
%TO.P,J1,1,Pin_1*%
%TO.N,+5V*%
X124880000Y-81500000D03*
D19*
%TO.P,J1,2,Pin_2*%
%TO.N,GND*%
X127420000Y-81500000D03*
%TO.P,J1,3,Pin_3*%
%TO.N,/CS*%
X129960000Y-81500000D03*
%TO.P,J1,4,Pin_4*%
%TO.N,/SO*%
X132500000Y-81500000D03*
%TO.P,J1,5,Pin_5*%
%TO.N,/SI*%
X135040000Y-81500000D03*
%TO.P,J1,6,Pin_6*%
%TO.N,/SCK*%
X137580000Y-81500000D03*
%TO.P,J1,7,Pin_7*%
%TO.N,/INT*%
X140120000Y-81500000D03*
%TD*%
D18*
%TO.P,J8,1,Pin_1*%
%TO.N,+5V*%
X114500000Y-137140000D03*
D19*
%TO.P,J8,2,Pin_2*%
%TO.N,/CMD*%
X114500000Y-134600000D03*
%TO.P,J8,3,Pin_3*%
%TO.N,/SD3*%
X114500000Y-132060000D03*
%TO.P,J8,4,Pin_4*%
%TO.N,/SD2*%
X114500000Y-129520000D03*
%TO.P,J8,5,Pin_5*%
%TO.N,/WS_LED*%
X114500000Y-126980000D03*
%TO.P,J8,6,Pin_6*%
%TO.N,/GND1*%
X114500000Y-124440000D03*
%TO.P,J8,7,Pin_7*%
%TO.N,/IO12*%
X114500000Y-121900000D03*
%TO.P,J8,8,Pin_8*%
%TO.N,/IO14*%
X114500000Y-119360000D03*
%TO.P,J8,9,Pin_9*%
%TO.N,/IO27*%
X114500000Y-116820000D03*
%TO.P,J8,10,Pin_10*%
%TO.N,/IO26*%
X114500000Y-114280000D03*
%TO.P,J8,11,Pin_11*%
%TO.N,/IO25*%
X114500000Y-111740000D03*
%TO.P,J8,12,Pin_12*%
%TO.N,/NTC_INT*%
X114500000Y-109200000D03*
%TO.P,J8,13,Pin_13*%
%TO.N,/VBat*%
X114500000Y-106660000D03*
%TO.P,J8,14,Pin_14*%
%TO.N,/NTC_0*%
X114500000Y-104120000D03*
%TO.P,J8,15,Pin_15*%
%TO.N,/NTC_1*%
X114500000Y-101580000D03*
%TO.P,J8,16,Pin_16*%
%TO.N,/NTC_2*%
X114500000Y-99040000D03*
%TO.P,J8,17,Pin_17*%
%TO.N,/NTC_3*%
X114500000Y-96500000D03*
%TO.P,J8,18,Pin_18*%
%TO.N,/EN*%
X114500000Y-93960000D03*
%TO.P,J8,19,Pin_19*%
%TO.N,+3V3*%
X114500000Y-91420000D03*
%TD*%
D23*
%TO.N,GND*%
X133250000Y-136750000D03*
X155750000Y-69000000D03*
X155000000Y-75000000D03*
X121500000Y-87500000D03*
X134750000Y-97750000D03*
X142250000Y-97750000D03*
X137750000Y-111000000D03*
X128000000Y-111000000D03*
%TD*%
D24*
%TO.N,/SI*%
X139400000Y-93900000D02*
X145000000Y-93900000D01*
X135040000Y-89540000D02*
X139400000Y-93900000D01*
X135040000Y-81500000D02*
X135040000Y-89540000D01*
%TO.N,/CS*%
X129960000Y-99180000D02*
X145000000Y-114220000D01*
X129960000Y-81500000D02*
X129960000Y-99180000D01*
%TO.N,/SO*%
X142640000Y-109140000D02*
X145000000Y-109140000D01*
X132500000Y-99000000D02*
X142640000Y-109140000D01*
X132500000Y-81500000D02*
X132500000Y-99000000D01*
%TO.N,+5V*%
X147500000Y-78000000D02*
X128380000Y-78000000D01*
X128380000Y-78000000D02*
X124880000Y-81500000D01*
X149500000Y-80000000D02*
X147500000Y-78000000D01*
X124880000Y-131800000D02*
X124880000Y-81500000D01*
X119600000Y-137080000D02*
X124880000Y-131800000D01*
%TD*%
%TA.AperFunction,Conductor*%
%TO.N,GND*%
G36*
X122502702Y-42000617D02*
G01*
X122886771Y-42017386D01*
X122897506Y-42018326D01*
X123275971Y-42068152D01*
X123286597Y-42070025D01*
X123659284Y-42152648D01*
X123669710Y-42155442D01*
X124033765Y-42270227D01*
X124043911Y-42273920D01*
X124396578Y-42420000D01*
X124406369Y-42424566D01*
X124744942Y-42600816D01*
X124754310Y-42606224D01*
X125076244Y-42811318D01*
X125085105Y-42817523D01*
X125387930Y-43049889D01*
X125396217Y-43056843D01*
X125677635Y-43314715D01*
X125685284Y-43322364D01*
X125943156Y-43603782D01*
X125950110Y-43612069D01*
X126182476Y-43914894D01*
X126188681Y-43923755D01*
X126393775Y-44245689D01*
X126399183Y-44255057D01*
X126575430Y-44593623D01*
X126580002Y-44603427D01*
X126726075Y-44956078D01*
X126729775Y-44966244D01*
X126844554Y-45330278D01*
X126847354Y-45340727D01*
X126929971Y-45713389D01*
X126931849Y-45724042D01*
X126981671Y-46102473D01*
X126982614Y-46113249D01*
X126999382Y-46497297D01*
X126999500Y-46502706D01*
X126999500Y-51065891D01*
X127033608Y-51193187D01*
X127066554Y-51250250D01*
X127099500Y-51307314D01*
X127192686Y-51400500D01*
X127306814Y-51466392D01*
X127434108Y-51500500D01*
X127434110Y-51500500D01*
X137565890Y-51500500D01*
X137565892Y-51500500D01*
X137693186Y-51466392D01*
X137807314Y-51400500D01*
X137900500Y-51307314D01*
X137966392Y-51193186D01*
X138000500Y-51065892D01*
X138000500Y-46502706D01*
X138000618Y-46497297D01*
X138003377Y-46434108D01*
X138017386Y-46113226D01*
X138018326Y-46102495D01*
X138068152Y-45724025D01*
X138070025Y-45713405D01*
X138090447Y-45621288D01*
X142149500Y-45621288D01*
X142181161Y-45861785D01*
X142243947Y-46096104D01*
X142261390Y-46138214D01*
X142336776Y-46320212D01*
X142458064Y-46530289D01*
X142458066Y-46530292D01*
X142458067Y-46530293D01*
X142605733Y-46722736D01*
X142605739Y-46722743D01*
X142777256Y-46894260D01*
X142777262Y-46894265D01*
X142969711Y-47041936D01*
X143179788Y-47163224D01*
X143403900Y-47256054D01*
X143638211Y-47318838D01*
X143818586Y-47342584D01*
X143878711Y-47350500D01*
X143878712Y-47350500D01*
X144121289Y-47350500D01*
X144169388Y-47344167D01*
X144361789Y-47318838D01*
X144596100Y-47256054D01*
X144820212Y-47163224D01*
X145030289Y-47041936D01*
X145150083Y-46950015D01*
X152649500Y-46950015D01*
X152660000Y-47052795D01*
X152660001Y-47052796D01*
X152715186Y-47219335D01*
X152715187Y-47219337D01*
X152807286Y-47368651D01*
X152807289Y-47368655D01*
X152931344Y-47492710D01*
X152931348Y-47492713D01*
X153080662Y-47584812D01*
X153080664Y-47584813D01*
X153080666Y-47584814D01*
X153247203Y-47639999D01*
X153349992Y-47650500D01*
X153349997Y-47650500D01*
X155250003Y-47650500D01*
X155250008Y-47650500D01*
X155352797Y-47639999D01*
X155519334Y-47584814D01*
X155668655Y-47492711D01*
X155792711Y-47368655D01*
X155884814Y-47219334D01*
X155939999Y-47052797D01*
X155950500Y-46950008D01*
X155950500Y-46621288D01*
X158649500Y-46621288D01*
X158681161Y-46861785D01*
X158743947Y-47096104D01*
X158771750Y-47163226D01*
X158836776Y-47320212D01*
X158958064Y-47530289D01*
X158958066Y-47530292D01*
X158958067Y-47530293D01*
X159105733Y-47722736D01*
X159105739Y-47722743D01*
X159277256Y-47894260D01*
X159277262Y-47894265D01*
X159469711Y-48041936D01*
X159679788Y-48163224D01*
X159903900Y-48256054D01*
X160138211Y-48318838D01*
X160318586Y-48342584D01*
X160378711Y-48350500D01*
X160378712Y-48350500D01*
X160621289Y-48350500D01*
X160669388Y-48344167D01*
X160861789Y-48318838D01*
X161096100Y-48256054D01*
X161320212Y-48163224D01*
X161530289Y-48041936D01*
X161722738Y-47894265D01*
X161894265Y-47722738D01*
X162041936Y-47530289D01*
X162163224Y-47320212D01*
X162256054Y-47096100D01*
X162318838Y-46861789D01*
X162350500Y-46621288D01*
X162350500Y-46378712D01*
X162318838Y-46138211D01*
X162256054Y-45903900D01*
X162163224Y-45679788D01*
X162041936Y-45469711D01*
X161894265Y-45277262D01*
X161894260Y-45277256D01*
X161722743Y-45105739D01*
X161722736Y-45105733D01*
X161530293Y-44958067D01*
X161530292Y-44958066D01*
X161530289Y-44958064D01*
X161320212Y-44836776D01*
X161320205Y-44836773D01*
X161096104Y-44743947D01*
X160861785Y-44681161D01*
X160621289Y-44649500D01*
X160621288Y-44649500D01*
X160378712Y-44649500D01*
X160378711Y-44649500D01*
X160138214Y-44681161D01*
X159903895Y-44743947D01*
X159679794Y-44836773D01*
X159679785Y-44836777D01*
X159469706Y-44958067D01*
X159277263Y-45105733D01*
X159277256Y-45105739D01*
X159105739Y-45277256D01*
X159105733Y-45277263D01*
X158958067Y-45469706D01*
X158836777Y-45679785D01*
X158836773Y-45679794D01*
X158743947Y-45903895D01*
X158681161Y-46138214D01*
X158649500Y-46378711D01*
X158649500Y-46621288D01*
X155950500Y-46621288D01*
X155950500Y-45049992D01*
X155939999Y-44947203D01*
X155884814Y-44780666D01*
X155862165Y-44743947D01*
X155792713Y-44631348D01*
X155792710Y-44631344D01*
X155668655Y-44507289D01*
X155668651Y-44507286D01*
X155519337Y-44415187D01*
X155519335Y-44415186D01*
X155436065Y-44387593D01*
X155352797Y-44360001D01*
X155352795Y-44360000D01*
X155250015Y-44349500D01*
X155250008Y-44349500D01*
X153349992Y-44349500D01*
X153349984Y-44349500D01*
X153247204Y-44360000D01*
X153247203Y-44360001D01*
X153080664Y-44415186D01*
X153080662Y-44415187D01*
X152931348Y-44507286D01*
X152931344Y-44507289D01*
X152807289Y-44631344D01*
X152807286Y-44631348D01*
X152715187Y-44780662D01*
X152715186Y-44780664D01*
X152660001Y-44947203D01*
X152660000Y-44947204D01*
X152649500Y-45049984D01*
X152649500Y-46950015D01*
X145150083Y-46950015D01*
X145222738Y-46894265D01*
X145394265Y-46722738D01*
X145541936Y-46530289D01*
X145663224Y-46320212D01*
X145756054Y-46096100D01*
X145818838Y-45861789D01*
X145850500Y-45621288D01*
X145850500Y-45378712D01*
X145818838Y-45138211D01*
X145756054Y-44903900D01*
X145663224Y-44679788D01*
X145541936Y-44469711D01*
X145394265Y-44277262D01*
X145394260Y-44277256D01*
X145222743Y-44105739D01*
X145222736Y-44105733D01*
X145030293Y-43958067D01*
X145030292Y-43958066D01*
X145030289Y-43958064D01*
X144820212Y-43836776D01*
X144820205Y-43836773D01*
X144596104Y-43743947D01*
X144478944Y-43712554D01*
X144361789Y-43681162D01*
X144361788Y-43681161D01*
X144361785Y-43681161D01*
X144121289Y-43649500D01*
X144121288Y-43649500D01*
X143878712Y-43649500D01*
X143878711Y-43649500D01*
X143638214Y-43681161D01*
X143403895Y-43743947D01*
X143179794Y-43836773D01*
X143179785Y-43836777D01*
X142969706Y-43958067D01*
X142777263Y-44105733D01*
X142777256Y-44105739D01*
X142605739Y-44277256D01*
X142605733Y-44277263D01*
X142458067Y-44469706D01*
X142336777Y-44679785D01*
X142336773Y-44679794D01*
X142243947Y-44903895D01*
X142181161Y-45138214D01*
X142149500Y-45378711D01*
X142149500Y-45621288D01*
X138090447Y-45621288D01*
X138152649Y-45340709D01*
X138155440Y-45330295D01*
X138270230Y-44966227D01*
X138273917Y-44956095D01*
X138420003Y-44603412D01*
X138424561Y-44593638D01*
X138600822Y-44255045D01*
X138606217Y-44245700D01*
X138811325Y-43923744D01*
X138817515Y-43914905D01*
X139049896Y-43612060D01*
X139056834Y-43603791D01*
X139314726Y-43322352D01*
X139322352Y-43314726D01*
X139603791Y-43056834D01*
X139612060Y-43049896D01*
X139914905Y-42817515D01*
X139923744Y-42811325D01*
X140245700Y-42606217D01*
X140255045Y-42600822D01*
X140593638Y-42424561D01*
X140603412Y-42420003D01*
X140956095Y-42273917D01*
X140966227Y-42270230D01*
X141330295Y-42155440D01*
X141340709Y-42152649D01*
X141713405Y-42070025D01*
X141724025Y-42068152D01*
X142102495Y-42018326D01*
X142113226Y-42017386D01*
X142497297Y-42000617D01*
X142502706Y-42000500D01*
X142565892Y-42000500D01*
X159434108Y-42000500D01*
X159497294Y-42000500D01*
X159502702Y-42000617D01*
X159886771Y-42017386D01*
X159897506Y-42018326D01*
X160275971Y-42068152D01*
X160286597Y-42070025D01*
X160659284Y-42152648D01*
X160669710Y-42155442D01*
X161033765Y-42270227D01*
X161043911Y-42273920D01*
X161396578Y-42420000D01*
X161406369Y-42424566D01*
X161744942Y-42600816D01*
X161754310Y-42606224D01*
X162076244Y-42811318D01*
X162085105Y-42817523D01*
X162387930Y-43049889D01*
X162396217Y-43056843D01*
X162677635Y-43314715D01*
X162685284Y-43322364D01*
X162943156Y-43603782D01*
X162950110Y-43612069D01*
X163182476Y-43914894D01*
X163188681Y-43923755D01*
X163393775Y-44245689D01*
X163399183Y-44255057D01*
X163575430Y-44593623D01*
X163580002Y-44603427D01*
X163726075Y-44956078D01*
X163729775Y-44966244D01*
X163844554Y-45330278D01*
X163847354Y-45340727D01*
X163929971Y-45713389D01*
X163931849Y-45724042D01*
X163981671Y-46102473D01*
X163982614Y-46113249D01*
X163999382Y-46497297D01*
X163999500Y-46502706D01*
X163999500Y-135497293D01*
X163999382Y-135502702D01*
X163982614Y-135886750D01*
X163981671Y-135897526D01*
X163931849Y-136275957D01*
X163929971Y-136286610D01*
X163847354Y-136659272D01*
X163844554Y-136669721D01*
X163729775Y-137033755D01*
X163726075Y-137043921D01*
X163580002Y-137396572D01*
X163575430Y-137406376D01*
X163399183Y-137744942D01*
X163393775Y-137754310D01*
X163188681Y-138076244D01*
X163182476Y-138085105D01*
X162950110Y-138387930D01*
X162943156Y-138396217D01*
X162685284Y-138677635D01*
X162677635Y-138685284D01*
X162396217Y-138943156D01*
X162387930Y-138950110D01*
X162085105Y-139182476D01*
X162076244Y-139188681D01*
X161754310Y-139393775D01*
X161744942Y-139399183D01*
X161406376Y-139575430D01*
X161396572Y-139580002D01*
X161043921Y-139726075D01*
X161033755Y-139729775D01*
X160669721Y-139844554D01*
X160659272Y-139847354D01*
X160286610Y-139929971D01*
X160275957Y-139931849D01*
X159897526Y-139981671D01*
X159886750Y-139982614D01*
X159502703Y-139999382D01*
X159497294Y-139999500D01*
X116502706Y-139999500D01*
X116497297Y-139999382D01*
X116113249Y-139982614D01*
X116102473Y-139981671D01*
X115724042Y-139931849D01*
X115713389Y-139929971D01*
X115340727Y-139847354D01*
X115330278Y-139844554D01*
X114966244Y-139729775D01*
X114956078Y-139726075D01*
X114603427Y-139580002D01*
X114593623Y-139575430D01*
X114255057Y-139399183D01*
X114245689Y-139393775D01*
X113923755Y-139188681D01*
X113914894Y-139182476D01*
X113612069Y-138950110D01*
X113603782Y-138943156D01*
X113322364Y-138685284D01*
X113314725Y-138677646D01*
X113275326Y-138634650D01*
X113244549Y-138571925D01*
X113252569Y-138502517D01*
X113296841Y-138448463D01*
X113363308Y-138426926D01*
X113410081Y-138434695D01*
X113542517Y-138484091D01*
X113542516Y-138484091D01*
X113549444Y-138484835D01*
X113602127Y-138490500D01*
X115397872Y-138490499D01*
X115457483Y-138484091D01*
X115592331Y-138433796D01*
X115707546Y-138347546D01*
X115793796Y-138232331D01*
X115844091Y-138097483D01*
X115850500Y-138037873D01*
X115850499Y-137080001D01*
X118314609Y-137080001D01*
X118334136Y-137303200D01*
X118334137Y-137303208D01*
X118392126Y-137519625D01*
X118392127Y-137519627D01*
X118392128Y-137519630D01*
X118486819Y-137722696D01*
X118486821Y-137722700D01*
X118615329Y-137906228D01*
X118615334Y-137906234D01*
X118773765Y-138064665D01*
X118773771Y-138064670D01*
X118957299Y-138193178D01*
X118957301Y-138193179D01*
X118957304Y-138193181D01*
X119160370Y-138287872D01*
X119376794Y-138345863D01*
X119536226Y-138359811D01*
X119599998Y-138365391D01*
X119600000Y-138365391D01*
X119600002Y-138365391D01*
X119655801Y-138360509D01*
X119823206Y-138345863D01*
X120039630Y-138287872D01*
X120242696Y-138193181D01*
X120426233Y-138064667D01*
X120584667Y-137906233D01*
X120713181Y-137722696D01*
X120807872Y-137519630D01*
X120865863Y-137303206D01*
X120885391Y-137080000D01*
X120872407Y-136931598D01*
X120886173Y-136863101D01*
X120908251Y-136833115D01*
X125462952Y-132278415D01*
X125499841Y-132223206D01*
X125545084Y-132155495D01*
X125568518Y-132098920D01*
X125601659Y-132018912D01*
X125630500Y-131873917D01*
X125630500Y-131726082D01*
X125630500Y-82974499D01*
X125650185Y-82907460D01*
X125702989Y-82861705D01*
X125754500Y-82850499D01*
X125777871Y-82850499D01*
X125777872Y-82850499D01*
X125837483Y-82844091D01*
X125972331Y-82793796D01*
X126087546Y-82707546D01*
X126173796Y-82592331D01*
X126224091Y-82457483D01*
X126230500Y-82397873D01*
X126230499Y-81500000D01*
X128604341Y-81500000D01*
X128624936Y-81735403D01*
X128624938Y-81735413D01*
X128686094Y-81963655D01*
X128686096Y-81963659D01*
X128686097Y-81963663D01*
X128690000Y-81972032D01*
X128785965Y-82177830D01*
X128785967Y-82177834D01*
X128894281Y-82332521D01*
X128921501Y-82371396D01*
X128921506Y-82371402D01*
X129088595Y-82538492D01*
X129088598Y-82538494D01*
X129088599Y-82538495D01*
X129156623Y-82586125D01*
X129200248Y-82640701D01*
X129209500Y-82687700D01*
X129209500Y-99253918D01*
X129209500Y-99253920D01*
X129209499Y-99253920D01*
X129238340Y-99398907D01*
X129238343Y-99398917D01*
X129294912Y-99535488D01*
X129294920Y-99535503D01*
X129326623Y-99582948D01*
X129326624Y-99582951D01*
X129377046Y-99658414D01*
X129377052Y-99658421D01*
X143691744Y-113973112D01*
X143725229Y-114034435D01*
X143727591Y-114071599D01*
X143714609Y-114219996D01*
X143714609Y-114220001D01*
X143734136Y-114443200D01*
X143734137Y-114443208D01*
X143792126Y-114659625D01*
X143792127Y-114659627D01*
X143792128Y-114659630D01*
X143831313Y-114743663D01*
X143886819Y-114862696D01*
X143886821Y-114862700D01*
X144015329Y-115046228D01*
X144015334Y-115046234D01*
X144173765Y-115204665D01*
X144173771Y-115204670D01*
X144357299Y-115333178D01*
X144357301Y-115333179D01*
X144357304Y-115333181D01*
X144452600Y-115377618D01*
X144505039Y-115423790D01*
X144524191Y-115490984D01*
X144503975Y-115557865D01*
X144452600Y-115602382D01*
X144357306Y-115646818D01*
X144357304Y-115646819D01*
X144173764Y-115775334D01*
X144015334Y-115933764D01*
X143886819Y-116117304D01*
X143886818Y-116117306D01*
X143792129Y-116320368D01*
X143792126Y-116320374D01*
X143734137Y-116536791D01*
X143734136Y-116536799D01*
X143714609Y-116759998D01*
X143714609Y-116760001D01*
X143734136Y-116983200D01*
X143734137Y-116983208D01*
X143792126Y-117199625D01*
X143792127Y-117199627D01*
X143792128Y-117199630D01*
X143831313Y-117283663D01*
X143886819Y-117402696D01*
X143886821Y-117402700D01*
X144015329Y-117586228D01*
X144015334Y-117586234D01*
X144173765Y-117744665D01*
X144173771Y-117744670D01*
X144357299Y-117873178D01*
X144357301Y-117873179D01*
X144357304Y-117873181D01*
X144452600Y-117917618D01*
X144505039Y-117963790D01*
X144524191Y-118030984D01*
X144503975Y-118097865D01*
X144452600Y-118142382D01*
X144357306Y-118186818D01*
X144357304Y-118186819D01*
X144173764Y-118315334D01*
X144015334Y-118473764D01*
X143886819Y-118657304D01*
X143886818Y-118657306D01*
X143792129Y-118860368D01*
X143792126Y-118860374D01*
X143734137Y-119076791D01*
X143734136Y-119076799D01*
X143714609Y-119299998D01*
X143714609Y-119300001D01*
X143734136Y-119523200D01*
X143734137Y-119523208D01*
X143792126Y-119739625D01*
X143792127Y-119739627D01*
X143792128Y-119739630D01*
X143831313Y-119823663D01*
X143886819Y-119942696D01*
X143886821Y-119942700D01*
X144015329Y-120126228D01*
X144015334Y-120126234D01*
X144173765Y-120284665D01*
X144173771Y-120284670D01*
X144357299Y-120413178D01*
X144357301Y-120413179D01*
X144357304Y-120413181D01*
X144452600Y-120457618D01*
X144505039Y-120503790D01*
X144524191Y-120570984D01*
X144503975Y-120637865D01*
X144452600Y-120682382D01*
X144357306Y-120726818D01*
X144357304Y-120726819D01*
X144173764Y-120855334D01*
X144015334Y-121013764D01*
X143886819Y-121197304D01*
X143886818Y-121197306D01*
X143792129Y-121400368D01*
X143792126Y-121400374D01*
X143734137Y-121616791D01*
X143734136Y-121616799D01*
X143714609Y-121839998D01*
X143714609Y-121840001D01*
X143734136Y-122063200D01*
X143734137Y-122063208D01*
X143792126Y-122279625D01*
X143792127Y-122279627D01*
X143792128Y-122279630D01*
X143831313Y-122363663D01*
X143886819Y-122482696D01*
X143886821Y-122482700D01*
X144015329Y-122666228D01*
X144015334Y-122666234D01*
X144173765Y-122824665D01*
X144173771Y-122824670D01*
X144357299Y-122953178D01*
X144357301Y-122953179D01*
X144357304Y-122953181D01*
X144452600Y-122997618D01*
X144505039Y-123043790D01*
X144524191Y-123110984D01*
X144503975Y-123177865D01*
X144452600Y-123222382D01*
X144357306Y-123266818D01*
X144357304Y-123266819D01*
X144173764Y-123395334D01*
X144015334Y-123553764D01*
X143886819Y-123737304D01*
X143886818Y-123737306D01*
X143792129Y-123940368D01*
X143792126Y-123940374D01*
X143734137Y-124156791D01*
X143734136Y-124156799D01*
X143714609Y-124379998D01*
X143714609Y-124380001D01*
X143734136Y-124603200D01*
X143734137Y-124603208D01*
X143792126Y-124819625D01*
X143792127Y-124819627D01*
X143792128Y-124819630D01*
X143831313Y-124903663D01*
X143886819Y-125022696D01*
X143886821Y-125022700D01*
X144015329Y-125206228D01*
X144015334Y-125206234D01*
X144173765Y-125364665D01*
X144173771Y-125364670D01*
X144357299Y-125493178D01*
X144357301Y-125493179D01*
X144357304Y-125493181D01*
X144452600Y-125537618D01*
X144505039Y-125583790D01*
X144524191Y-125650984D01*
X144503975Y-125717865D01*
X144452600Y-125762382D01*
X144357306Y-125806818D01*
X144357304Y-125806819D01*
X144173764Y-125935334D01*
X144015334Y-126093764D01*
X143886819Y-126277304D01*
X143886818Y-126277306D01*
X143792129Y-126480368D01*
X143792126Y-126480374D01*
X143734137Y-126696791D01*
X143734136Y-126696799D01*
X143714609Y-126919998D01*
X143714609Y-126920001D01*
X143734136Y-127143200D01*
X143734137Y-127143208D01*
X143792126Y-127359625D01*
X143792127Y-127359627D01*
X143792128Y-127359630D01*
X143831313Y-127443663D01*
X143886819Y-127562696D01*
X143886821Y-127562700D01*
X144015329Y-127746228D01*
X144015334Y-127746234D01*
X144173765Y-127904665D01*
X144173771Y-127904670D01*
X144357299Y-128033178D01*
X144357301Y-128033179D01*
X144357304Y-128033181D01*
X144452600Y-128077618D01*
X144505039Y-128123790D01*
X144524191Y-128190984D01*
X144503975Y-128257865D01*
X144452600Y-128302382D01*
X144357306Y-128346818D01*
X144357304Y-128346819D01*
X144173764Y-128475334D01*
X144015334Y-128633764D01*
X143886819Y-128817304D01*
X143886818Y-128817306D01*
X143792129Y-129020368D01*
X143792126Y-129020374D01*
X143734137Y-129236791D01*
X143734136Y-129236799D01*
X143714609Y-129459998D01*
X143714609Y-129460001D01*
X143734136Y-129683200D01*
X143734137Y-129683208D01*
X143792126Y-129899625D01*
X143792127Y-129899627D01*
X143792128Y-129899630D01*
X143831313Y-129983663D01*
X143886819Y-130102696D01*
X143886821Y-130102700D01*
X144015329Y-130286228D01*
X144015334Y-130286234D01*
X144173765Y-130444665D01*
X144173771Y-130444670D01*
X144357299Y-130573178D01*
X144357301Y-130573179D01*
X144357304Y-130573181D01*
X144452600Y-130617618D01*
X144505039Y-130663790D01*
X144524191Y-130730984D01*
X144503975Y-130797865D01*
X144452600Y-130842382D01*
X144357306Y-130886818D01*
X144357304Y-130886819D01*
X144173764Y-131015334D01*
X144015334Y-131173764D01*
X143886819Y-131357304D01*
X143886818Y-131357306D01*
X143792129Y-131560368D01*
X143792126Y-131560374D01*
X143734137Y-131776791D01*
X143734136Y-131776799D01*
X143714609Y-131999998D01*
X143714609Y-132000001D01*
X143734136Y-132223200D01*
X143734137Y-132223205D01*
X143792126Y-132439625D01*
X143792127Y-132439627D01*
X143792128Y-132439630D01*
X143831313Y-132523663D01*
X143886819Y-132642696D01*
X143886821Y-132642700D01*
X144015329Y-132826228D01*
X144015334Y-132826234D01*
X144173765Y-132984665D01*
X144173771Y-132984670D01*
X144357299Y-133113178D01*
X144357301Y-133113179D01*
X144357304Y-133113181D01*
X144452600Y-133157618D01*
X144505039Y-133203790D01*
X144524191Y-133270984D01*
X144503975Y-133337865D01*
X144452600Y-133382382D01*
X144357306Y-133426818D01*
X144357304Y-133426819D01*
X144173764Y-133555334D01*
X144015334Y-133713764D01*
X143886819Y-133897304D01*
X143886818Y-133897306D01*
X143792129Y-134100368D01*
X143792126Y-134100374D01*
X143734137Y-134316791D01*
X143734136Y-134316799D01*
X143714609Y-134539998D01*
X143714609Y-134540001D01*
X143734136Y-134763200D01*
X143734137Y-134763208D01*
X143792126Y-134979625D01*
X143792127Y-134979627D01*
X143792128Y-134979630D01*
X143868614Y-135143655D01*
X143886819Y-135182696D01*
X143886821Y-135182700D01*
X144015329Y-135366228D01*
X144015334Y-135366234D01*
X144173765Y-135524665D01*
X144173771Y-135524670D01*
X144357299Y-135653178D01*
X144357301Y-135653179D01*
X144357304Y-135653181D01*
X144435948Y-135689853D01*
X144452600Y-135697618D01*
X144505039Y-135743790D01*
X144524191Y-135810984D01*
X144503975Y-135877865D01*
X144452600Y-135922382D01*
X144357306Y-135966818D01*
X144357304Y-135966819D01*
X144173764Y-136095334D01*
X144015334Y-136253764D01*
X143886819Y-136437304D01*
X143886818Y-136437306D01*
X143792129Y-136640368D01*
X143792126Y-136640374D01*
X143734137Y-136856791D01*
X143734136Y-136856799D01*
X143714609Y-137079998D01*
X143714609Y-137080001D01*
X143734136Y-137303200D01*
X143734137Y-137303208D01*
X143792126Y-137519625D01*
X143792127Y-137519627D01*
X143792128Y-137519630D01*
X143886819Y-137722696D01*
X143886821Y-137722700D01*
X144015329Y-137906228D01*
X144015334Y-137906234D01*
X144173765Y-138064665D01*
X144173771Y-138064670D01*
X144357299Y-138193178D01*
X144357301Y-138193179D01*
X144357304Y-138193181D01*
X144560370Y-138287872D01*
X144776794Y-138345863D01*
X144936226Y-138359811D01*
X144999998Y-138365391D01*
X145000000Y-138365391D01*
X145000002Y-138365391D01*
X145055801Y-138360509D01*
X145223206Y-138345863D01*
X145439630Y-138287872D01*
X145642696Y-138193181D01*
X145826233Y-138064667D01*
X145984667Y-137906233D01*
X146113181Y-137722696D01*
X146207872Y-137519630D01*
X146265863Y-137303206D01*
X146285391Y-137080000D01*
X146282234Y-137043921D01*
X146267368Y-136873999D01*
X146265863Y-136856794D01*
X146207872Y-136640370D01*
X146113181Y-136437305D01*
X145984667Y-136253767D01*
X145826233Y-136095333D01*
X145826229Y-136095330D01*
X145826228Y-136095329D01*
X145642700Y-135966821D01*
X145642692Y-135966817D01*
X145569000Y-135932454D01*
X145547399Y-135922381D01*
X145494960Y-135876210D01*
X145475808Y-135809017D01*
X145496023Y-135742135D01*
X145547400Y-135697618D01*
X145564052Y-135689853D01*
X145642696Y-135653181D01*
X145826233Y-135524667D01*
X145984667Y-135366233D01*
X146113181Y-135182696D01*
X146207872Y-134979630D01*
X146265863Y-134763206D01*
X146273143Y-134680000D01*
X148644341Y-134680000D01*
X148664936Y-134915403D01*
X148664938Y-134915413D01*
X148726094Y-135143655D01*
X148726096Y-135143659D01*
X148726097Y-135143663D01*
X148788396Y-135277263D01*
X148825965Y-135357830D01*
X148825967Y-135357834D01*
X148879375Y-135434108D01*
X148961501Y-135551396D01*
X148961506Y-135551402D01*
X149083430Y-135673326D01*
X149116915Y-135734649D01*
X149111931Y-135804341D01*
X149070059Y-135860274D01*
X149039083Y-135877189D01*
X148907669Y-135926203D01*
X148907664Y-135926206D01*
X148792455Y-136012452D01*
X148792452Y-136012455D01*
X148706206Y-136127664D01*
X148706202Y-136127671D01*
X148655908Y-136262517D01*
X148649501Y-136322116D01*
X148649501Y-136322123D01*
X148649500Y-136322135D01*
X148649500Y-138117870D01*
X148649501Y-138117876D01*
X148655908Y-138177483D01*
X148706202Y-138312328D01*
X148706206Y-138312335D01*
X148792452Y-138427544D01*
X148792455Y-138427547D01*
X148907664Y-138513793D01*
X148907671Y-138513797D01*
X149042517Y-138564091D01*
X149042516Y-138564091D01*
X149049444Y-138564835D01*
X149102127Y-138570500D01*
X150897872Y-138570499D01*
X150957483Y-138564091D01*
X151092331Y-138513796D01*
X151207546Y-138427546D01*
X151293796Y-138312331D01*
X151344091Y-138177483D01*
X151350500Y-138117873D01*
X151350499Y-136621288D01*
X158649500Y-136621288D01*
X158681161Y-136861785D01*
X158743947Y-137096104D01*
X158829729Y-137303200D01*
X158836776Y-137320212D01*
X158958064Y-137530289D01*
X158958066Y-137530292D01*
X158958067Y-137530293D01*
X159105733Y-137722736D01*
X159105739Y-137722743D01*
X159277256Y-137894260D01*
X159277263Y-137894266D01*
X159292859Y-137906233D01*
X159469711Y-138041936D01*
X159679788Y-138163224D01*
X159903900Y-138256054D01*
X160138211Y-138318838D01*
X160318586Y-138342584D01*
X160378711Y-138350500D01*
X160378712Y-138350500D01*
X160621289Y-138350500D01*
X160669388Y-138344167D01*
X160861789Y-138318838D01*
X161096100Y-138256054D01*
X161320212Y-138163224D01*
X161530289Y-138041936D01*
X161722738Y-137894265D01*
X161894265Y-137722738D01*
X162041936Y-137530289D01*
X162163224Y-137320212D01*
X162256054Y-137096100D01*
X162318838Y-136861789D01*
X162350500Y-136621288D01*
X162350500Y-136378712D01*
X162318838Y-136138211D01*
X162256054Y-135903900D01*
X162163224Y-135679788D01*
X162041936Y-135469711D01*
X161981018Y-135390321D01*
X161894266Y-135277263D01*
X161894260Y-135277256D01*
X161722743Y-135105739D01*
X161722736Y-135105733D01*
X161530293Y-134958067D01*
X161530292Y-134958066D01*
X161530289Y-134958064D01*
X161320212Y-134836776D01*
X161320205Y-134836773D01*
X161096104Y-134743947D01*
X160861785Y-134681161D01*
X160621289Y-134649500D01*
X160621288Y-134649500D01*
X160378712Y-134649500D01*
X160378711Y-134649500D01*
X160138214Y-134681161D01*
X159903895Y-134743947D01*
X159679794Y-134836773D01*
X159679785Y-134836777D01*
X159469706Y-134958067D01*
X159277263Y-135105733D01*
X159277256Y-135105739D01*
X159105739Y-135277256D01*
X159105733Y-135277263D01*
X158958067Y-135469706D01*
X158836777Y-135679785D01*
X158836773Y-135679794D01*
X158743947Y-135903895D01*
X158681161Y-136138214D01*
X158649500Y-136378711D01*
X158649500Y-136621288D01*
X151350499Y-136621288D01*
X151350499Y-136322128D01*
X151344091Y-136262517D01*
X151340827Y-136253767D01*
X151293797Y-136127671D01*
X151293793Y-136127664D01*
X151207547Y-136012455D01*
X151207544Y-136012452D01*
X151092335Y-135926206D01*
X151092328Y-135926202D01*
X150960917Y-135877189D01*
X150904983Y-135835318D01*
X150880566Y-135769853D01*
X150895418Y-135701580D01*
X150916563Y-135673332D01*
X151038495Y-135551401D01*
X151174035Y-135357830D01*
X151273903Y-135143663D01*
X151335063Y-134915408D01*
X151355659Y-134680000D01*
X151335063Y-134444592D01*
X151273903Y-134216337D01*
X151174035Y-134002171D01*
X151118018Y-133922169D01*
X151038494Y-133808597D01*
X150871402Y-133641506D01*
X150871396Y-133641501D01*
X150685842Y-133511575D01*
X150642217Y-133456998D01*
X150635023Y-133387500D01*
X150666546Y-133325145D01*
X150685842Y-133308425D01*
X150776215Y-133245145D01*
X150871401Y-133178495D01*
X151038495Y-133011401D01*
X151174035Y-132817830D01*
X151273903Y-132603663D01*
X151335063Y-132375408D01*
X151355659Y-132140000D01*
X151335063Y-131904592D01*
X151273903Y-131676337D01*
X151174035Y-131462171D01*
X151118018Y-131382169D01*
X151038494Y-131268597D01*
X150871402Y-131101506D01*
X150871396Y-131101501D01*
X150685842Y-130971575D01*
X150642217Y-130916998D01*
X150635023Y-130847500D01*
X150666546Y-130785145D01*
X150685842Y-130768425D01*
X150776215Y-130705145D01*
X150871401Y-130638495D01*
X151038495Y-130471401D01*
X151174035Y-130277830D01*
X151273903Y-130063663D01*
X151335063Y-129835408D01*
X151355659Y-129600000D01*
X151335063Y-129364592D01*
X151273903Y-129136337D01*
X151174035Y-128922171D01*
X151118018Y-128842169D01*
X151038494Y-128728597D01*
X150871402Y-128561506D01*
X150871396Y-128561501D01*
X150685842Y-128431575D01*
X150642217Y-128376998D01*
X150635023Y-128307500D01*
X150666546Y-128245145D01*
X150685842Y-128228425D01*
X150776215Y-128165145D01*
X150871401Y-128098495D01*
X151038495Y-127931401D01*
X151174035Y-127737830D01*
X151273903Y-127523663D01*
X151335063Y-127295408D01*
X151355659Y-127060000D01*
X151335063Y-126824592D01*
X151273903Y-126596337D01*
X151174035Y-126382171D01*
X151118018Y-126302169D01*
X151038494Y-126188597D01*
X150871402Y-126021506D01*
X150871396Y-126021501D01*
X150685842Y-125891575D01*
X150642217Y-125836998D01*
X150635023Y-125767500D01*
X150666546Y-125705145D01*
X150685842Y-125688425D01*
X150776215Y-125625145D01*
X150871401Y-125558495D01*
X151038495Y-125391401D01*
X151174035Y-125197830D01*
X151273903Y-124983663D01*
X151335063Y-124755408D01*
X151355659Y-124520000D01*
X151335063Y-124284592D01*
X151273903Y-124056337D01*
X151174035Y-123842171D01*
X151118018Y-123762169D01*
X151038494Y-123648597D01*
X150871402Y-123481506D01*
X150871396Y-123481501D01*
X150685842Y-123351575D01*
X150642217Y-123296998D01*
X150635023Y-123227500D01*
X150666546Y-123165145D01*
X150685842Y-123148425D01*
X150776215Y-123085145D01*
X150871401Y-123018495D01*
X151038495Y-122851401D01*
X151174035Y-122657830D01*
X151273903Y-122443663D01*
X151335063Y-122215408D01*
X151355659Y-121980000D01*
X151335063Y-121744592D01*
X151273903Y-121516337D01*
X151174035Y-121302171D01*
X151118018Y-121222169D01*
X151038494Y-121108597D01*
X150871402Y-120941506D01*
X150871396Y-120941501D01*
X150685842Y-120811575D01*
X150642217Y-120756998D01*
X150635023Y-120687500D01*
X150666546Y-120625145D01*
X150685842Y-120608425D01*
X150776215Y-120545145D01*
X150871401Y-120478495D01*
X151038495Y-120311401D01*
X151174035Y-120117830D01*
X151273903Y-119903663D01*
X151335063Y-119675408D01*
X151355659Y-119440000D01*
X151335063Y-119204592D01*
X151273903Y-118976337D01*
X151174035Y-118762171D01*
X151118018Y-118682169D01*
X151038494Y-118568597D01*
X150871402Y-118401506D01*
X150871396Y-118401501D01*
X150685842Y-118271575D01*
X150642217Y-118216998D01*
X150635023Y-118147500D01*
X150666546Y-118085145D01*
X150685842Y-118068425D01*
X150776215Y-118005145D01*
X150871401Y-117938495D01*
X151038495Y-117771401D01*
X151174035Y-117577830D01*
X151273903Y-117363663D01*
X151335063Y-117135408D01*
X151355659Y-116900000D01*
X151335063Y-116664592D01*
X151273903Y-116436337D01*
X151174035Y-116222171D01*
X151118018Y-116142169D01*
X151038494Y-116028597D01*
X150871402Y-115861506D01*
X150871396Y-115861501D01*
X150685842Y-115731575D01*
X150642217Y-115676998D01*
X150635023Y-115607500D01*
X150666546Y-115545145D01*
X150685842Y-115528425D01*
X150776215Y-115465145D01*
X150871401Y-115398495D01*
X151038495Y-115231401D01*
X151174035Y-115037830D01*
X151273903Y-114823663D01*
X151335063Y-114595408D01*
X151355659Y-114360000D01*
X151335063Y-114124592D01*
X151273903Y-113896337D01*
X151174035Y-113682171D01*
X151118018Y-113602169D01*
X151038494Y-113488597D01*
X150871402Y-113321506D01*
X150871396Y-113321501D01*
X150685842Y-113191575D01*
X150642217Y-113136998D01*
X150635023Y-113067500D01*
X150666546Y-113005145D01*
X150685842Y-112988425D01*
X150742122Y-112949017D01*
X150871401Y-112858495D01*
X151038495Y-112691401D01*
X151174035Y-112497830D01*
X151273903Y-112283663D01*
X151335063Y-112055408D01*
X151355659Y-111820000D01*
X151335063Y-111584592D01*
X151273903Y-111356337D01*
X151174035Y-111142171D01*
X151118018Y-111062169D01*
X151038494Y-110948597D01*
X150871402Y-110781506D01*
X150871396Y-110781501D01*
X150685842Y-110651575D01*
X150642217Y-110596998D01*
X150635023Y-110527500D01*
X150666546Y-110465145D01*
X150685842Y-110448425D01*
X150776215Y-110385145D01*
X150871401Y-110318495D01*
X151038495Y-110151401D01*
X151174035Y-109957830D01*
X151273903Y-109743663D01*
X151335063Y-109515408D01*
X151355659Y-109280000D01*
X151335063Y-109044592D01*
X151273903Y-108816337D01*
X151174035Y-108602171D01*
X151118018Y-108522169D01*
X151038494Y-108408597D01*
X150871402Y-108241506D01*
X150871395Y-108241501D01*
X150677834Y-108105967D01*
X150677830Y-108105965D01*
X150677828Y-108105964D01*
X150463663Y-108006097D01*
X150463659Y-108006096D01*
X150463655Y-108006094D01*
X150235413Y-107944938D01*
X150235403Y-107944936D01*
X150000001Y-107924341D01*
X149999999Y-107924341D01*
X149764596Y-107944936D01*
X149764586Y-107944938D01*
X149536344Y-108006094D01*
X149536335Y-108006098D01*
X149322171Y-108105964D01*
X149322169Y-108105965D01*
X149128597Y-108241505D01*
X148961505Y-108408597D01*
X148825965Y-108602169D01*
X148825964Y-108602171D01*
X148726098Y-108816335D01*
X148726094Y-108816344D01*
X148664938Y-109044586D01*
X148664936Y-109044596D01*
X148644341Y-109279999D01*
X148644341Y-109280000D01*
X148664936Y-109515403D01*
X148664938Y-109515413D01*
X148726094Y-109743655D01*
X148726096Y-109743659D01*
X148726097Y-109743663D01*
X148803748Y-109910185D01*
X148825965Y-109957830D01*
X148825967Y-109957834D01*
X148961501Y-110151395D01*
X148961506Y-110151402D01*
X149128597Y-110318493D01*
X149128603Y-110318498D01*
X149314158Y-110448425D01*
X149357783Y-110503002D01*
X149364977Y-110572500D01*
X149333454Y-110634855D01*
X149314158Y-110651575D01*
X149128597Y-110781505D01*
X148961505Y-110948597D01*
X148825965Y-111142169D01*
X148825964Y-111142171D01*
X148726098Y-111356335D01*
X148726094Y-111356344D01*
X148664938Y-111584586D01*
X148664936Y-111584596D01*
X148644341Y-111819999D01*
X148644341Y-111820000D01*
X148664936Y-112055403D01*
X148664938Y-112055413D01*
X148726094Y-112283655D01*
X148726096Y-112283659D01*
X148726097Y-112283663D01*
X148788660Y-112417830D01*
X148825965Y-112497830D01*
X148825967Y-112497834D01*
X148961501Y-112691395D01*
X148961506Y-112691402D01*
X149128597Y-112858493D01*
X149128603Y-112858498D01*
X149314158Y-112988425D01*
X149357783Y-113043002D01*
X149364977Y-113112500D01*
X149333454Y-113174855D01*
X149314158Y-113191575D01*
X149128597Y-113321505D01*
X148961505Y-113488597D01*
X148825965Y-113682169D01*
X148825964Y-113682171D01*
X148726098Y-113896335D01*
X148726094Y-113896344D01*
X148664938Y-114124586D01*
X148664936Y-114124596D01*
X148644341Y-114359999D01*
X148644341Y-114360000D01*
X148664936Y-114595403D01*
X148664938Y-114595413D01*
X148726094Y-114823655D01*
X148726096Y-114823659D01*
X148726097Y-114823663D01*
X148788660Y-114957830D01*
X148825965Y-115037830D01*
X148825967Y-115037834D01*
X148961501Y-115231395D01*
X148961506Y-115231402D01*
X149128597Y-115398493D01*
X149128603Y-115398498D01*
X149314158Y-115528425D01*
X149357783Y-115583002D01*
X149364977Y-115652500D01*
X149333454Y-115714855D01*
X149314158Y-115731575D01*
X149128597Y-115861505D01*
X148961505Y-116028597D01*
X148825965Y-116222169D01*
X148825964Y-116222171D01*
X148726098Y-116436335D01*
X148726094Y-116436344D01*
X148664938Y-116664586D01*
X148664936Y-116664596D01*
X148644341Y-116899999D01*
X148644341Y-116900000D01*
X148664936Y-117135403D01*
X148664938Y-117135413D01*
X148726094Y-117363655D01*
X148726096Y-117363659D01*
X148726097Y-117363663D01*
X148788660Y-117497830D01*
X148825965Y-117577830D01*
X148825967Y-117577834D01*
X148961501Y-117771395D01*
X148961506Y-117771402D01*
X149128597Y-117938493D01*
X149128603Y-117938498D01*
X149314158Y-118068425D01*
X149357783Y-118123002D01*
X149364977Y-118192500D01*
X149333454Y-118254855D01*
X149314158Y-118271575D01*
X149128597Y-118401505D01*
X148961505Y-118568597D01*
X148825965Y-118762169D01*
X148825964Y-118762171D01*
X148726098Y-118976335D01*
X148726094Y-118976344D01*
X148664938Y-119204586D01*
X148664936Y-119204596D01*
X148644341Y-119439999D01*
X148644341Y-119440000D01*
X148664936Y-119675403D01*
X148664938Y-119675413D01*
X148726094Y-119903655D01*
X148726096Y-119903659D01*
X148726097Y-119903663D01*
X148788660Y-120037830D01*
X148825965Y-120117830D01*
X148825967Y-120117834D01*
X148961501Y-120311395D01*
X148961506Y-120311402D01*
X149128597Y-120478493D01*
X149128603Y-120478498D01*
X149314158Y-120608425D01*
X149357783Y-120663002D01*
X149364977Y-120732500D01*
X149333454Y-120794855D01*
X149314158Y-120811575D01*
X149128597Y-120941505D01*
X148961505Y-121108597D01*
X148825965Y-121302169D01*
X148825964Y-121302171D01*
X148726098Y-121516335D01*
X148726094Y-121516344D01*
X148664938Y-121744586D01*
X148664936Y-121744596D01*
X148644341Y-121979999D01*
X148644341Y-121980000D01*
X148664936Y-122215403D01*
X148664938Y-122215413D01*
X148726094Y-122443655D01*
X148726096Y-122443659D01*
X148726097Y-122443663D01*
X148788660Y-122577830D01*
X148825965Y-122657830D01*
X148825967Y-122657834D01*
X148961501Y-122851395D01*
X148961506Y-122851402D01*
X149128597Y-123018493D01*
X149128603Y-123018498D01*
X149314158Y-123148425D01*
X149357783Y-123203002D01*
X149364977Y-123272500D01*
X149333454Y-123334855D01*
X149314158Y-123351575D01*
X149128597Y-123481505D01*
X148961505Y-123648597D01*
X148825965Y-123842169D01*
X148825964Y-123842171D01*
X148726098Y-124056335D01*
X148726094Y-124056344D01*
X148664938Y-124284586D01*
X148664936Y-124284596D01*
X148644341Y-124519999D01*
X148644341Y-124520000D01*
X148664936Y-124755403D01*
X148664938Y-124755413D01*
X148726094Y-124983655D01*
X148726096Y-124983659D01*
X148726097Y-124983663D01*
X148788660Y-125117830D01*
X148825965Y-125197830D01*
X148825967Y-125197834D01*
X148961501Y-125391395D01*
X148961506Y-125391402D01*
X149128597Y-125558493D01*
X149128603Y-125558498D01*
X149314158Y-125688425D01*
X149357783Y-125743002D01*
X149364977Y-125812500D01*
X149333454Y-125874855D01*
X149314158Y-125891575D01*
X149128597Y-126021505D01*
X148961505Y-126188597D01*
X148825965Y-126382169D01*
X148825964Y-126382171D01*
X148726098Y-126596335D01*
X148726094Y-126596344D01*
X148664938Y-126824586D01*
X148664936Y-126824596D01*
X148644341Y-127059999D01*
X148644341Y-127060000D01*
X148664936Y-127295403D01*
X148664938Y-127295413D01*
X148726094Y-127523655D01*
X148726096Y-127523659D01*
X148726097Y-127523663D01*
X148788660Y-127657830D01*
X148825965Y-127737830D01*
X148825967Y-127737834D01*
X148961501Y-127931395D01*
X148961506Y-127931402D01*
X149128597Y-128098493D01*
X149128603Y-128098498D01*
X149314158Y-128228425D01*
X149357783Y-128283002D01*
X149364977Y-128352500D01*
X149333454Y-128414855D01*
X149314158Y-128431575D01*
X149128597Y-128561505D01*
X148961505Y-128728597D01*
X148825965Y-128922169D01*
X148825964Y-128922171D01*
X148726098Y-129136335D01*
X148726094Y-129136344D01*
X148664938Y-129364586D01*
X148664936Y-129364596D01*
X148644341Y-129599999D01*
X148644341Y-129600000D01*
X148664936Y-129835403D01*
X148664938Y-129835413D01*
X148726094Y-130063655D01*
X148726096Y-130063659D01*
X148726097Y-130063663D01*
X148788660Y-130197830D01*
X148825965Y-130277830D01*
X148825967Y-130277834D01*
X148961501Y-130471395D01*
X148961506Y-130471402D01*
X149128597Y-130638493D01*
X149128603Y-130638498D01*
X149314158Y-130768425D01*
X149357783Y-130823002D01*
X149364977Y-130892500D01*
X149333454Y-130954855D01*
X149314158Y-130971575D01*
X149128597Y-131101505D01*
X148961505Y-131268597D01*
X148825965Y-131462169D01*
X148825964Y-131462171D01*
X148726098Y-131676335D01*
X148726094Y-131676344D01*
X148664938Y-131904586D01*
X148664936Y-131904596D01*
X148644341Y-132139999D01*
X148644341Y-132140000D01*
X148664936Y-132375403D01*
X148664938Y-132375413D01*
X148726094Y-132603655D01*
X148726096Y-132603659D01*
X148726097Y-132603663D01*
X148788660Y-132737830D01*
X148825965Y-132817830D01*
X148825967Y-132817834D01*
X148961501Y-133011395D01*
X148961506Y-133011402D01*
X149128597Y-133178493D01*
X149128603Y-133178498D01*
X149314158Y-133308425D01*
X149357783Y-133363002D01*
X149364977Y-133432500D01*
X149333454Y-133494855D01*
X149314158Y-133511575D01*
X149128597Y-133641505D01*
X148961505Y-133808597D01*
X148825965Y-134002169D01*
X148825964Y-134002171D01*
X148726098Y-134216335D01*
X148726094Y-134216344D01*
X148664938Y-134444586D01*
X148664936Y-134444596D01*
X148644341Y-134679999D01*
X148644341Y-134680000D01*
X146273143Y-134680000D01*
X146285391Y-134540000D01*
X146284486Y-134529661D01*
X146270045Y-134364596D01*
X146265863Y-134316794D01*
X146207872Y-134100370D01*
X146113181Y-133897305D01*
X146048924Y-133805536D01*
X145984668Y-133713768D01*
X145912401Y-133641501D01*
X145826233Y-133555333D01*
X145826229Y-133555330D01*
X145826228Y-133555329D01*
X145642700Y-133426821D01*
X145642692Y-133426817D01*
X145547400Y-133382382D01*
X145494960Y-133336210D01*
X145475808Y-133269017D01*
X145496023Y-133202135D01*
X145547400Y-133157618D01*
X145642696Y-133113181D01*
X145826233Y-132984667D01*
X145984667Y-132826233D01*
X146113181Y-132642696D01*
X146207872Y-132439630D01*
X146265863Y-132223206D01*
X146285391Y-132000000D01*
X146265863Y-131776794D01*
X146207872Y-131560370D01*
X146113181Y-131357305D01*
X146048924Y-131265536D01*
X145984668Y-131173768D01*
X145912401Y-131101501D01*
X145826233Y-131015333D01*
X145826229Y-131015330D01*
X145826228Y-131015329D01*
X145642700Y-130886821D01*
X145642692Y-130886817D01*
X145547400Y-130842382D01*
X145494960Y-130796210D01*
X145475808Y-130729017D01*
X145496023Y-130662135D01*
X145547400Y-130617618D01*
X145642696Y-130573181D01*
X145826233Y-130444667D01*
X145984667Y-130286233D01*
X146113181Y-130102696D01*
X146207872Y-129899630D01*
X146265863Y-129683206D01*
X146285391Y-129460000D01*
X146265863Y-129236794D01*
X146207872Y-129020370D01*
X146113181Y-128817305D01*
X146048924Y-128725536D01*
X145984668Y-128633768D01*
X145912401Y-128561501D01*
X145826233Y-128475333D01*
X145826229Y-128475330D01*
X145826228Y-128475329D01*
X145642700Y-128346821D01*
X145642692Y-128346817D01*
X145547400Y-128302382D01*
X145494960Y-128256210D01*
X145475808Y-128189017D01*
X145496023Y-128122135D01*
X145547400Y-128077618D01*
X145642696Y-128033181D01*
X145826233Y-127904667D01*
X145984667Y-127746233D01*
X146113181Y-127562696D01*
X146207872Y-127359630D01*
X146265863Y-127143206D01*
X146285391Y-126920000D01*
X146265863Y-126696794D01*
X146207872Y-126480370D01*
X146113181Y-126277305D01*
X146048924Y-126185536D01*
X145984668Y-126093768D01*
X145912401Y-126021501D01*
X145826233Y-125935333D01*
X145826229Y-125935330D01*
X145826228Y-125935329D01*
X145642700Y-125806821D01*
X145642692Y-125806817D01*
X145547400Y-125762382D01*
X145494960Y-125716210D01*
X145475808Y-125649017D01*
X145496023Y-125582135D01*
X145547400Y-125537618D01*
X145642696Y-125493181D01*
X145826233Y-125364667D01*
X145984667Y-125206233D01*
X146113181Y-125022696D01*
X146207872Y-124819630D01*
X146265863Y-124603206D01*
X146285391Y-124380000D01*
X146265863Y-124156794D01*
X146207872Y-123940370D01*
X146113181Y-123737305D01*
X146048924Y-123645536D01*
X145984668Y-123553768D01*
X145912401Y-123481501D01*
X145826233Y-123395333D01*
X145826229Y-123395330D01*
X145826228Y-123395329D01*
X145642700Y-123266821D01*
X145642692Y-123266817D01*
X145547400Y-123222382D01*
X145494960Y-123176210D01*
X145475808Y-123109017D01*
X145496023Y-123042135D01*
X145547400Y-122997618D01*
X145642696Y-122953181D01*
X145826233Y-122824667D01*
X145984667Y-122666233D01*
X146113181Y-122482696D01*
X146207872Y-122279630D01*
X146265863Y-122063206D01*
X146285391Y-121840000D01*
X146265863Y-121616794D01*
X146207872Y-121400370D01*
X146113181Y-121197305D01*
X146048924Y-121105536D01*
X145984668Y-121013768D01*
X145912401Y-120941501D01*
X145826233Y-120855333D01*
X145826229Y-120855330D01*
X145826228Y-120855329D01*
X145642700Y-120726821D01*
X145642692Y-120726817D01*
X145547400Y-120682382D01*
X145494960Y-120636210D01*
X145475808Y-120569017D01*
X145496023Y-120502135D01*
X145547400Y-120457618D01*
X145642696Y-120413181D01*
X145826233Y-120284667D01*
X145984667Y-120126233D01*
X146113181Y-119942696D01*
X146207872Y-119739630D01*
X146265863Y-119523206D01*
X146285391Y-119300000D01*
X146265863Y-119076794D01*
X146207872Y-118860370D01*
X146113181Y-118657305D01*
X146048924Y-118565536D01*
X145984668Y-118473768D01*
X145912401Y-118401501D01*
X145826233Y-118315333D01*
X145826229Y-118315330D01*
X145826228Y-118315329D01*
X145642700Y-118186821D01*
X145642692Y-118186817D01*
X145547400Y-118142382D01*
X145494960Y-118096210D01*
X145475808Y-118029017D01*
X145496023Y-117962135D01*
X145547400Y-117917618D01*
X145642696Y-117873181D01*
X145826233Y-117744667D01*
X145984667Y-117586233D01*
X146113181Y-117402696D01*
X146207872Y-117199630D01*
X146265863Y-116983206D01*
X146285391Y-116760000D01*
X146265863Y-116536794D01*
X146207872Y-116320370D01*
X146113181Y-116117305D01*
X146048924Y-116025536D01*
X145984668Y-115933768D01*
X145912401Y-115861501D01*
X145826233Y-115775333D01*
X145826229Y-115775330D01*
X145826228Y-115775329D01*
X145642700Y-115646821D01*
X145642692Y-115646817D01*
X145547400Y-115602382D01*
X145494960Y-115556210D01*
X145475808Y-115489017D01*
X145496023Y-115422135D01*
X145547400Y-115377618D01*
X145642696Y-115333181D01*
X145826233Y-115204667D01*
X145984667Y-115046233D01*
X146113181Y-114862696D01*
X146207872Y-114659630D01*
X146265863Y-114443206D01*
X146285391Y-114220000D01*
X146265863Y-113996794D01*
X146207872Y-113780370D01*
X146113181Y-113577305D01*
X146048924Y-113485536D01*
X145984668Y-113393768D01*
X145912401Y-113321501D01*
X145826233Y-113235333D01*
X145826229Y-113235330D01*
X145826228Y-113235329D01*
X145642700Y-113106821D01*
X145642692Y-113106817D01*
X145547400Y-113062382D01*
X145494960Y-113016210D01*
X145475808Y-112949017D01*
X145496023Y-112882135D01*
X145547400Y-112837618D01*
X145642696Y-112793181D01*
X145826233Y-112664667D01*
X145984667Y-112506233D01*
X146113181Y-112322696D01*
X146207872Y-112119630D01*
X146265863Y-111903206D01*
X146285391Y-111680000D01*
X146284486Y-111669661D01*
X146270045Y-111504596D01*
X146265863Y-111456794D01*
X146207872Y-111240370D01*
X146113181Y-111037305D01*
X146048924Y-110945536D01*
X145984668Y-110853768D01*
X145912401Y-110781501D01*
X145826233Y-110695333D01*
X145826229Y-110695330D01*
X145826228Y-110695329D01*
X145642700Y-110566821D01*
X145642692Y-110566817D01*
X145547400Y-110522382D01*
X145494960Y-110476210D01*
X145475808Y-110409017D01*
X145496023Y-110342135D01*
X145547400Y-110297618D01*
X145642696Y-110253181D01*
X145826233Y-110124667D01*
X145984667Y-109966233D01*
X146113181Y-109782696D01*
X146207872Y-109579630D01*
X146265863Y-109363206D01*
X146285391Y-109140000D01*
X146265863Y-108916794D01*
X146207872Y-108700370D01*
X146113181Y-108497305D01*
X146000672Y-108336625D01*
X145984668Y-108313768D01*
X145912401Y-108241501D01*
X145826233Y-108155333D01*
X145826229Y-108155330D01*
X145826228Y-108155329D01*
X145642700Y-108026821D01*
X145642696Y-108026819D01*
X145617039Y-108014855D01*
X145439630Y-107932128D01*
X145439627Y-107932127D01*
X145439625Y-107932126D01*
X145223208Y-107874137D01*
X145223200Y-107874136D01*
X145000002Y-107854609D01*
X144999998Y-107854609D01*
X144776799Y-107874136D01*
X144776791Y-107874137D01*
X144560374Y-107932126D01*
X144560368Y-107932129D01*
X144357306Y-108026818D01*
X144357304Y-108026819D01*
X144173768Y-108155331D01*
X144087599Y-108241501D01*
X144015333Y-108313767D01*
X144004948Y-108328599D01*
X143999328Y-108336625D01*
X143944750Y-108380249D01*
X143897754Y-108389500D01*
X143002229Y-108389500D01*
X142935190Y-108369815D01*
X142914548Y-108353181D01*
X133286819Y-98725451D01*
X133253334Y-98664128D01*
X133250500Y-98637770D01*
X133250500Y-82687700D01*
X133270185Y-82620661D01*
X133303375Y-82586126D01*
X133371401Y-82538495D01*
X133538495Y-82371401D01*
X133668425Y-82185842D01*
X133723002Y-82142217D01*
X133792500Y-82135023D01*
X133854855Y-82166546D01*
X133871575Y-82185842D01*
X134001501Y-82371396D01*
X134001506Y-82371402D01*
X134168595Y-82538492D01*
X134168598Y-82538494D01*
X134168599Y-82538495D01*
X134236623Y-82586125D01*
X134280248Y-82640701D01*
X134289500Y-82687700D01*
X134289500Y-89613918D01*
X134289500Y-89613920D01*
X134289499Y-89613920D01*
X134318340Y-89758907D01*
X134318343Y-89758917D01*
X134374914Y-89895492D01*
X134407812Y-89944727D01*
X134407813Y-89944730D01*
X134457046Y-90018414D01*
X134457052Y-90018421D01*
X138817049Y-94378416D01*
X138921584Y-94482951D01*
X138921585Y-94482952D01*
X139044498Y-94565080D01*
X139044511Y-94565087D01*
X139181082Y-94621656D01*
X139181087Y-94621658D01*
X139181091Y-94621658D01*
X139181092Y-94621659D01*
X139326079Y-94650500D01*
X139326082Y-94650500D01*
X139473917Y-94650500D01*
X143897754Y-94650500D01*
X143964793Y-94670185D01*
X143999326Y-94703373D01*
X144015333Y-94726233D01*
X144015334Y-94726234D01*
X144015335Y-94726235D01*
X144173765Y-94884665D01*
X144173771Y-94884670D01*
X144357299Y-95013178D01*
X144357301Y-95013179D01*
X144357304Y-95013181D01*
X144452600Y-95057618D01*
X144505039Y-95103790D01*
X144524191Y-95170984D01*
X144503975Y-95237865D01*
X144452600Y-95282382D01*
X144357306Y-95326818D01*
X144357304Y-95326819D01*
X144173764Y-95455334D01*
X144015334Y-95613764D01*
X143886819Y-95797304D01*
X143886818Y-95797306D01*
X143792129Y-96000368D01*
X143792126Y-96000374D01*
X143734137Y-96216791D01*
X143734136Y-96216799D01*
X143714609Y-96439998D01*
X143714609Y-96440001D01*
X143734136Y-96663200D01*
X143734137Y-96663208D01*
X143792126Y-96879625D01*
X143792127Y-96879627D01*
X143792128Y-96879630D01*
X143831313Y-96963663D01*
X143886819Y-97082696D01*
X143886821Y-97082700D01*
X144015329Y-97266228D01*
X144015334Y-97266234D01*
X144173765Y-97424665D01*
X144173771Y-97424670D01*
X144357299Y-97553178D01*
X144357301Y-97553179D01*
X144357304Y-97553181D01*
X144452600Y-97597618D01*
X144505039Y-97643790D01*
X144524191Y-97710984D01*
X144503975Y-97777865D01*
X144452600Y-97822382D01*
X144357306Y-97866818D01*
X144357304Y-97866819D01*
X144173764Y-97995334D01*
X144015334Y-98153764D01*
X143886819Y-98337304D01*
X143886818Y-98337306D01*
X143792129Y-98540368D01*
X143792126Y-98540374D01*
X143734137Y-98756791D01*
X143734136Y-98756799D01*
X143714609Y-98979998D01*
X143714609Y-98980001D01*
X143734136Y-99203200D01*
X143734137Y-99203208D01*
X143792126Y-99419625D01*
X143792127Y-99419627D01*
X143792128Y-99419630D01*
X143868284Y-99582948D01*
X143886819Y-99622696D01*
X143886821Y-99622700D01*
X144015329Y-99806228D01*
X144015334Y-99806234D01*
X144173765Y-99964665D01*
X144173771Y-99964670D01*
X144357299Y-100093178D01*
X144357301Y-100093179D01*
X144357304Y-100093181D01*
X144452600Y-100137618D01*
X144505039Y-100183790D01*
X144524191Y-100250984D01*
X144503975Y-100317865D01*
X144452600Y-100362382D01*
X144357306Y-100406818D01*
X144357304Y-100406819D01*
X144173764Y-100535334D01*
X144015334Y-100693764D01*
X143886819Y-100877304D01*
X143886818Y-100877306D01*
X143792129Y-101080368D01*
X143792126Y-101080374D01*
X143734137Y-101296791D01*
X143734136Y-101296799D01*
X143714609Y-101519998D01*
X143714609Y-101520001D01*
X143734136Y-101743200D01*
X143734137Y-101743208D01*
X143792126Y-101959625D01*
X143792127Y-101959627D01*
X143792128Y-101959630D01*
X143831313Y-102043663D01*
X143886819Y-102162696D01*
X143886821Y-102162700D01*
X144015329Y-102346228D01*
X144015334Y-102346234D01*
X144173765Y-102504665D01*
X144173771Y-102504670D01*
X144357299Y-102633178D01*
X144357301Y-102633179D01*
X144357304Y-102633181D01*
X144452600Y-102677618D01*
X144505039Y-102723790D01*
X144524191Y-102790984D01*
X144503975Y-102857865D01*
X144452600Y-102902382D01*
X144357306Y-102946818D01*
X144357304Y-102946819D01*
X144173764Y-103075334D01*
X144015334Y-103233764D01*
X143886819Y-103417304D01*
X143886818Y-103417306D01*
X143792129Y-103620368D01*
X143792126Y-103620374D01*
X143734137Y-103836791D01*
X143734136Y-103836799D01*
X143714609Y-104059998D01*
X143714609Y-104060001D01*
X143734136Y-104283200D01*
X143734137Y-104283208D01*
X143792126Y-104499625D01*
X143792127Y-104499627D01*
X143792128Y-104499630D01*
X143831313Y-104583663D01*
X143886819Y-104702696D01*
X143886821Y-104702700D01*
X144015329Y-104886228D01*
X144015334Y-104886234D01*
X144173765Y-105044665D01*
X144173771Y-105044670D01*
X144357299Y-105173178D01*
X144357301Y-105173179D01*
X144357304Y-105173181D01*
X144560370Y-105267872D01*
X144776794Y-105325863D01*
X144936226Y-105339811D01*
X144999998Y-105345391D01*
X145000000Y-105345391D01*
X145000002Y-105345391D01*
X145055801Y-105340509D01*
X145223206Y-105325863D01*
X145439630Y-105267872D01*
X145642696Y-105173181D01*
X145826233Y-105044667D01*
X145984667Y-104886233D01*
X146113181Y-104702696D01*
X146207872Y-104499630D01*
X146265863Y-104283206D01*
X146273143Y-104200000D01*
X148644341Y-104200000D01*
X148664936Y-104435403D01*
X148664938Y-104435413D01*
X148726094Y-104663655D01*
X148726096Y-104663659D01*
X148726097Y-104663663D01*
X148788660Y-104797830D01*
X148825965Y-104877830D01*
X148825967Y-104877834D01*
X148905484Y-104991395D01*
X148961505Y-105071401D01*
X149128599Y-105238495D01*
X149207918Y-105294035D01*
X149322165Y-105374032D01*
X149322167Y-105374033D01*
X149322170Y-105374035D01*
X149536337Y-105473903D01*
X149536343Y-105473904D01*
X149536344Y-105473905D01*
X149584533Y-105486817D01*
X149764592Y-105535063D01*
X149952918Y-105551539D01*
X149999999Y-105555659D01*
X150000000Y-105555659D01*
X150000001Y-105555659D01*
X150039234Y-105552226D01*
X150235408Y-105535063D01*
X150463663Y-105473903D01*
X150677830Y-105374035D01*
X150871401Y-105238495D01*
X151038495Y-105071401D01*
X151174035Y-104877830D01*
X151273903Y-104663663D01*
X151335063Y-104435408D01*
X151355659Y-104200000D01*
X151335063Y-103964592D01*
X151273903Y-103736337D01*
X151174035Y-103522171D01*
X151118018Y-103442169D01*
X151038494Y-103328597D01*
X150871402Y-103161506D01*
X150871396Y-103161501D01*
X150685842Y-103031575D01*
X150642217Y-102976998D01*
X150635023Y-102907500D01*
X150666546Y-102845145D01*
X150685842Y-102828425D01*
X150776215Y-102765145D01*
X150871401Y-102698495D01*
X151038495Y-102531401D01*
X151174035Y-102337830D01*
X151273903Y-102123663D01*
X151335063Y-101895408D01*
X151355659Y-101660000D01*
X151335063Y-101424592D01*
X151273903Y-101196337D01*
X151174035Y-100982171D01*
X151118018Y-100902169D01*
X151038494Y-100788597D01*
X150871402Y-100621506D01*
X150871396Y-100621501D01*
X150685842Y-100491575D01*
X150642217Y-100436998D01*
X150635023Y-100367500D01*
X150666546Y-100305145D01*
X150685842Y-100288425D01*
X150776215Y-100225145D01*
X150871401Y-100158495D01*
X151038495Y-99991401D01*
X151174035Y-99797830D01*
X151273903Y-99583663D01*
X151335063Y-99355408D01*
X151355659Y-99120000D01*
X151335063Y-98884592D01*
X151273903Y-98656337D01*
X151174035Y-98442171D01*
X151118018Y-98362169D01*
X151038494Y-98248597D01*
X150871402Y-98081506D01*
X150871396Y-98081501D01*
X150685842Y-97951575D01*
X150642217Y-97896998D01*
X150635023Y-97827500D01*
X150666546Y-97765145D01*
X150685842Y-97748425D01*
X150722527Y-97722738D01*
X150871401Y-97618495D01*
X151038495Y-97451401D01*
X151174035Y-97257830D01*
X151273903Y-97043663D01*
X151335063Y-96815408D01*
X151352047Y-96621288D01*
X158649500Y-96621288D01*
X158681161Y-96861785D01*
X158743947Y-97096104D01*
X158836773Y-97320205D01*
X158836776Y-97320212D01*
X158958064Y-97530289D01*
X158958066Y-97530292D01*
X158958067Y-97530293D01*
X159105733Y-97722736D01*
X159105739Y-97722743D01*
X159277256Y-97894260D01*
X159277263Y-97894266D01*
X159330160Y-97934855D01*
X159469711Y-98041936D01*
X159679788Y-98163224D01*
X159903900Y-98256054D01*
X160138211Y-98318838D01*
X160318586Y-98342584D01*
X160378711Y-98350500D01*
X160378712Y-98350500D01*
X160621289Y-98350500D01*
X160669388Y-98344167D01*
X160861789Y-98318838D01*
X161096100Y-98256054D01*
X161320212Y-98163224D01*
X161530289Y-98041936D01*
X161722738Y-97894265D01*
X161894265Y-97722738D01*
X162041936Y-97530289D01*
X162163224Y-97320212D01*
X162256054Y-97096100D01*
X162318838Y-96861789D01*
X162350500Y-96621288D01*
X162350500Y-96378712D01*
X162318838Y-96138211D01*
X162256054Y-95903900D01*
X162163224Y-95679788D01*
X162041936Y-95469711D01*
X161981018Y-95390321D01*
X161894266Y-95277263D01*
X161894260Y-95277256D01*
X161722743Y-95105739D01*
X161722736Y-95105733D01*
X161530293Y-94958067D01*
X161530292Y-94958066D01*
X161530289Y-94958064D01*
X161320212Y-94836776D01*
X161307221Y-94831395D01*
X161096104Y-94743947D01*
X160861785Y-94681161D01*
X160621289Y-94649500D01*
X160621288Y-94649500D01*
X160378712Y-94649500D01*
X160378711Y-94649500D01*
X160138214Y-94681161D01*
X159903895Y-94743947D01*
X159679794Y-94836773D01*
X159679785Y-94836777D01*
X159469706Y-94958067D01*
X159277263Y-95105733D01*
X159277256Y-95105739D01*
X159105739Y-95277256D01*
X159105733Y-95277263D01*
X158958067Y-95469706D01*
X158836777Y-95679785D01*
X158836773Y-95679794D01*
X158743947Y-95903895D01*
X158681161Y-96138214D01*
X158649500Y-96378711D01*
X158649500Y-96621288D01*
X151352047Y-96621288D01*
X151355659Y-96580000D01*
X151335063Y-96344592D01*
X151273903Y-96116337D01*
X151174035Y-95902171D01*
X151118018Y-95822169D01*
X151038494Y-95708597D01*
X150871402Y-95541506D01*
X150871396Y-95541501D01*
X150685842Y-95411575D01*
X150642217Y-95356998D01*
X150635023Y-95287500D01*
X150666546Y-95225145D01*
X150685842Y-95208425D01*
X150776215Y-95145145D01*
X150871401Y-95078495D01*
X151038495Y-94911401D01*
X151174035Y-94717830D01*
X151273903Y-94503663D01*
X151335063Y-94275408D01*
X151355659Y-94040000D01*
X151335063Y-93804592D01*
X151273903Y-93576337D01*
X151174035Y-93362171D01*
X151118018Y-93282169D01*
X151038494Y-93168597D01*
X150871402Y-93001506D01*
X150871395Y-93001501D01*
X150677834Y-92865967D01*
X150677830Y-92865965D01*
X150677828Y-92865964D01*
X150463663Y-92766097D01*
X150463659Y-92766096D01*
X150463655Y-92766094D01*
X150235413Y-92704938D01*
X150235403Y-92704936D01*
X150000001Y-92684341D01*
X149999999Y-92684341D01*
X149764596Y-92704936D01*
X149764586Y-92704938D01*
X149536344Y-92766094D01*
X149536335Y-92766098D01*
X149322171Y-92865964D01*
X149322169Y-92865965D01*
X149128597Y-93001505D01*
X148961505Y-93168597D01*
X148825965Y-93362169D01*
X148825964Y-93362171D01*
X148726098Y-93576335D01*
X148726094Y-93576344D01*
X148664938Y-93804586D01*
X148664936Y-93804596D01*
X148644341Y-94039999D01*
X148644341Y-94040000D01*
X148664936Y-94275403D01*
X148664938Y-94275413D01*
X148726094Y-94503655D01*
X148726096Y-94503659D01*
X148726097Y-94503663D01*
X148803748Y-94670185D01*
X148825965Y-94717830D01*
X148825967Y-94717834D01*
X148961501Y-94911395D01*
X148961506Y-94911402D01*
X149128597Y-95078493D01*
X149128603Y-95078498D01*
X149314158Y-95208425D01*
X149357783Y-95263002D01*
X149364977Y-95332500D01*
X149333454Y-95394855D01*
X149314158Y-95411575D01*
X149128597Y-95541505D01*
X148961505Y-95708597D01*
X148825965Y-95902169D01*
X148825964Y-95902171D01*
X148726098Y-96116335D01*
X148726094Y-96116344D01*
X148664938Y-96344586D01*
X148664936Y-96344596D01*
X148644341Y-96579999D01*
X148644341Y-96580000D01*
X148664936Y-96815403D01*
X148664938Y-96815413D01*
X148726094Y-97043655D01*
X148726096Y-97043659D01*
X148726097Y-97043663D01*
X148750549Y-97096100D01*
X148825965Y-97257830D01*
X148825967Y-97257834D01*
X148961501Y-97451395D01*
X148961506Y-97451402D01*
X149128597Y-97618493D01*
X149128603Y-97618498D01*
X149314158Y-97748425D01*
X149357783Y-97803002D01*
X149364977Y-97872500D01*
X149333454Y-97934855D01*
X149314158Y-97951575D01*
X149128597Y-98081505D01*
X148961505Y-98248597D01*
X148825965Y-98442169D01*
X148825964Y-98442171D01*
X148726098Y-98656335D01*
X148726094Y-98656344D01*
X148664938Y-98884586D01*
X148664936Y-98884596D01*
X148644341Y-99119999D01*
X148644341Y-99120000D01*
X148664936Y-99355403D01*
X148664938Y-99355413D01*
X148726094Y-99583655D01*
X148726096Y-99583659D01*
X148726097Y-99583663D01*
X148788660Y-99717830D01*
X148825965Y-99797830D01*
X148825967Y-99797834D01*
X148961501Y-99991395D01*
X148961506Y-99991402D01*
X149128597Y-100158493D01*
X149128603Y-100158498D01*
X149314158Y-100288425D01*
X149357783Y-100343002D01*
X149364977Y-100412500D01*
X149333454Y-100474855D01*
X149314158Y-100491575D01*
X149128597Y-100621505D01*
X148961505Y-100788597D01*
X148825965Y-100982169D01*
X148825964Y-100982171D01*
X148726098Y-101196335D01*
X148726094Y-101196344D01*
X148664938Y-101424586D01*
X148664936Y-101424596D01*
X148644341Y-101659999D01*
X148644341Y-101660000D01*
X148664936Y-101895403D01*
X148664938Y-101895413D01*
X148726094Y-102123655D01*
X148726096Y-102123659D01*
X148726097Y-102123663D01*
X148788660Y-102257830D01*
X148825965Y-102337830D01*
X148825967Y-102337834D01*
X148961501Y-102531395D01*
X148961506Y-102531402D01*
X149128597Y-102698493D01*
X149128603Y-102698498D01*
X149314158Y-102828425D01*
X149357783Y-102883002D01*
X149364977Y-102952500D01*
X149333454Y-103014855D01*
X149314158Y-103031575D01*
X149128597Y-103161505D01*
X148961505Y-103328597D01*
X148825965Y-103522169D01*
X148825964Y-103522171D01*
X148726098Y-103736335D01*
X148726094Y-103736344D01*
X148664938Y-103964586D01*
X148664936Y-103964596D01*
X148644341Y-104199999D01*
X148644341Y-104200000D01*
X146273143Y-104200000D01*
X146285391Y-104060000D01*
X146265863Y-103836794D01*
X146207872Y-103620370D01*
X146113181Y-103417305D01*
X146048924Y-103325536D01*
X145984668Y-103233768D01*
X145912401Y-103161501D01*
X145826233Y-103075333D01*
X145826229Y-103075330D01*
X145826228Y-103075329D01*
X145642700Y-102946821D01*
X145642692Y-102946817D01*
X145547400Y-102902382D01*
X145494960Y-102856210D01*
X145475808Y-102789017D01*
X145496023Y-102722135D01*
X145547400Y-102677618D01*
X145642696Y-102633181D01*
X145826233Y-102504667D01*
X145984667Y-102346233D01*
X146113181Y-102162696D01*
X146207872Y-101959630D01*
X146265863Y-101743206D01*
X146285391Y-101520000D01*
X146265863Y-101296794D01*
X146207872Y-101080370D01*
X146113181Y-100877305D01*
X146048924Y-100785536D01*
X145984668Y-100693768D01*
X145912401Y-100621501D01*
X145826233Y-100535333D01*
X145826229Y-100535330D01*
X145826228Y-100535329D01*
X145642700Y-100406821D01*
X145642692Y-100406817D01*
X145547400Y-100362382D01*
X145494960Y-100316210D01*
X145475808Y-100249017D01*
X145496023Y-100182135D01*
X145547400Y-100137618D01*
X145642696Y-100093181D01*
X145826233Y-99964667D01*
X145984667Y-99806233D01*
X146113181Y-99622696D01*
X146207872Y-99419630D01*
X146265863Y-99203206D01*
X146285391Y-98980000D01*
X146265863Y-98756794D01*
X146207872Y-98540370D01*
X146113181Y-98337305D01*
X146048924Y-98245536D01*
X145984668Y-98153768D01*
X145912401Y-98081501D01*
X145826233Y-97995333D01*
X145826229Y-97995330D01*
X145826228Y-97995329D01*
X145642700Y-97866821D01*
X145642692Y-97866817D01*
X145547400Y-97822382D01*
X145494960Y-97776210D01*
X145475808Y-97709017D01*
X145496023Y-97642135D01*
X145547400Y-97597618D01*
X145642696Y-97553181D01*
X145826233Y-97424667D01*
X145984667Y-97266233D01*
X146113181Y-97082696D01*
X146207872Y-96879630D01*
X146265863Y-96663206D01*
X146285391Y-96440000D01*
X146265863Y-96216794D01*
X146207872Y-96000370D01*
X146113181Y-95797305D01*
X146030893Y-95679785D01*
X145984668Y-95613768D01*
X145912401Y-95541501D01*
X145826233Y-95455333D01*
X145826229Y-95455330D01*
X145826228Y-95455329D01*
X145642700Y-95326821D01*
X145642692Y-95326817D01*
X145547400Y-95282382D01*
X145494960Y-95236210D01*
X145475808Y-95169017D01*
X145496023Y-95102135D01*
X145547400Y-95057618D01*
X145642696Y-95013181D01*
X145826233Y-94884667D01*
X145984667Y-94726233D01*
X146113181Y-94542696D01*
X146207872Y-94339630D01*
X146265863Y-94123206D01*
X146285391Y-93900000D01*
X146265863Y-93676794D01*
X146207872Y-93460370D01*
X146113181Y-93257305D01*
X146000672Y-93096625D01*
X145984668Y-93073768D01*
X145912401Y-93001501D01*
X145826233Y-92915333D01*
X145826229Y-92915330D01*
X145826228Y-92915329D01*
X145642700Y-92786821D01*
X145642696Y-92786819D01*
X145640865Y-92785965D01*
X145439630Y-92692128D01*
X145439627Y-92692127D01*
X145439625Y-92692126D01*
X145223208Y-92634137D01*
X145223200Y-92634136D01*
X145000002Y-92614609D01*
X144999998Y-92614609D01*
X144776799Y-92634136D01*
X144776791Y-92634137D01*
X144560374Y-92692126D01*
X144560368Y-92692129D01*
X144357306Y-92786818D01*
X144357304Y-92786819D01*
X144173768Y-92915331D01*
X144087599Y-93001501D01*
X144015333Y-93073767D01*
X144004948Y-93088599D01*
X143999328Y-93096625D01*
X143944750Y-93140249D01*
X143897754Y-93149500D01*
X139762229Y-93149500D01*
X139695190Y-93129815D01*
X139674548Y-93113181D01*
X135826819Y-89265451D01*
X135793334Y-89204128D01*
X135790500Y-89177770D01*
X135790500Y-85000001D01*
X151944532Y-85000001D01*
X151964364Y-85226686D01*
X151964366Y-85226697D01*
X152023258Y-85446488D01*
X152023261Y-85446497D01*
X152119431Y-85652732D01*
X152119432Y-85652734D01*
X152249954Y-85839141D01*
X152410858Y-86000045D01*
X152410861Y-86000047D01*
X152597266Y-86130568D01*
X152803504Y-86226739D01*
X153023308Y-86285635D01*
X153185230Y-86299801D01*
X153249998Y-86305468D01*
X153250000Y-86305468D01*
X153250002Y-86305468D01*
X153306807Y-86300498D01*
X153476692Y-86285635D01*
X153696496Y-86226739D01*
X153902734Y-86130568D01*
X154089139Y-86000047D01*
X154241316Y-85847870D01*
X155699500Y-85847870D01*
X155699501Y-85847876D01*
X155705908Y-85907483D01*
X155756202Y-86042328D01*
X155756206Y-86042335D01*
X155842452Y-86157544D01*
X155842455Y-86157547D01*
X155957664Y-86243793D01*
X155957671Y-86243797D01*
X156092517Y-86294091D01*
X156092516Y-86294091D01*
X156099444Y-86294835D01*
X156152127Y-86300500D01*
X157847872Y-86300499D01*
X157907483Y-86294091D01*
X158042331Y-86243796D01*
X158157546Y-86157546D01*
X158243796Y-86042331D01*
X158294091Y-85907483D01*
X158300500Y-85847873D01*
X158300499Y-84152128D01*
X158294091Y-84092517D01*
X158259567Y-83999954D01*
X158243797Y-83957671D01*
X158243793Y-83957664D01*
X158157547Y-83842455D01*
X158157544Y-83842452D01*
X158042335Y-83756206D01*
X158042328Y-83756202D01*
X157907482Y-83705908D01*
X157907483Y-83705908D01*
X157847883Y-83699501D01*
X157847881Y-83699500D01*
X157847873Y-83699500D01*
X157847864Y-83699500D01*
X156152129Y-83699500D01*
X156152123Y-83699501D01*
X156092516Y-83705908D01*
X155957671Y-83756202D01*
X155957664Y-83756206D01*
X155842455Y-83842452D01*
X155842452Y-83842455D01*
X155756206Y-83957664D01*
X155756202Y-83957671D01*
X155705908Y-84092517D01*
X155699501Y-84152116D01*
X155699501Y-84152123D01*
X155699500Y-84152135D01*
X155699500Y-85847870D01*
X154241316Y-85847870D01*
X154250047Y-85839139D01*
X154380568Y-85652734D01*
X154476739Y-85446496D01*
X154535635Y-85226692D01*
X154555468Y-85000000D01*
X154535635Y-84773308D01*
X154476739Y-84553504D01*
X154380568Y-84347266D01*
X154250047Y-84160861D01*
X154250045Y-84160858D01*
X154089141Y-83999954D01*
X153902734Y-83869432D01*
X153902732Y-83869431D01*
X153696497Y-83773261D01*
X153696488Y-83773258D01*
X153476697Y-83714366D01*
X153476693Y-83714365D01*
X153476692Y-83714365D01*
X153476691Y-83714364D01*
X153476686Y-83714364D01*
X153250002Y-83694532D01*
X153249998Y-83694532D01*
X153023313Y-83714364D01*
X153023302Y-83714366D01*
X152803511Y-83773258D01*
X152803502Y-83773261D01*
X152597267Y-83869431D01*
X152597265Y-83869432D01*
X152410858Y-83999954D01*
X152249954Y-84160858D01*
X152119432Y-84347265D01*
X152119431Y-84347267D01*
X152023261Y-84553502D01*
X152023258Y-84553511D01*
X151964366Y-84773302D01*
X151964364Y-84773313D01*
X151944532Y-84999998D01*
X151944532Y-85000001D01*
X135790500Y-85000001D01*
X135790500Y-82687700D01*
X135810185Y-82620661D01*
X135843375Y-82586126D01*
X135911401Y-82538495D01*
X136078495Y-82371401D01*
X136208425Y-82185842D01*
X136263002Y-82142217D01*
X136332500Y-82135023D01*
X136394855Y-82166546D01*
X136411575Y-82185842D01*
X136541500Y-82371395D01*
X136541505Y-82371401D01*
X136708599Y-82538495D01*
X136805384Y-82606265D01*
X136902165Y-82674032D01*
X136902167Y-82674033D01*
X136902170Y-82674035D01*
X137116337Y-82773903D01*
X137344592Y-82835063D01*
X137521034Y-82850500D01*
X137579999Y-82855659D01*
X137580000Y-82855659D01*
X137580001Y-82855659D01*
X137638966Y-82850500D01*
X137815408Y-82835063D01*
X138043663Y-82773903D01*
X138257830Y-82674035D01*
X138451401Y-82538495D01*
X138618495Y-82371401D01*
X138748425Y-82185842D01*
X138803002Y-82142217D01*
X138872500Y-82135023D01*
X138934855Y-82166546D01*
X138951575Y-82185842D01*
X139081500Y-82371395D01*
X139081505Y-82371401D01*
X139248599Y-82538495D01*
X139345384Y-82606265D01*
X139442165Y-82674032D01*
X139442167Y-82674033D01*
X139442170Y-82674035D01*
X139656337Y-82773903D01*
X139884592Y-82835063D01*
X140061034Y-82850500D01*
X140119999Y-82855659D01*
X140120000Y-82855659D01*
X140120001Y-82855659D01*
X140178966Y-82850500D01*
X140355408Y-82835063D01*
X140583663Y-82773903D01*
X140797830Y-82674035D01*
X140991401Y-82538495D01*
X141158495Y-82371401D01*
X141294035Y-82177830D01*
X141393903Y-81963663D01*
X141455063Y-81735408D01*
X141475659Y-81500000D01*
X141455063Y-81264592D01*
X141393903Y-81036337D01*
X141294035Y-80822171D01*
X141288425Y-80814158D01*
X141158494Y-80628597D01*
X140991402Y-80461506D01*
X140991395Y-80461501D01*
X140969954Y-80446488D01*
X140914518Y-80407671D01*
X140797834Y-80325967D01*
X140797830Y-80325965D01*
X140797828Y-80325964D01*
X140583663Y-80226097D01*
X140583659Y-80226096D01*
X140583655Y-80226094D01*
X140355413Y-80164938D01*
X140355403Y-80164936D01*
X140120001Y-80144341D01*
X140119999Y-80144341D01*
X139884596Y-80164936D01*
X139884586Y-80164938D01*
X139656344Y-80226094D01*
X139656335Y-80226098D01*
X139442171Y-80325964D01*
X139442169Y-80325965D01*
X139248597Y-80461505D01*
X139081505Y-80628597D01*
X138951575Y-80814158D01*
X138896998Y-80857783D01*
X138827500Y-80864977D01*
X138765145Y-80833454D01*
X138748425Y-80814158D01*
X138618494Y-80628597D01*
X138451402Y-80461506D01*
X138451395Y-80461501D01*
X138429954Y-80446488D01*
X138374518Y-80407671D01*
X138257834Y-80325967D01*
X138257830Y-80325965D01*
X138257828Y-80325964D01*
X138043663Y-80226097D01*
X138043659Y-80226096D01*
X138043655Y-80226094D01*
X137815413Y-80164938D01*
X137815403Y-80164936D01*
X137580001Y-80144341D01*
X137579999Y-80144341D01*
X137344596Y-80164936D01*
X137344586Y-80164938D01*
X137116344Y-80226094D01*
X137116335Y-80226098D01*
X136902171Y-80325964D01*
X136902169Y-80325965D01*
X136708597Y-80461505D01*
X136541505Y-80628597D01*
X136411575Y-80814158D01*
X136356998Y-80857783D01*
X136287500Y-80864977D01*
X136225145Y-80833454D01*
X136208425Y-80814158D01*
X136078494Y-80628597D01*
X135911402Y-80461506D01*
X135911395Y-80461501D01*
X135889954Y-80446488D01*
X135834518Y-80407671D01*
X135717834Y-80325967D01*
X135717830Y-80325965D01*
X135717828Y-80325964D01*
X135503663Y-80226097D01*
X135503659Y-80226096D01*
X135503655Y-80226094D01*
X135275413Y-80164938D01*
X135275403Y-80164936D01*
X135040001Y-80144341D01*
X135039999Y-80144341D01*
X134804596Y-80164936D01*
X134804586Y-80164938D01*
X134576344Y-80226094D01*
X134576335Y-80226098D01*
X134362171Y-80325964D01*
X134362169Y-80325965D01*
X134168597Y-80461505D01*
X134001505Y-80628597D01*
X133871575Y-80814158D01*
X133816998Y-80857783D01*
X133747500Y-80864977D01*
X133685145Y-80833454D01*
X133668425Y-80814158D01*
X133538494Y-80628597D01*
X133371402Y-80461506D01*
X133371395Y-80461501D01*
X133349954Y-80446488D01*
X133294518Y-80407671D01*
X133177834Y-80325967D01*
X133177830Y-80325965D01*
X133177828Y-80325964D01*
X132963663Y-80226097D01*
X132963659Y-80226096D01*
X132963655Y-80226094D01*
X132735413Y-80164938D01*
X132735403Y-80164936D01*
X132500001Y-80144341D01*
X132499999Y-80144341D01*
X132264596Y-80164936D01*
X132264586Y-80164938D01*
X132036344Y-80226094D01*
X132036335Y-80226098D01*
X131822171Y-80325964D01*
X131822169Y-80325965D01*
X131628597Y-80461505D01*
X131461505Y-80628597D01*
X131331575Y-80814158D01*
X131276998Y-80857783D01*
X131207500Y-80864977D01*
X131145145Y-80833454D01*
X131128425Y-80814158D01*
X130998494Y-80628597D01*
X130831402Y-80461506D01*
X130831395Y-80461501D01*
X130809954Y-80446488D01*
X130754518Y-80407671D01*
X130637834Y-80325967D01*
X130637830Y-80325965D01*
X130637828Y-80325964D01*
X130423663Y-80226097D01*
X130423659Y-80226096D01*
X130423655Y-80226094D01*
X130195413Y-80164938D01*
X130195403Y-80164936D01*
X129960001Y-80144341D01*
X129959999Y-80144341D01*
X129724596Y-80164936D01*
X129724586Y-80164938D01*
X129496344Y-80226094D01*
X129496335Y-80226098D01*
X129282171Y-80325964D01*
X129282169Y-80325965D01*
X129088597Y-80461505D01*
X128921505Y-80628597D01*
X128785965Y-80822169D01*
X128785964Y-80822171D01*
X128686098Y-81036335D01*
X128686094Y-81036344D01*
X128624938Y-81264586D01*
X128624936Y-81264596D01*
X128604341Y-81499999D01*
X128604341Y-81500000D01*
X126230499Y-81500000D01*
X126230499Y-81262228D01*
X126250184Y-81195190D01*
X126266813Y-81174553D01*
X128654548Y-78786819D01*
X128715871Y-78753334D01*
X128742229Y-78750500D01*
X147137770Y-78750500D01*
X147204809Y-78770185D01*
X147225451Y-78786819D01*
X148173282Y-79734650D01*
X148206767Y-79795973D01*
X148209129Y-79833137D01*
X148194532Y-79999996D01*
X148194532Y-80000001D01*
X148214364Y-80226686D01*
X148214366Y-80226697D01*
X148273258Y-80446488D01*
X148273261Y-80446497D01*
X148369431Y-80652732D01*
X148369432Y-80652734D01*
X148499954Y-80839141D01*
X148660858Y-81000045D01*
X148660861Y-81000047D01*
X148847266Y-81130568D01*
X149053504Y-81226739D01*
X149273308Y-81285635D01*
X149435230Y-81299801D01*
X149499998Y-81305468D01*
X149500000Y-81305468D01*
X149500002Y-81305468D01*
X149556673Y-81300509D01*
X149726692Y-81285635D01*
X149946496Y-81226739D01*
X150152734Y-81130568D01*
X150270840Y-81047870D01*
X151249500Y-81047870D01*
X151249501Y-81047876D01*
X151255908Y-81107483D01*
X151306202Y-81242328D01*
X151306206Y-81242335D01*
X151392452Y-81357544D01*
X151392455Y-81357547D01*
X151507664Y-81443793D01*
X151507671Y-81443797D01*
X151642517Y-81494091D01*
X151642516Y-81494091D01*
X151649444Y-81494835D01*
X151702127Y-81500500D01*
X153797872Y-81500499D01*
X153857483Y-81494091D01*
X153992331Y-81443796D01*
X154107546Y-81357546D01*
X154193796Y-81242331D01*
X154244091Y-81107483D01*
X154250500Y-81047873D01*
X154250499Y-78952128D01*
X154244091Y-78892517D01*
X154235480Y-78869431D01*
X154193797Y-78757671D01*
X154193793Y-78757664D01*
X154107547Y-78642455D01*
X154107544Y-78642452D01*
X153992335Y-78556206D01*
X153992328Y-78556202D01*
X153857482Y-78505908D01*
X153857483Y-78505908D01*
X153797883Y-78499501D01*
X153797881Y-78499500D01*
X153797873Y-78499500D01*
X153797864Y-78499500D01*
X151702129Y-78499500D01*
X151702123Y-78499501D01*
X151642516Y-78505908D01*
X151507671Y-78556202D01*
X151507664Y-78556206D01*
X151392455Y-78642452D01*
X151392452Y-78642455D01*
X151306206Y-78757664D01*
X151306202Y-78757671D01*
X151255908Y-78892517D01*
X151249501Y-78952116D01*
X151249501Y-78952123D01*
X151249500Y-78952135D01*
X151249500Y-81047870D01*
X150270840Y-81047870D01*
X150339139Y-81000047D01*
X150500047Y-80839139D01*
X150630568Y-80652734D01*
X150726739Y-80446496D01*
X150785635Y-80226692D01*
X150805468Y-80000000D01*
X150785635Y-79773308D01*
X150726739Y-79553504D01*
X150630568Y-79347266D01*
X150500047Y-79160861D01*
X150500045Y-79160858D01*
X150339141Y-78999954D01*
X150152734Y-78869432D01*
X150152732Y-78869431D01*
X149946497Y-78773261D01*
X149946488Y-78773258D01*
X149726697Y-78714366D01*
X149726693Y-78714365D01*
X149726692Y-78714365D01*
X149726691Y-78714364D01*
X149726686Y-78714364D01*
X149500002Y-78694532D01*
X149499997Y-78694532D01*
X149333137Y-78709129D01*
X149264637Y-78695362D01*
X149234650Y-78673282D01*
X147978421Y-77417052D01*
X147978414Y-77417046D01*
X147904729Y-77367812D01*
X147904729Y-77367813D01*
X147855491Y-77334913D01*
X147718917Y-77278343D01*
X147718907Y-77278340D01*
X147573920Y-77249500D01*
X147573918Y-77249500D01*
X128306082Y-77249500D01*
X128306080Y-77249500D01*
X128161092Y-77278340D01*
X128161082Y-77278343D01*
X128024511Y-77334912D01*
X128024498Y-77334919D01*
X127901584Y-77417048D01*
X127901580Y-77417051D01*
X125205449Y-80113181D01*
X125144126Y-80146666D01*
X125117768Y-80149500D01*
X123982129Y-80149500D01*
X123982123Y-80149501D01*
X123922516Y-80155908D01*
X123787671Y-80206202D01*
X123787664Y-80206206D01*
X123672455Y-80292452D01*
X123672452Y-80292455D01*
X123586206Y-80407664D01*
X123586202Y-80407671D01*
X123535908Y-80542517D01*
X123529501Y-80602116D01*
X123529500Y-80602135D01*
X123529500Y-82397870D01*
X123529501Y-82397876D01*
X123535908Y-82457483D01*
X123586202Y-82592328D01*
X123586206Y-82592335D01*
X123672452Y-82707544D01*
X123672455Y-82707547D01*
X123787664Y-82793793D01*
X123787671Y-82793797D01*
X123832618Y-82810561D01*
X123922517Y-82844091D01*
X123982127Y-82850500D01*
X124005497Y-82850499D01*
X124072536Y-82870181D01*
X124118292Y-82922983D01*
X124129500Y-82974499D01*
X124129500Y-131437769D01*
X124109815Y-131504808D01*
X124093181Y-131525450D01*
X121088969Y-134529661D01*
X121027646Y-134563146D01*
X120957954Y-134558162D01*
X120902021Y-134516290D01*
X120877761Y-134452789D01*
X120865863Y-134316794D01*
X120807872Y-134100370D01*
X120713181Y-133897305D01*
X120648924Y-133805536D01*
X120584668Y-133713768D01*
X120512401Y-133641501D01*
X120426233Y-133555333D01*
X120426229Y-133555330D01*
X120426228Y-133555329D01*
X120242700Y-133426821D01*
X120242692Y-133426817D01*
X120147400Y-133382382D01*
X120094960Y-133336210D01*
X120075808Y-133269017D01*
X120096023Y-133202135D01*
X120147400Y-133157618D01*
X120242696Y-133113181D01*
X120426233Y-132984667D01*
X120584667Y-132826233D01*
X120713181Y-132642696D01*
X120807872Y-132439630D01*
X120865863Y-132223206D01*
X120885391Y-132000000D01*
X120865863Y-131776794D01*
X120807872Y-131560370D01*
X120713181Y-131357305D01*
X120648924Y-131265536D01*
X120584668Y-131173768D01*
X120512401Y-131101501D01*
X120426233Y-131015333D01*
X120426229Y-131015330D01*
X120426228Y-131015329D01*
X120242700Y-130886821D01*
X120242692Y-130886817D01*
X120147400Y-130842382D01*
X120094960Y-130796210D01*
X120075808Y-130729017D01*
X120096023Y-130662135D01*
X120147400Y-130617618D01*
X120242696Y-130573181D01*
X120426233Y-130444667D01*
X120584667Y-130286233D01*
X120713181Y-130102696D01*
X120807872Y-129899630D01*
X120865863Y-129683206D01*
X120885391Y-129460000D01*
X120865863Y-129236794D01*
X120807872Y-129020370D01*
X120713181Y-128817305D01*
X120648924Y-128725536D01*
X120584668Y-128633768D01*
X120512401Y-128561501D01*
X120426233Y-128475333D01*
X120426229Y-128475330D01*
X120426228Y-128475329D01*
X120242700Y-128346821D01*
X120242692Y-128346817D01*
X120147400Y-128302382D01*
X120094960Y-128256210D01*
X120075808Y-128189017D01*
X120096023Y-128122135D01*
X120147400Y-128077618D01*
X120242696Y-128033181D01*
X120426233Y-127904667D01*
X120584667Y-127746233D01*
X120713181Y-127562696D01*
X120807872Y-127359630D01*
X120865863Y-127143206D01*
X120885391Y-126920000D01*
X120865863Y-126696794D01*
X120807872Y-126480370D01*
X120713181Y-126277305D01*
X120648924Y-126185536D01*
X120584668Y-126093768D01*
X120512401Y-126021501D01*
X120426233Y-125935333D01*
X120426229Y-125935330D01*
X120426228Y-125935329D01*
X120242700Y-125806821D01*
X120242692Y-125806817D01*
X120147400Y-125762382D01*
X120094960Y-125716210D01*
X120075808Y-125649017D01*
X120096023Y-125582135D01*
X120147400Y-125537618D01*
X120242696Y-125493181D01*
X120426233Y-125364667D01*
X120584667Y-125206233D01*
X120713181Y-125022696D01*
X120807872Y-124819630D01*
X120865863Y-124603206D01*
X120885391Y-124380000D01*
X120865863Y-124156794D01*
X120807872Y-123940370D01*
X120713181Y-123737305D01*
X120648924Y-123645536D01*
X120584668Y-123553768D01*
X120512401Y-123481501D01*
X120426233Y-123395333D01*
X120426229Y-123395330D01*
X120426228Y-123395329D01*
X120242700Y-123266821D01*
X120242692Y-123266817D01*
X120147400Y-123222382D01*
X120094960Y-123176210D01*
X120075808Y-123109017D01*
X120096023Y-123042135D01*
X120147400Y-122997618D01*
X120242696Y-122953181D01*
X120426233Y-122824667D01*
X120584667Y-122666233D01*
X120713181Y-122482696D01*
X120807872Y-122279630D01*
X120865863Y-122063206D01*
X120885391Y-121840000D01*
X120865863Y-121616794D01*
X120807872Y-121400370D01*
X120713181Y-121197305D01*
X120648924Y-121105536D01*
X120584668Y-121013768D01*
X120512401Y-120941501D01*
X120426233Y-120855333D01*
X120426229Y-120855330D01*
X120426228Y-120855329D01*
X120242700Y-120726821D01*
X120242692Y-120726817D01*
X120147400Y-120682382D01*
X120094960Y-120636210D01*
X120075808Y-120569017D01*
X120096023Y-120502135D01*
X120147400Y-120457618D01*
X120242696Y-120413181D01*
X120426233Y-120284667D01*
X120584667Y-120126233D01*
X120713181Y-119942696D01*
X120807872Y-119739630D01*
X120865863Y-119523206D01*
X120885391Y-119300000D01*
X120865863Y-119076794D01*
X120807872Y-118860370D01*
X120713181Y-118657305D01*
X120648924Y-118565536D01*
X120584668Y-118473768D01*
X120512401Y-118401501D01*
X120426233Y-118315333D01*
X120426229Y-118315330D01*
X120426228Y-118315329D01*
X120242700Y-118186821D01*
X120242692Y-118186817D01*
X120147400Y-118142382D01*
X120094960Y-118096210D01*
X120075808Y-118029017D01*
X120096023Y-117962135D01*
X120147400Y-117917618D01*
X120242696Y-117873181D01*
X120426233Y-117744667D01*
X120584667Y-117586233D01*
X120713181Y-117402696D01*
X120807872Y-117199630D01*
X120865863Y-116983206D01*
X120885391Y-116760000D01*
X120865863Y-116536794D01*
X120807872Y-116320370D01*
X120713181Y-116117305D01*
X120648924Y-116025536D01*
X120584668Y-115933768D01*
X120512401Y-115861501D01*
X120426233Y-115775333D01*
X120426229Y-115775330D01*
X120426228Y-115775329D01*
X120242700Y-115646821D01*
X120242692Y-115646817D01*
X120147400Y-115602382D01*
X120094960Y-115556210D01*
X120075808Y-115489017D01*
X120096023Y-115422135D01*
X120147400Y-115377618D01*
X120242696Y-115333181D01*
X120426233Y-115204667D01*
X120584667Y-115046233D01*
X120713181Y-114862696D01*
X120807872Y-114659630D01*
X120865863Y-114443206D01*
X120885391Y-114220000D01*
X120865863Y-113996794D01*
X120807872Y-113780370D01*
X120713181Y-113577305D01*
X120648924Y-113485536D01*
X120584668Y-113393768D01*
X120512401Y-113321501D01*
X120426233Y-113235333D01*
X120426229Y-113235330D01*
X120426228Y-113235329D01*
X120242700Y-113106821D01*
X120242692Y-113106817D01*
X120147400Y-113062382D01*
X120094960Y-113016210D01*
X120075808Y-112949017D01*
X120096023Y-112882135D01*
X120147400Y-112837618D01*
X120242696Y-112793181D01*
X120426233Y-112664667D01*
X120584667Y-112506233D01*
X120713181Y-112322696D01*
X120807872Y-112119630D01*
X120865863Y-111903206D01*
X120885391Y-111680000D01*
X120884486Y-111669661D01*
X120870045Y-111504596D01*
X120865863Y-111456794D01*
X120807872Y-111240370D01*
X120713181Y-111037305D01*
X120648924Y-110945536D01*
X120584668Y-110853768D01*
X120512401Y-110781501D01*
X120426233Y-110695333D01*
X120426229Y-110695330D01*
X120426228Y-110695329D01*
X120242700Y-110566821D01*
X120242692Y-110566817D01*
X120147400Y-110522382D01*
X120094960Y-110476210D01*
X120075808Y-110409017D01*
X120096023Y-110342135D01*
X120147400Y-110297618D01*
X120242696Y-110253181D01*
X120426233Y-110124667D01*
X120584667Y-109966233D01*
X120713181Y-109782696D01*
X120807872Y-109579630D01*
X120865863Y-109363206D01*
X120885391Y-109140000D01*
X120865863Y-108916794D01*
X120807872Y-108700370D01*
X120713181Y-108497305D01*
X120600672Y-108336625D01*
X120584668Y-108313768D01*
X120512401Y-108241501D01*
X120426233Y-108155333D01*
X120426229Y-108155330D01*
X120426228Y-108155329D01*
X120242700Y-108026821D01*
X120242692Y-108026817D01*
X120147400Y-107982382D01*
X120094960Y-107936210D01*
X120075808Y-107869017D01*
X120096023Y-107802135D01*
X120147400Y-107757618D01*
X120242696Y-107713181D01*
X120426233Y-107584667D01*
X120584667Y-107426233D01*
X120713181Y-107242696D01*
X120807872Y-107039630D01*
X120865863Y-106823206D01*
X120885391Y-106600000D01*
X120865863Y-106376794D01*
X120807872Y-106160370D01*
X120713181Y-105957305D01*
X120648924Y-105865536D01*
X120584668Y-105773768D01*
X120584664Y-105773764D01*
X120426233Y-105615333D01*
X120426229Y-105615330D01*
X120426228Y-105615329D01*
X120242700Y-105486821D01*
X120242692Y-105486817D01*
X120147400Y-105442382D01*
X120094960Y-105396210D01*
X120075808Y-105329017D01*
X120096023Y-105262135D01*
X120147400Y-105217618D01*
X120242696Y-105173181D01*
X120426233Y-105044667D01*
X120584667Y-104886233D01*
X120713181Y-104702696D01*
X120807872Y-104499630D01*
X120865863Y-104283206D01*
X120885391Y-104060000D01*
X120865863Y-103836794D01*
X120807872Y-103620370D01*
X120713181Y-103417305D01*
X120648924Y-103325536D01*
X120584668Y-103233768D01*
X120512401Y-103161501D01*
X120426233Y-103075333D01*
X120426229Y-103075330D01*
X120426228Y-103075329D01*
X120242700Y-102946821D01*
X120242692Y-102946817D01*
X120147400Y-102902382D01*
X120094960Y-102856210D01*
X120075808Y-102789017D01*
X120096023Y-102722135D01*
X120147400Y-102677618D01*
X120242696Y-102633181D01*
X120426233Y-102504667D01*
X120584667Y-102346233D01*
X120713181Y-102162696D01*
X120807872Y-101959630D01*
X120865863Y-101743206D01*
X120885391Y-101520000D01*
X120865863Y-101296794D01*
X120807872Y-101080370D01*
X120713181Y-100877305D01*
X120648924Y-100785536D01*
X120584668Y-100693768D01*
X120512401Y-100621501D01*
X120426233Y-100535333D01*
X120426229Y-100535330D01*
X120426228Y-100535329D01*
X120242700Y-100406821D01*
X120242692Y-100406817D01*
X120147400Y-100362382D01*
X120094960Y-100316210D01*
X120075808Y-100249017D01*
X120096023Y-100182135D01*
X120147400Y-100137618D01*
X120242696Y-100093181D01*
X120426233Y-99964667D01*
X120584667Y-99806233D01*
X120713181Y-99622696D01*
X120807872Y-99419630D01*
X120865863Y-99203206D01*
X120885391Y-98980000D01*
X120865863Y-98756794D01*
X120807872Y-98540370D01*
X120713181Y-98337305D01*
X120648924Y-98245536D01*
X120584668Y-98153768D01*
X120512401Y-98081501D01*
X120426233Y-97995333D01*
X120426229Y-97995330D01*
X120426228Y-97995329D01*
X120242700Y-97866821D01*
X120242692Y-97866817D01*
X120147400Y-97822382D01*
X120094960Y-97776210D01*
X120075808Y-97709017D01*
X120096023Y-97642135D01*
X120147400Y-97597618D01*
X120242696Y-97553181D01*
X120426233Y-97424667D01*
X120584667Y-97266233D01*
X120713181Y-97082696D01*
X120807872Y-96879630D01*
X120865863Y-96663206D01*
X120885391Y-96440000D01*
X120865863Y-96216794D01*
X120807872Y-96000370D01*
X120713181Y-95797305D01*
X120630893Y-95679785D01*
X120584668Y-95613768D01*
X120512401Y-95541501D01*
X120426233Y-95455333D01*
X120426229Y-95455330D01*
X120426228Y-95455329D01*
X120242700Y-95326821D01*
X120242692Y-95326817D01*
X120147400Y-95282382D01*
X120094960Y-95236210D01*
X120075808Y-95169017D01*
X120096023Y-95102135D01*
X120147400Y-95057618D01*
X120242696Y-95013181D01*
X120426233Y-94884667D01*
X120584667Y-94726233D01*
X120713181Y-94542696D01*
X120807872Y-94339630D01*
X120865863Y-94123206D01*
X120885391Y-93900000D01*
X120865863Y-93676794D01*
X120807872Y-93460370D01*
X120713181Y-93257305D01*
X120600672Y-93096625D01*
X120584668Y-93073768D01*
X120512401Y-93001501D01*
X120426233Y-92915333D01*
X120426229Y-92915330D01*
X120426228Y-92915329D01*
X120355884Y-92866074D01*
X120312259Y-92811497D01*
X120305065Y-92741999D01*
X120336588Y-92679644D01*
X120396817Y-92644230D01*
X120424570Y-92640800D01*
X120424564Y-92640676D01*
X120426347Y-92640580D01*
X120427007Y-92640499D01*
X120427871Y-92640499D01*
X120427872Y-92640499D01*
X120487483Y-92634091D01*
X120622331Y-92583796D01*
X120737546Y-92497546D01*
X120823796Y-92382331D01*
X120874091Y-92247483D01*
X120880500Y-92187873D01*
X120880499Y-90532128D01*
X120874091Y-90472517D01*
X120840144Y-90381501D01*
X120823797Y-90337671D01*
X120823793Y-90337664D01*
X120737547Y-90222455D01*
X120737544Y-90222452D01*
X120622335Y-90136206D01*
X120622328Y-90136202D01*
X120487482Y-90085908D01*
X120487483Y-90085908D01*
X120427883Y-90079501D01*
X120427881Y-90079500D01*
X120427873Y-90079500D01*
X120427864Y-90079500D01*
X118772129Y-90079500D01*
X118772123Y-90079501D01*
X118712516Y-90085908D01*
X118577671Y-90136202D01*
X118577664Y-90136206D01*
X118462455Y-90222452D01*
X118462452Y-90222455D01*
X118376206Y-90337664D01*
X118376202Y-90337671D01*
X118325908Y-90472517D01*
X118319501Y-90532116D01*
X118319501Y-90532123D01*
X118319500Y-90532135D01*
X118319500Y-92187870D01*
X118319501Y-92187876D01*
X118325908Y-92247483D01*
X118376202Y-92382328D01*
X118376206Y-92382335D01*
X118462452Y-92497544D01*
X118462455Y-92497547D01*
X118577664Y-92583793D01*
X118577671Y-92583797D01*
X118590080Y-92588425D01*
X118712517Y-92634091D01*
X118772127Y-92640500D01*
X118772964Y-92640499D01*
X118773149Y-92640554D01*
X118775453Y-92640678D01*
X118775423Y-92641221D01*
X118840006Y-92660168D01*
X118885773Y-92712961D01*
X118895733Y-92782117D01*
X118866723Y-92845679D01*
X118844115Y-92866073D01*
X118773766Y-92915332D01*
X118615334Y-93073764D01*
X118486819Y-93257304D01*
X118486818Y-93257306D01*
X118392129Y-93460368D01*
X118392126Y-93460374D01*
X118334137Y-93676791D01*
X118334136Y-93676799D01*
X118314609Y-93899998D01*
X118314609Y-93900001D01*
X118334136Y-94123200D01*
X118334137Y-94123208D01*
X118392126Y-94339625D01*
X118392127Y-94339627D01*
X118392128Y-94339630D01*
X118431313Y-94423663D01*
X118486819Y-94542696D01*
X118486821Y-94542700D01*
X118615329Y-94726228D01*
X118615334Y-94726234D01*
X118773765Y-94884665D01*
X118773771Y-94884670D01*
X118957299Y-95013178D01*
X118957301Y-95013179D01*
X118957304Y-95013181D01*
X119052600Y-95057618D01*
X119105039Y-95103790D01*
X119124191Y-95170984D01*
X119103975Y-95237865D01*
X119052600Y-95282382D01*
X118957306Y-95326818D01*
X118957304Y-95326819D01*
X118773764Y-95455334D01*
X118615334Y-95613764D01*
X118486819Y-95797304D01*
X118486818Y-95797306D01*
X118392129Y-96000368D01*
X118392126Y-96000374D01*
X118334137Y-96216791D01*
X118334136Y-96216799D01*
X118314609Y-96439998D01*
X118314609Y-96440001D01*
X118334136Y-96663200D01*
X118334137Y-96663208D01*
X118392126Y-96879625D01*
X118392127Y-96879627D01*
X118392128Y-96879630D01*
X118431313Y-96963663D01*
X118486819Y-97082696D01*
X118486821Y-97082700D01*
X118615329Y-97266228D01*
X118615334Y-97266234D01*
X118773765Y-97424665D01*
X118773771Y-97424670D01*
X118957299Y-97553178D01*
X118957301Y-97553179D01*
X118957304Y-97553181D01*
X119052600Y-97597618D01*
X119105039Y-97643790D01*
X119124191Y-97710984D01*
X119103975Y-97777865D01*
X119052600Y-97822382D01*
X118957306Y-97866818D01*
X118957304Y-97866819D01*
X118773764Y-97995334D01*
X118615334Y-98153764D01*
X118486819Y-98337304D01*
X118486818Y-98337306D01*
X118392129Y-98540368D01*
X118392126Y-98540374D01*
X118334137Y-98756791D01*
X118334136Y-98756799D01*
X118314609Y-98979998D01*
X118314609Y-98980001D01*
X118334136Y-99203200D01*
X118334137Y-99203208D01*
X118392126Y-99419625D01*
X118392127Y-99419627D01*
X118392128Y-99419630D01*
X118468284Y-99582948D01*
X118486819Y-99622696D01*
X118486821Y-99622700D01*
X118615329Y-99806228D01*
X118615334Y-99806234D01*
X118773765Y-99964665D01*
X118773771Y-99964670D01*
X118957299Y-100093178D01*
X118957301Y-100093179D01*
X118957304Y-100093181D01*
X119052600Y-100137618D01*
X119105039Y-100183790D01*
X119124191Y-100250984D01*
X119103975Y-100317865D01*
X119052600Y-100362382D01*
X118957306Y-100406818D01*
X118957304Y-100406819D01*
X118773764Y-100535334D01*
X118615334Y-100693764D01*
X118486819Y-100877304D01*
X118486818Y-100877306D01*
X118392129Y-101080368D01*
X118392126Y-101080374D01*
X118334137Y-101296791D01*
X118334136Y-101296799D01*
X118314609Y-101519998D01*
X118314609Y-101520001D01*
X118334136Y-101743200D01*
X118334137Y-101743208D01*
X118392126Y-101959625D01*
X118392127Y-101959627D01*
X118392128Y-101959630D01*
X118431313Y-102043663D01*
X118486819Y-102162696D01*
X118486821Y-102162700D01*
X118615329Y-102346228D01*
X118615334Y-102346234D01*
X118773765Y-102504665D01*
X118773771Y-102504670D01*
X118957299Y-102633178D01*
X118957301Y-102633179D01*
X118957304Y-102633181D01*
X119052600Y-102677618D01*
X119105039Y-102723790D01*
X119124191Y-102790984D01*
X119103975Y-102857865D01*
X119052600Y-102902382D01*
X118957306Y-102946818D01*
X118957304Y-102946819D01*
X118773764Y-103075334D01*
X118615334Y-103233764D01*
X118486819Y-103417304D01*
X118486818Y-103417306D01*
X118392129Y-103620368D01*
X118392126Y-103620374D01*
X118334137Y-103836791D01*
X118334136Y-103836799D01*
X118314609Y-104059998D01*
X118314609Y-104060001D01*
X118334136Y-104283200D01*
X118334137Y-104283208D01*
X118392126Y-104499625D01*
X118392127Y-104499627D01*
X118392128Y-104499630D01*
X118431313Y-104583663D01*
X118486819Y-104702696D01*
X118486821Y-104702700D01*
X118615329Y-104886228D01*
X118615334Y-104886234D01*
X118773765Y-105044665D01*
X118773771Y-105044670D01*
X118957299Y-105173178D01*
X118957301Y-105173179D01*
X118957304Y-105173181D01*
X119052600Y-105217618D01*
X119105039Y-105263790D01*
X119124191Y-105330984D01*
X119103975Y-105397865D01*
X119052600Y-105442382D01*
X118957306Y-105486818D01*
X118957304Y-105486819D01*
X118773764Y-105615334D01*
X118615334Y-105773764D01*
X118486819Y-105957304D01*
X118486818Y-105957306D01*
X118392129Y-106160368D01*
X118392126Y-106160374D01*
X118334137Y-106376791D01*
X118334136Y-106376799D01*
X118314609Y-106599998D01*
X118314609Y-106600001D01*
X118334136Y-106823200D01*
X118334137Y-106823208D01*
X118392126Y-107039625D01*
X118392127Y-107039627D01*
X118392128Y-107039630D01*
X118431313Y-107123663D01*
X118486819Y-107242696D01*
X118486821Y-107242700D01*
X118615329Y-107426228D01*
X118615334Y-107426234D01*
X118773765Y-107584665D01*
X118773771Y-107584670D01*
X118957299Y-107713178D01*
X118957301Y-107713179D01*
X118957304Y-107713181D01*
X119052600Y-107757618D01*
X119105039Y-107803790D01*
X119124191Y-107870984D01*
X119103975Y-107937865D01*
X119052600Y-107982382D01*
X118957306Y-108026818D01*
X118957304Y-108026819D01*
X118773764Y-108155334D01*
X118615334Y-108313764D01*
X118486819Y-108497304D01*
X118486818Y-108497306D01*
X118392129Y-108700368D01*
X118392126Y-108700374D01*
X118334137Y-108916791D01*
X118334136Y-108916799D01*
X118314609Y-109139998D01*
X118314609Y-109140001D01*
X118334136Y-109363200D01*
X118334137Y-109363208D01*
X118392126Y-109579625D01*
X118392127Y-109579627D01*
X118392128Y-109579630D01*
X118431313Y-109663663D01*
X118486819Y-109782696D01*
X118486821Y-109782700D01*
X118615329Y-109966228D01*
X118615334Y-109966234D01*
X118773765Y-110124665D01*
X118773771Y-110124670D01*
X118957299Y-110253178D01*
X118957301Y-110253179D01*
X118957304Y-110253181D01*
X119052600Y-110297618D01*
X119105039Y-110343790D01*
X119124191Y-110410984D01*
X119103975Y-110477865D01*
X119052600Y-110522382D01*
X118957306Y-110566818D01*
X118957304Y-110566819D01*
X118773764Y-110695334D01*
X118615334Y-110853764D01*
X118486819Y-111037304D01*
X118486818Y-111037306D01*
X118392129Y-111240368D01*
X118392126Y-111240374D01*
X118334137Y-111456791D01*
X118334136Y-111456799D01*
X118314609Y-111679998D01*
X118314609Y-111680001D01*
X118334136Y-111903200D01*
X118334137Y-111903208D01*
X118392126Y-112119625D01*
X118392127Y-112119627D01*
X118392128Y-112119630D01*
X118431313Y-112203663D01*
X118486819Y-112322696D01*
X118486821Y-112322700D01*
X118615329Y-112506228D01*
X118615334Y-112506234D01*
X118773765Y-112664665D01*
X118773771Y-112664670D01*
X118957299Y-112793178D01*
X118957301Y-112793179D01*
X118957304Y-112793181D01*
X119052600Y-112837618D01*
X119105039Y-112883790D01*
X119124191Y-112950984D01*
X119103975Y-113017865D01*
X119052600Y-113062382D01*
X118957306Y-113106818D01*
X118957304Y-113106819D01*
X118773764Y-113235334D01*
X118615334Y-113393764D01*
X118486819Y-113577304D01*
X118486818Y-113577306D01*
X118392129Y-113780368D01*
X118392126Y-113780374D01*
X118334137Y-113996791D01*
X118334136Y-113996799D01*
X118314609Y-114219998D01*
X118314609Y-114220001D01*
X118334136Y-114443200D01*
X118334137Y-114443208D01*
X118392126Y-114659625D01*
X118392127Y-114659627D01*
X118392128Y-114659630D01*
X118431313Y-114743663D01*
X118486819Y-114862696D01*
X118486821Y-114862700D01*
X118615329Y-115046228D01*
X118615334Y-115046234D01*
X118773765Y-115204665D01*
X118773771Y-115204670D01*
X118957299Y-115333178D01*
X118957301Y-115333179D01*
X118957304Y-115333181D01*
X119052600Y-115377618D01*
X119105039Y-115423790D01*
X119124191Y-115490984D01*
X119103975Y-115557865D01*
X119052600Y-115602382D01*
X118957306Y-115646818D01*
X118957304Y-115646819D01*
X118773764Y-115775334D01*
X118615334Y-115933764D01*
X118486819Y-116117304D01*
X118486818Y-116117306D01*
X118392129Y-116320368D01*
X118392126Y-116320374D01*
X118334137Y-116536791D01*
X118334136Y-116536799D01*
X118314609Y-116759998D01*
X118314609Y-116760001D01*
X118334136Y-116983200D01*
X118334137Y-116983208D01*
X118392126Y-117199625D01*
X118392127Y-117199627D01*
X118392128Y-117199630D01*
X118431313Y-117283663D01*
X118486819Y-117402696D01*
X118486821Y-117402700D01*
X118615329Y-117586228D01*
X118615334Y-117586234D01*
X118773765Y-117744665D01*
X118773771Y-117744670D01*
X118957299Y-117873178D01*
X118957301Y-117873179D01*
X118957304Y-117873181D01*
X119052600Y-117917618D01*
X119105039Y-117963790D01*
X119124191Y-118030984D01*
X119103975Y-118097865D01*
X119052600Y-118142382D01*
X118957306Y-118186818D01*
X118957304Y-118186819D01*
X118773764Y-118315334D01*
X118615334Y-118473764D01*
X118486819Y-118657304D01*
X118486818Y-118657306D01*
X118392129Y-118860368D01*
X118392126Y-118860374D01*
X118334137Y-119076791D01*
X118334136Y-119076799D01*
X118314609Y-119299998D01*
X118314609Y-119300001D01*
X118334136Y-119523200D01*
X118334137Y-119523208D01*
X118392126Y-119739625D01*
X118392127Y-119739627D01*
X118392128Y-119739630D01*
X118431313Y-119823663D01*
X118486819Y-119942696D01*
X118486821Y-119942700D01*
X118615329Y-120126228D01*
X118615334Y-120126234D01*
X118773765Y-120284665D01*
X118773771Y-120284670D01*
X118957299Y-120413178D01*
X118957301Y-120413179D01*
X118957304Y-120413181D01*
X119052600Y-120457618D01*
X119105039Y-120503790D01*
X119124191Y-120570984D01*
X119103975Y-120637865D01*
X119052600Y-120682382D01*
X118957306Y-120726818D01*
X118957304Y-120726819D01*
X118773764Y-120855334D01*
X118615334Y-121013764D01*
X118486819Y-121197304D01*
X118486818Y-121197306D01*
X118392129Y-121400368D01*
X118392126Y-121400374D01*
X118334137Y-121616791D01*
X118334136Y-121616799D01*
X118314609Y-121839998D01*
X118314609Y-121840001D01*
X118334136Y-122063200D01*
X118334137Y-122063208D01*
X118392126Y-122279625D01*
X118392127Y-122279627D01*
X118392128Y-122279630D01*
X118431313Y-122363663D01*
X118486819Y-122482696D01*
X118486821Y-122482700D01*
X118615329Y-122666228D01*
X118615334Y-122666234D01*
X118773765Y-122824665D01*
X118773771Y-122824670D01*
X118957299Y-122953178D01*
X118957301Y-122953179D01*
X118957304Y-122953181D01*
X119052600Y-122997618D01*
X119105039Y-123043790D01*
X119124191Y-123110984D01*
X119103975Y-123177865D01*
X119052600Y-123222382D01*
X118957306Y-123266818D01*
X118957304Y-123266819D01*
X118773764Y-123395334D01*
X118615334Y-123553764D01*
X118486819Y-123737304D01*
X118486818Y-123737306D01*
X118392129Y-123940368D01*
X118392126Y-123940374D01*
X118334137Y-124156791D01*
X118334136Y-124156799D01*
X118314609Y-124379998D01*
X118314609Y-124380001D01*
X118334136Y-124603200D01*
X118334137Y-124603208D01*
X118392126Y-124819625D01*
X118392127Y-124819627D01*
X118392128Y-124819630D01*
X118431313Y-124903663D01*
X118486819Y-125022696D01*
X118486821Y-125022700D01*
X118615329Y-125206228D01*
X118615334Y-125206234D01*
X118773765Y-125364665D01*
X118773771Y-125364670D01*
X118957299Y-125493178D01*
X118957301Y-125493179D01*
X118957304Y-125493181D01*
X119052600Y-125537618D01*
X119105039Y-125583790D01*
X119124191Y-125650984D01*
X119103975Y-125717865D01*
X119052600Y-125762382D01*
X118957306Y-125806818D01*
X118957304Y-125806819D01*
X118773764Y-125935334D01*
X118615334Y-126093764D01*
X118486819Y-126277304D01*
X118486818Y-126277306D01*
X118392129Y-126480368D01*
X118392126Y-126480374D01*
X118334137Y-126696791D01*
X118334136Y-126696799D01*
X118314609Y-126919998D01*
X118314609Y-126920001D01*
X118334136Y-127143200D01*
X118334137Y-127143208D01*
X118392126Y-127359625D01*
X118392127Y-127359627D01*
X118392128Y-127359630D01*
X118431313Y-127443663D01*
X118486819Y-127562696D01*
X118486821Y-127562700D01*
X118615329Y-127746228D01*
X118615334Y-127746234D01*
X118773765Y-127904665D01*
X118773771Y-127904670D01*
X118957299Y-128033178D01*
X118957301Y-128033179D01*
X118957304Y-128033181D01*
X119052600Y-128077618D01*
X119105039Y-128123790D01*
X119124191Y-128190984D01*
X119103975Y-128257865D01*
X119052600Y-128302382D01*
X118957306Y-128346818D01*
X118957304Y-128346819D01*
X118773764Y-128475334D01*
X118615334Y-128633764D01*
X118486819Y-128817304D01*
X118486818Y-128817306D01*
X118392129Y-129020368D01*
X118392126Y-129020374D01*
X118334137Y-129236791D01*
X118334136Y-129236799D01*
X118314609Y-129459998D01*
X118314609Y-129460001D01*
X118334136Y-129683200D01*
X118334137Y-129683208D01*
X118392126Y-129899625D01*
X118392127Y-129899627D01*
X118392128Y-129899630D01*
X118431313Y-129983663D01*
X118486819Y-130102696D01*
X118486821Y-130102700D01*
X118615329Y-130286228D01*
X118615334Y-130286234D01*
X118773765Y-130444665D01*
X118773771Y-130444670D01*
X118957299Y-130573178D01*
X118957301Y-130573179D01*
X118957304Y-130573181D01*
X119052600Y-130617618D01*
X119105039Y-130663790D01*
X119124191Y-130730984D01*
X119103975Y-130797865D01*
X119052600Y-130842382D01*
X118957306Y-130886818D01*
X118957304Y-130886819D01*
X118773764Y-131015334D01*
X118615334Y-131173764D01*
X118486819Y-131357304D01*
X118486818Y-131357306D01*
X118392129Y-131560368D01*
X118392126Y-131560374D01*
X118334137Y-131776791D01*
X118334136Y-131776799D01*
X118314609Y-131999998D01*
X118314609Y-132000001D01*
X118334136Y-132223200D01*
X118334137Y-132223205D01*
X118392126Y-132439625D01*
X118392127Y-132439627D01*
X118392128Y-132439630D01*
X118431313Y-132523663D01*
X118486819Y-132642696D01*
X118486821Y-132642700D01*
X118615329Y-132826228D01*
X118615334Y-132826234D01*
X118773765Y-132984665D01*
X118773771Y-132984670D01*
X118957299Y-133113178D01*
X118957301Y-133113179D01*
X118957304Y-133113181D01*
X119052600Y-133157618D01*
X119105039Y-133203790D01*
X119124191Y-133270984D01*
X119103975Y-133337865D01*
X119052600Y-133382382D01*
X118957306Y-133426818D01*
X118957304Y-133426819D01*
X118773764Y-133555334D01*
X118615334Y-133713764D01*
X118486819Y-133897304D01*
X118486818Y-133897306D01*
X118392129Y-134100368D01*
X118392126Y-134100374D01*
X118334137Y-134316791D01*
X118334136Y-134316799D01*
X118314609Y-134539998D01*
X118314609Y-134540001D01*
X118334136Y-134763200D01*
X118334137Y-134763208D01*
X118392126Y-134979625D01*
X118392127Y-134979627D01*
X118392128Y-134979630D01*
X118468614Y-135143655D01*
X118486819Y-135182696D01*
X118486821Y-135182700D01*
X118615329Y-135366228D01*
X118615334Y-135366234D01*
X118773765Y-135524665D01*
X118773771Y-135524670D01*
X118957299Y-135653178D01*
X118957301Y-135653179D01*
X118957304Y-135653181D01*
X119035948Y-135689853D01*
X119052600Y-135697618D01*
X119105039Y-135743790D01*
X119124191Y-135810984D01*
X119103975Y-135877865D01*
X119052600Y-135922382D01*
X118957306Y-135966818D01*
X118957304Y-135966819D01*
X118773764Y-136095334D01*
X118615334Y-136253764D01*
X118486819Y-136437304D01*
X118486818Y-136437306D01*
X118392129Y-136640368D01*
X118392126Y-136640374D01*
X118334137Y-136856791D01*
X118334136Y-136856799D01*
X118314609Y-137079998D01*
X118314609Y-137080001D01*
X115850499Y-137080001D01*
X115850499Y-136242128D01*
X115844091Y-136182517D01*
X115793796Y-136047669D01*
X115793795Y-136047668D01*
X115793793Y-136047664D01*
X115707547Y-135932455D01*
X115707544Y-135932452D01*
X115592335Y-135846206D01*
X115592328Y-135846202D01*
X115460917Y-135797189D01*
X115404983Y-135755318D01*
X115380566Y-135689853D01*
X115395418Y-135621580D01*
X115416563Y-135593332D01*
X115538495Y-135471401D01*
X115674035Y-135277830D01*
X115773903Y-135063663D01*
X115835063Y-134835408D01*
X115855659Y-134600000D01*
X115835063Y-134364592D01*
X115773903Y-134136337D01*
X115674035Y-133922171D01*
X115656625Y-133897306D01*
X115538494Y-133728597D01*
X115371402Y-133561506D01*
X115371396Y-133561501D01*
X115185842Y-133431575D01*
X115142217Y-133376998D01*
X115135023Y-133307500D01*
X115166546Y-133245145D01*
X115185842Y-133228425D01*
X115257152Y-133178493D01*
X115371401Y-133098495D01*
X115538495Y-132931401D01*
X115674035Y-132737830D01*
X115773903Y-132523663D01*
X115835063Y-132295408D01*
X115855659Y-132060000D01*
X115835063Y-131824592D01*
X115773903Y-131596337D01*
X115674035Y-131382171D01*
X115656625Y-131357306D01*
X115538494Y-131188597D01*
X115371402Y-131021506D01*
X115371396Y-131021501D01*
X115185842Y-130891575D01*
X115142217Y-130836998D01*
X115135023Y-130767500D01*
X115166546Y-130705145D01*
X115185842Y-130688425D01*
X115257152Y-130638493D01*
X115371401Y-130558495D01*
X115538495Y-130391401D01*
X115674035Y-130197830D01*
X115773903Y-129983663D01*
X115835063Y-129755408D01*
X115855659Y-129520000D01*
X115835063Y-129284592D01*
X115773903Y-129056337D01*
X115674035Y-128842171D01*
X115656625Y-128817306D01*
X115538494Y-128648597D01*
X115371402Y-128481506D01*
X115371396Y-128481501D01*
X115185842Y-128351575D01*
X115142217Y-128296998D01*
X115135023Y-128227500D01*
X115166546Y-128165145D01*
X115185842Y-128148425D01*
X115257152Y-128098493D01*
X115371401Y-128018495D01*
X115538495Y-127851401D01*
X115674035Y-127657830D01*
X115773903Y-127443663D01*
X115835063Y-127215408D01*
X115855659Y-126980000D01*
X115835063Y-126744592D01*
X115773903Y-126516337D01*
X115674035Y-126302171D01*
X115656625Y-126277306D01*
X115538494Y-126108597D01*
X115371402Y-125941506D01*
X115371396Y-125941501D01*
X115185842Y-125811575D01*
X115142217Y-125756998D01*
X115135023Y-125687500D01*
X115166546Y-125625145D01*
X115185842Y-125608425D01*
X115257152Y-125558493D01*
X115371401Y-125478495D01*
X115538495Y-125311401D01*
X115674035Y-125117830D01*
X115773903Y-124903663D01*
X115835063Y-124675408D01*
X115855659Y-124440000D01*
X115835063Y-124204592D01*
X115773903Y-123976337D01*
X115674035Y-123762171D01*
X115656625Y-123737306D01*
X115538494Y-123568597D01*
X115371402Y-123401506D01*
X115371396Y-123401501D01*
X115185842Y-123271575D01*
X115142217Y-123216998D01*
X115135023Y-123147500D01*
X115166546Y-123085145D01*
X115185842Y-123068425D01*
X115257152Y-123018493D01*
X115371401Y-122938495D01*
X115538495Y-122771401D01*
X115674035Y-122577830D01*
X115773903Y-122363663D01*
X115835063Y-122135408D01*
X115855659Y-121900000D01*
X115835063Y-121664592D01*
X115773903Y-121436337D01*
X115674035Y-121222171D01*
X115656625Y-121197306D01*
X115538494Y-121028597D01*
X115371402Y-120861506D01*
X115371396Y-120861501D01*
X115185842Y-120731575D01*
X115142217Y-120676998D01*
X115135023Y-120607500D01*
X115166546Y-120545145D01*
X115185842Y-120528425D01*
X115257152Y-120478493D01*
X115371401Y-120398495D01*
X115538495Y-120231401D01*
X115674035Y-120037830D01*
X115773903Y-119823663D01*
X115835063Y-119595408D01*
X115855659Y-119360000D01*
X115835063Y-119124592D01*
X115773903Y-118896337D01*
X115674035Y-118682171D01*
X115656625Y-118657306D01*
X115538494Y-118488597D01*
X115371402Y-118321506D01*
X115371396Y-118321501D01*
X115185842Y-118191575D01*
X115142217Y-118136998D01*
X115135023Y-118067500D01*
X115166546Y-118005145D01*
X115185842Y-117988425D01*
X115257152Y-117938493D01*
X115371401Y-117858495D01*
X115538495Y-117691401D01*
X115674035Y-117497830D01*
X115773903Y-117283663D01*
X115835063Y-117055408D01*
X115855659Y-116820000D01*
X115835063Y-116584592D01*
X115773903Y-116356337D01*
X115674035Y-116142171D01*
X115656625Y-116117306D01*
X115538494Y-115948597D01*
X115371402Y-115781506D01*
X115371396Y-115781501D01*
X115185842Y-115651575D01*
X115142217Y-115596998D01*
X115135023Y-115527500D01*
X115166546Y-115465145D01*
X115185842Y-115448425D01*
X115257152Y-115398493D01*
X115371401Y-115318495D01*
X115538495Y-115151401D01*
X115674035Y-114957830D01*
X115773903Y-114743663D01*
X115835063Y-114515408D01*
X115855659Y-114280000D01*
X115835063Y-114044592D01*
X115773903Y-113816337D01*
X115674035Y-113602171D01*
X115656625Y-113577306D01*
X115538494Y-113408597D01*
X115371402Y-113241506D01*
X115371396Y-113241501D01*
X115185842Y-113111575D01*
X115142217Y-113056998D01*
X115135023Y-112987500D01*
X115166546Y-112925145D01*
X115185842Y-112908425D01*
X115257152Y-112858493D01*
X115371401Y-112778495D01*
X115538495Y-112611401D01*
X115674035Y-112417830D01*
X115773903Y-112203663D01*
X115835063Y-111975408D01*
X115855659Y-111740000D01*
X115835063Y-111504592D01*
X115773903Y-111276337D01*
X115674035Y-111062171D01*
X115656625Y-111037306D01*
X115538494Y-110868597D01*
X115371402Y-110701506D01*
X115371396Y-110701501D01*
X115185842Y-110571575D01*
X115142217Y-110516998D01*
X115135023Y-110447500D01*
X115166546Y-110385145D01*
X115185842Y-110368425D01*
X115257152Y-110318493D01*
X115371401Y-110238495D01*
X115538495Y-110071401D01*
X115674035Y-109877830D01*
X115773903Y-109663663D01*
X115835063Y-109435408D01*
X115855659Y-109200000D01*
X115835063Y-108964592D01*
X115773903Y-108736337D01*
X115674035Y-108522171D01*
X115656625Y-108497306D01*
X115538494Y-108328597D01*
X115371402Y-108161506D01*
X115371396Y-108161501D01*
X115185842Y-108031575D01*
X115142217Y-107976998D01*
X115135023Y-107907500D01*
X115166546Y-107845145D01*
X115185842Y-107828425D01*
X115223388Y-107802135D01*
X115371401Y-107698495D01*
X115538495Y-107531401D01*
X115674035Y-107337830D01*
X115773903Y-107123663D01*
X115835063Y-106895408D01*
X115855659Y-106660000D01*
X115835063Y-106424592D01*
X115773903Y-106196337D01*
X115674035Y-105982171D01*
X115656625Y-105957306D01*
X115538494Y-105788597D01*
X115371402Y-105621506D01*
X115371396Y-105621501D01*
X115185842Y-105491575D01*
X115142217Y-105436998D01*
X115135023Y-105367500D01*
X115166546Y-105305145D01*
X115185842Y-105288425D01*
X115257152Y-105238493D01*
X115371401Y-105158495D01*
X115538495Y-104991401D01*
X115674035Y-104797830D01*
X115773903Y-104583663D01*
X115835063Y-104355408D01*
X115855659Y-104120000D01*
X115835063Y-103884592D01*
X115773903Y-103656337D01*
X115674035Y-103442171D01*
X115656625Y-103417306D01*
X115538494Y-103248597D01*
X115371402Y-103081506D01*
X115371396Y-103081501D01*
X115185842Y-102951575D01*
X115142217Y-102896998D01*
X115135023Y-102827500D01*
X115166546Y-102765145D01*
X115185842Y-102748425D01*
X115257152Y-102698493D01*
X115371401Y-102618495D01*
X115538495Y-102451401D01*
X115674035Y-102257830D01*
X115773903Y-102043663D01*
X115835063Y-101815408D01*
X115855659Y-101580000D01*
X115835063Y-101344592D01*
X115773903Y-101116337D01*
X115674035Y-100902171D01*
X115656625Y-100877306D01*
X115538494Y-100708597D01*
X115371402Y-100541506D01*
X115371396Y-100541501D01*
X115185842Y-100411575D01*
X115142217Y-100356998D01*
X115135023Y-100287500D01*
X115166546Y-100225145D01*
X115185842Y-100208425D01*
X115257152Y-100158493D01*
X115371401Y-100078495D01*
X115538495Y-99911401D01*
X115674035Y-99717830D01*
X115773903Y-99503663D01*
X115835063Y-99275408D01*
X115855659Y-99040000D01*
X115835063Y-98804592D01*
X115773903Y-98576337D01*
X115674035Y-98362171D01*
X115656625Y-98337306D01*
X115538494Y-98168597D01*
X115371402Y-98001506D01*
X115371396Y-98001501D01*
X115185842Y-97871575D01*
X115142217Y-97816998D01*
X115135023Y-97747500D01*
X115166546Y-97685145D01*
X115185842Y-97668425D01*
X115257152Y-97618493D01*
X115371401Y-97538495D01*
X115538495Y-97371401D01*
X115674035Y-97177830D01*
X115773903Y-96963663D01*
X115835063Y-96735408D01*
X115855659Y-96500000D01*
X115835063Y-96264592D01*
X115773903Y-96036337D01*
X115674035Y-95822171D01*
X115656625Y-95797306D01*
X115538494Y-95628597D01*
X115371402Y-95461506D01*
X115371396Y-95461501D01*
X115185842Y-95331575D01*
X115142217Y-95276998D01*
X115135023Y-95207500D01*
X115166546Y-95145145D01*
X115185842Y-95128425D01*
X115257152Y-95078493D01*
X115371401Y-94998495D01*
X115538495Y-94831401D01*
X115674035Y-94637830D01*
X115773903Y-94423663D01*
X115835063Y-94195408D01*
X115855659Y-93960000D01*
X115835063Y-93724592D01*
X115773903Y-93496337D01*
X115674035Y-93282171D01*
X115656625Y-93257306D01*
X115538494Y-93088597D01*
X115371402Y-92921506D01*
X115371396Y-92921501D01*
X115185842Y-92791575D01*
X115142217Y-92736998D01*
X115135023Y-92667500D01*
X115166546Y-92605145D01*
X115185842Y-92588425D01*
X115315633Y-92497544D01*
X115371401Y-92458495D01*
X115538495Y-92291401D01*
X115674035Y-92097830D01*
X115773903Y-91883663D01*
X115835063Y-91655408D01*
X115855659Y-91420000D01*
X115835063Y-91184592D01*
X115773903Y-90956337D01*
X115674035Y-90742171D01*
X115538495Y-90548599D01*
X115538494Y-90548597D01*
X115371402Y-90381506D01*
X115371395Y-90381501D01*
X115177834Y-90245967D01*
X115177830Y-90245965D01*
X115127413Y-90222455D01*
X114963663Y-90146097D01*
X114963659Y-90146096D01*
X114963655Y-90146094D01*
X114735413Y-90084938D01*
X114735403Y-90084936D01*
X114500001Y-90064341D01*
X114499999Y-90064341D01*
X114264596Y-90084936D01*
X114264586Y-90084938D01*
X114036344Y-90146094D01*
X114036335Y-90146098D01*
X113822171Y-90245964D01*
X113822169Y-90245965D01*
X113628597Y-90381505D01*
X113461505Y-90548597D01*
X113325965Y-90742169D01*
X113325964Y-90742171D01*
X113226098Y-90956335D01*
X113226094Y-90956344D01*
X113164938Y-91184586D01*
X113164936Y-91184596D01*
X113144341Y-91419999D01*
X113144341Y-91420000D01*
X113164936Y-91655403D01*
X113164938Y-91655413D01*
X113226094Y-91883655D01*
X113226096Y-91883659D01*
X113226097Y-91883663D01*
X113325965Y-92097830D01*
X113325967Y-92097834D01*
X113461501Y-92291395D01*
X113461506Y-92291402D01*
X113628597Y-92458493D01*
X113628603Y-92458498D01*
X113814158Y-92588425D01*
X113857783Y-92643002D01*
X113864977Y-92712500D01*
X113833454Y-92774855D01*
X113814158Y-92791575D01*
X113628597Y-92921505D01*
X113461505Y-93088597D01*
X113325965Y-93282169D01*
X113325964Y-93282171D01*
X113226098Y-93496335D01*
X113226094Y-93496344D01*
X113164938Y-93724586D01*
X113164936Y-93724596D01*
X113144341Y-93959999D01*
X113144341Y-93960000D01*
X113164936Y-94195403D01*
X113164938Y-94195413D01*
X113226094Y-94423655D01*
X113226096Y-94423659D01*
X113226097Y-94423663D01*
X113281603Y-94542696D01*
X113325965Y-94637830D01*
X113325967Y-94637834D01*
X113461501Y-94831395D01*
X113461506Y-94831402D01*
X113628597Y-94998493D01*
X113628603Y-94998498D01*
X113814158Y-95128425D01*
X113857783Y-95183002D01*
X113864977Y-95252500D01*
X113833454Y-95314855D01*
X113814158Y-95331575D01*
X113628597Y-95461505D01*
X113461505Y-95628597D01*
X113325965Y-95822169D01*
X113325964Y-95822171D01*
X113226098Y-96036335D01*
X113226094Y-96036344D01*
X113164938Y-96264586D01*
X113164936Y-96264596D01*
X113144341Y-96499999D01*
X113144341Y-96500000D01*
X113164936Y-96735403D01*
X113164938Y-96735413D01*
X113226094Y-96963655D01*
X113226096Y-96963659D01*
X113226097Y-96963663D01*
X113325965Y-97177830D01*
X113325967Y-97177834D01*
X113461501Y-97371395D01*
X113461506Y-97371402D01*
X113628597Y-97538493D01*
X113628603Y-97538498D01*
X113814158Y-97668425D01*
X113857783Y-97723002D01*
X113864977Y-97792500D01*
X113833454Y-97854855D01*
X113814158Y-97871575D01*
X113628597Y-98001505D01*
X113461505Y-98168597D01*
X113325965Y-98362169D01*
X113325964Y-98362171D01*
X113226098Y-98576335D01*
X113226094Y-98576344D01*
X113164938Y-98804586D01*
X113164936Y-98804596D01*
X113144341Y-99039999D01*
X113144341Y-99040000D01*
X113164936Y-99275403D01*
X113164938Y-99275413D01*
X113226094Y-99503655D01*
X113226096Y-99503659D01*
X113226097Y-99503663D01*
X113281603Y-99622696D01*
X113325965Y-99717830D01*
X113325967Y-99717834D01*
X113461501Y-99911395D01*
X113461506Y-99911402D01*
X113628597Y-100078493D01*
X113628603Y-100078498D01*
X113814158Y-100208425D01*
X113857783Y-100263002D01*
X113864977Y-100332500D01*
X113833454Y-100394855D01*
X113814158Y-100411575D01*
X113628597Y-100541505D01*
X113461505Y-100708597D01*
X113325965Y-100902169D01*
X113325964Y-100902171D01*
X113226098Y-101116335D01*
X113226094Y-101116344D01*
X113164938Y-101344586D01*
X113164936Y-101344596D01*
X113144341Y-101579999D01*
X113144341Y-101580000D01*
X113164936Y-101815403D01*
X113164938Y-101815413D01*
X113226094Y-102043655D01*
X113226096Y-102043659D01*
X113226097Y-102043663D01*
X113281603Y-102162696D01*
X113325965Y-102257830D01*
X113325967Y-102257834D01*
X113461501Y-102451395D01*
X113461506Y-102451402D01*
X113628597Y-102618493D01*
X113628603Y-102618498D01*
X113814158Y-102748425D01*
X113857783Y-102803002D01*
X113864977Y-102872500D01*
X113833454Y-102934855D01*
X113814158Y-102951575D01*
X113628597Y-103081505D01*
X113461505Y-103248597D01*
X113325965Y-103442169D01*
X113325964Y-103442171D01*
X113226098Y-103656335D01*
X113226094Y-103656344D01*
X113164938Y-103884586D01*
X113164936Y-103884596D01*
X113144341Y-104119999D01*
X113144341Y-104120000D01*
X113164936Y-104355403D01*
X113164938Y-104355413D01*
X113226094Y-104583655D01*
X113226096Y-104583659D01*
X113226097Y-104583663D01*
X113281603Y-104702696D01*
X113325965Y-104797830D01*
X113325967Y-104797834D01*
X113461501Y-104991395D01*
X113461506Y-104991402D01*
X113628597Y-105158493D01*
X113628603Y-105158498D01*
X113814158Y-105288425D01*
X113857783Y-105343002D01*
X113864977Y-105412500D01*
X113833454Y-105474855D01*
X113814158Y-105491575D01*
X113628597Y-105621505D01*
X113461505Y-105788597D01*
X113325965Y-105982169D01*
X113325964Y-105982171D01*
X113226098Y-106196335D01*
X113226094Y-106196344D01*
X113164938Y-106424586D01*
X113164936Y-106424596D01*
X113144341Y-106659999D01*
X113144341Y-106660000D01*
X113164936Y-106895403D01*
X113164938Y-106895413D01*
X113226094Y-107123655D01*
X113226096Y-107123659D01*
X113226097Y-107123663D01*
X113281603Y-107242696D01*
X113325965Y-107337830D01*
X113325967Y-107337834D01*
X113461501Y-107531395D01*
X113461506Y-107531402D01*
X113628597Y-107698493D01*
X113628603Y-107698498D01*
X113814158Y-107828425D01*
X113857783Y-107883002D01*
X113864977Y-107952500D01*
X113833454Y-108014855D01*
X113814158Y-108031575D01*
X113628597Y-108161505D01*
X113461505Y-108328597D01*
X113325965Y-108522169D01*
X113325964Y-108522171D01*
X113226098Y-108736335D01*
X113226094Y-108736344D01*
X113164938Y-108964586D01*
X113164936Y-108964596D01*
X113144341Y-109199999D01*
X113144341Y-109200000D01*
X113164936Y-109435403D01*
X113164938Y-109435413D01*
X113226094Y-109663655D01*
X113226096Y-109663659D01*
X113226097Y-109663663D01*
X113302970Y-109828518D01*
X113325965Y-109877830D01*
X113325967Y-109877834D01*
X113461501Y-110071395D01*
X113461506Y-110071402D01*
X113628597Y-110238493D01*
X113628603Y-110238498D01*
X113814158Y-110368425D01*
X113857783Y-110423002D01*
X113864977Y-110492500D01*
X113833454Y-110554855D01*
X113814158Y-110571575D01*
X113628597Y-110701505D01*
X113461505Y-110868597D01*
X113325965Y-111062169D01*
X113325964Y-111062171D01*
X113226098Y-111276335D01*
X113226094Y-111276344D01*
X113164938Y-111504586D01*
X113164936Y-111504596D01*
X113144341Y-111739999D01*
X113144341Y-111740000D01*
X113164936Y-111975403D01*
X113164938Y-111975413D01*
X113226094Y-112203655D01*
X113226096Y-112203659D01*
X113226097Y-112203663D01*
X113281603Y-112322696D01*
X113325965Y-112417830D01*
X113325967Y-112417834D01*
X113461501Y-112611395D01*
X113461506Y-112611402D01*
X113628597Y-112778493D01*
X113628603Y-112778498D01*
X113814158Y-112908425D01*
X113857783Y-112963002D01*
X113864977Y-113032500D01*
X113833454Y-113094855D01*
X113814158Y-113111575D01*
X113628597Y-113241505D01*
X113461505Y-113408597D01*
X113325965Y-113602169D01*
X113325964Y-113602171D01*
X113226098Y-113816335D01*
X113226094Y-113816344D01*
X113164938Y-114044586D01*
X113164936Y-114044596D01*
X113144341Y-114279999D01*
X113144341Y-114280000D01*
X113164936Y-114515403D01*
X113164938Y-114515413D01*
X113226094Y-114743655D01*
X113226096Y-114743659D01*
X113226097Y-114743663D01*
X113281603Y-114862696D01*
X113325965Y-114957830D01*
X113325967Y-114957834D01*
X113461501Y-115151395D01*
X113461506Y-115151402D01*
X113628597Y-115318493D01*
X113628603Y-115318498D01*
X113814158Y-115448425D01*
X113857783Y-115503002D01*
X113864977Y-115572500D01*
X113833454Y-115634855D01*
X113814158Y-115651575D01*
X113628597Y-115781505D01*
X113461505Y-115948597D01*
X113325965Y-116142169D01*
X113325964Y-116142171D01*
X113226098Y-116356335D01*
X113226094Y-116356344D01*
X113164938Y-116584586D01*
X113164936Y-116584596D01*
X113144341Y-116819999D01*
X113144341Y-116820000D01*
X113164936Y-117055403D01*
X113164938Y-117055413D01*
X113226094Y-117283655D01*
X113226096Y-117283659D01*
X113226097Y-117283663D01*
X113281603Y-117402696D01*
X113325965Y-117497830D01*
X113325967Y-117497834D01*
X113461501Y-117691395D01*
X113461506Y-117691402D01*
X113628597Y-117858493D01*
X113628603Y-117858498D01*
X113814158Y-117988425D01*
X113857783Y-118043002D01*
X113864977Y-118112500D01*
X113833454Y-118174855D01*
X113814158Y-118191575D01*
X113628597Y-118321505D01*
X113461505Y-118488597D01*
X113325965Y-118682169D01*
X113325964Y-118682171D01*
X113226098Y-118896335D01*
X113226094Y-118896344D01*
X113164938Y-119124586D01*
X113164936Y-119124596D01*
X113144341Y-119359999D01*
X113144341Y-119360000D01*
X113164936Y-119595403D01*
X113164938Y-119595413D01*
X113226094Y-119823655D01*
X113226096Y-119823659D01*
X113226097Y-119823663D01*
X113281603Y-119942696D01*
X113325965Y-120037830D01*
X113325967Y-120037834D01*
X113461501Y-120231395D01*
X113461506Y-120231402D01*
X113628597Y-120398493D01*
X113628603Y-120398498D01*
X113814158Y-120528425D01*
X113857783Y-120583002D01*
X113864977Y-120652500D01*
X113833454Y-120714855D01*
X113814158Y-120731575D01*
X113628597Y-120861505D01*
X113461505Y-121028597D01*
X113325965Y-121222169D01*
X113325964Y-121222171D01*
X113226098Y-121436335D01*
X113226094Y-121436344D01*
X113164938Y-121664586D01*
X113164936Y-121664596D01*
X113144341Y-121899999D01*
X113144341Y-121900000D01*
X113164936Y-122135403D01*
X113164938Y-122135413D01*
X113226094Y-122363655D01*
X113226096Y-122363659D01*
X113226097Y-122363663D01*
X113281603Y-122482696D01*
X113325965Y-122577830D01*
X113325967Y-122577834D01*
X113461501Y-122771395D01*
X113461506Y-122771402D01*
X113628597Y-122938493D01*
X113628603Y-122938498D01*
X113814158Y-123068425D01*
X113857783Y-123123002D01*
X113864977Y-123192500D01*
X113833454Y-123254855D01*
X113814158Y-123271575D01*
X113628597Y-123401505D01*
X113461505Y-123568597D01*
X113325965Y-123762169D01*
X113325964Y-123762171D01*
X113226098Y-123976335D01*
X113226094Y-123976344D01*
X113164938Y-124204586D01*
X113164936Y-124204596D01*
X113144341Y-124439999D01*
X113144341Y-124440000D01*
X113164936Y-124675403D01*
X113164938Y-124675413D01*
X113226094Y-124903655D01*
X113226096Y-124903659D01*
X113226097Y-124903663D01*
X113281603Y-125022696D01*
X113325965Y-125117830D01*
X113325967Y-125117834D01*
X113461501Y-125311395D01*
X113461506Y-125311402D01*
X113628597Y-125478493D01*
X113628603Y-125478498D01*
X113814158Y-125608425D01*
X113857783Y-125663002D01*
X113864977Y-125732500D01*
X113833454Y-125794855D01*
X113814158Y-125811575D01*
X113628597Y-125941505D01*
X113461505Y-126108597D01*
X113325965Y-126302169D01*
X113325964Y-126302171D01*
X113226098Y-126516335D01*
X113226094Y-126516344D01*
X113164938Y-126744586D01*
X113164936Y-126744596D01*
X113144341Y-126979999D01*
X113144341Y-126980000D01*
X113164936Y-127215403D01*
X113164938Y-127215413D01*
X113226094Y-127443655D01*
X113226096Y-127443659D01*
X113226097Y-127443663D01*
X113281603Y-127562696D01*
X113325965Y-127657830D01*
X113325967Y-127657834D01*
X113461501Y-127851395D01*
X113461506Y-127851402D01*
X113628597Y-128018493D01*
X113628603Y-128018498D01*
X113814158Y-128148425D01*
X113857783Y-128203002D01*
X113864977Y-128272500D01*
X113833454Y-128334855D01*
X113814158Y-128351575D01*
X113628597Y-128481505D01*
X113461505Y-128648597D01*
X113325965Y-128842169D01*
X113325964Y-128842171D01*
X113226098Y-129056335D01*
X113226094Y-129056344D01*
X113164938Y-129284586D01*
X113164936Y-129284596D01*
X113144341Y-129519999D01*
X113144341Y-129520000D01*
X113164936Y-129755403D01*
X113164938Y-129755413D01*
X113226094Y-129983655D01*
X113226096Y-129983659D01*
X113226097Y-129983663D01*
X113281603Y-130102696D01*
X113325965Y-130197830D01*
X113325967Y-130197834D01*
X113461501Y-130391395D01*
X113461506Y-130391402D01*
X113628597Y-130558493D01*
X113628603Y-130558498D01*
X113814158Y-130688425D01*
X113857783Y-130743002D01*
X113864977Y-130812500D01*
X113833454Y-130874855D01*
X113814158Y-130891575D01*
X113628597Y-131021505D01*
X113461505Y-131188597D01*
X113325965Y-131382169D01*
X113325964Y-131382171D01*
X113226098Y-131596335D01*
X113226094Y-131596344D01*
X113164938Y-131824586D01*
X113164936Y-131824596D01*
X113144341Y-132059999D01*
X113144341Y-132060000D01*
X113164936Y-132295403D01*
X113164938Y-132295413D01*
X113226094Y-132523655D01*
X113226096Y-132523659D01*
X113226097Y-132523663D01*
X113281603Y-132642696D01*
X113325965Y-132737830D01*
X113325967Y-132737834D01*
X113461501Y-132931395D01*
X113461506Y-132931402D01*
X113628597Y-133098493D01*
X113628603Y-133098498D01*
X113814158Y-133228425D01*
X113857783Y-133283002D01*
X113864977Y-133352500D01*
X113833454Y-133414855D01*
X113814158Y-133431575D01*
X113628597Y-133561505D01*
X113461505Y-133728597D01*
X113325965Y-133922169D01*
X113325964Y-133922171D01*
X113226098Y-134136335D01*
X113226094Y-134136344D01*
X113164938Y-134364586D01*
X113164936Y-134364596D01*
X113144341Y-134599999D01*
X113144341Y-134600000D01*
X113164936Y-134835403D01*
X113164938Y-134835413D01*
X113226094Y-135063655D01*
X113226096Y-135063659D01*
X113226097Y-135063663D01*
X113281603Y-135182696D01*
X113325965Y-135277830D01*
X113325967Y-135277834D01*
X113387866Y-135366234D01*
X113461501Y-135471396D01*
X113461506Y-135471402D01*
X113583430Y-135593326D01*
X113616915Y-135654649D01*
X113611931Y-135724341D01*
X113570059Y-135780274D01*
X113539083Y-135797189D01*
X113407669Y-135846203D01*
X113407664Y-135846206D01*
X113292455Y-135932452D01*
X113292452Y-135932455D01*
X113206206Y-136047664D01*
X113206202Y-136047671D01*
X113155908Y-136182517D01*
X113149501Y-136242116D01*
X113149501Y-136242123D01*
X113149500Y-136242135D01*
X113149500Y-138037870D01*
X113149501Y-138037876D01*
X113155908Y-138097483D01*
X113177810Y-138156203D01*
X113182794Y-138225895D01*
X113149309Y-138287218D01*
X113087986Y-138320702D01*
X113018294Y-138315718D01*
X112963252Y-138275023D01*
X112948695Y-138256052D01*
X112817515Y-138085094D01*
X112811318Y-138076244D01*
X112789461Y-138041936D01*
X112606223Y-137754309D01*
X112600816Y-137744942D01*
X112589238Y-137722700D01*
X112424566Y-137406369D01*
X112419997Y-137396572D01*
X112273920Y-137043911D01*
X112270224Y-137033755D01*
X112155442Y-136669710D01*
X112152648Y-136659284D01*
X112070025Y-136286597D01*
X112068152Y-136275971D01*
X112018326Y-135897506D01*
X112017386Y-135886771D01*
X112000618Y-135502702D01*
X112000500Y-135497293D01*
X112000500Y-71621288D01*
X113649500Y-71621288D01*
X113681161Y-71861785D01*
X113743947Y-72096104D01*
X113836773Y-72320205D01*
X113836776Y-72320212D01*
X113958064Y-72530289D01*
X113958066Y-72530292D01*
X113958067Y-72530293D01*
X114105733Y-72722736D01*
X114105739Y-72722743D01*
X114277256Y-72894260D01*
X114277262Y-72894265D01*
X114469711Y-73041936D01*
X114679788Y-73163224D01*
X114903900Y-73256054D01*
X115138211Y-73318838D01*
X115318586Y-73342584D01*
X115378711Y-73350500D01*
X115378712Y-73350500D01*
X115621289Y-73350500D01*
X115669388Y-73344167D01*
X115861789Y-73318838D01*
X116096100Y-73256054D01*
X116320212Y-73163224D01*
X116530289Y-73041936D01*
X116722738Y-72894265D01*
X116894265Y-72722738D01*
X117041936Y-72530289D01*
X117163224Y-72320212D01*
X117256054Y-72096100D01*
X117318838Y-71861789D01*
X117350500Y-71621288D01*
X117350500Y-71378712D01*
X117318838Y-71138211D01*
X117256054Y-70903900D01*
X117163224Y-70679788D01*
X117041936Y-70469711D01*
X116901351Y-70286497D01*
X116894266Y-70277263D01*
X116894260Y-70277256D01*
X116722743Y-70105739D01*
X116722736Y-70105733D01*
X116530293Y-69958067D01*
X116530292Y-69958066D01*
X116530289Y-69958064D01*
X116325798Y-69840001D01*
X148194532Y-69840001D01*
X148214364Y-70066686D01*
X148214366Y-70066697D01*
X148273258Y-70286488D01*
X148273261Y-70286497D01*
X148369431Y-70492732D01*
X148369432Y-70492734D01*
X148499954Y-70679141D01*
X148660858Y-70840045D01*
X148660861Y-70840047D01*
X148847266Y-70970568D01*
X149053504Y-71066739D01*
X149273308Y-71125635D01*
X149435230Y-71139801D01*
X149499998Y-71145468D01*
X149500000Y-71145468D01*
X149500002Y-71145468D01*
X149556673Y-71140509D01*
X149726692Y-71125635D01*
X149946496Y-71066739D01*
X150152734Y-70970568D01*
X150339139Y-70840047D01*
X150500047Y-70679139D01*
X150630568Y-70492734D01*
X150726739Y-70286496D01*
X150785635Y-70066692D01*
X150805468Y-69840000D01*
X150785635Y-69613308D01*
X150726739Y-69393504D01*
X150630568Y-69187266D01*
X150500047Y-69000861D01*
X150500045Y-69000858D01*
X150339141Y-68839954D01*
X150152734Y-68709432D01*
X150152732Y-68709431D01*
X149946497Y-68613261D01*
X149946488Y-68613258D01*
X149726697Y-68554366D01*
X149726693Y-68554365D01*
X149726692Y-68554365D01*
X149726691Y-68554364D01*
X149726686Y-68554364D01*
X149500002Y-68534532D01*
X149499998Y-68534532D01*
X149273313Y-68554364D01*
X149273302Y-68554366D01*
X149053511Y-68613258D01*
X149053502Y-68613261D01*
X148847267Y-68709431D01*
X148847265Y-68709432D01*
X148660858Y-68839954D01*
X148499954Y-69000858D01*
X148369432Y-69187265D01*
X148369431Y-69187267D01*
X148273261Y-69393502D01*
X148273258Y-69393511D01*
X148214366Y-69613302D01*
X148214364Y-69613313D01*
X148194532Y-69839998D01*
X148194532Y-69840001D01*
X116325798Y-69840001D01*
X116320212Y-69836776D01*
X116320205Y-69836773D01*
X116096104Y-69743947D01*
X115861785Y-69681161D01*
X115621289Y-69649500D01*
X115621288Y-69649500D01*
X115378712Y-69649500D01*
X115378711Y-69649500D01*
X115138214Y-69681161D01*
X114903895Y-69743947D01*
X114679794Y-69836773D01*
X114679785Y-69836777D01*
X114469706Y-69958067D01*
X114277263Y-70105733D01*
X114277256Y-70105739D01*
X114105739Y-70277256D01*
X114105733Y-70277263D01*
X113958067Y-70469706D01*
X113836777Y-70679785D01*
X113836773Y-70679794D01*
X113743947Y-70903895D01*
X113681161Y-71138214D01*
X113649500Y-71378711D01*
X113649500Y-71621288D01*
X112000500Y-71621288D01*
X112000500Y-65797870D01*
X151249500Y-65797870D01*
X151249501Y-65797876D01*
X151255908Y-65857483D01*
X151306202Y-65992328D01*
X151306206Y-65992335D01*
X151392452Y-66107544D01*
X151392455Y-66107547D01*
X151507664Y-66193793D01*
X151507671Y-66193797D01*
X151642517Y-66244091D01*
X151642516Y-66244091D01*
X151649444Y-66244835D01*
X151702127Y-66250500D01*
X153797872Y-66250499D01*
X153857483Y-66244091D01*
X153992331Y-66193796D01*
X154107546Y-66107546D01*
X154193796Y-65992331D01*
X154244091Y-65857483D01*
X154250500Y-65797873D01*
X154250499Y-63702128D01*
X154244091Y-63642517D01*
X154193796Y-63507669D01*
X154193795Y-63507668D01*
X154193793Y-63507664D01*
X154107547Y-63392455D01*
X154107544Y-63392452D01*
X153992335Y-63306206D01*
X153992328Y-63306202D01*
X153857482Y-63255908D01*
X153857483Y-63255908D01*
X153797883Y-63249501D01*
X153797881Y-63249500D01*
X153797873Y-63249500D01*
X153797864Y-63249500D01*
X151702129Y-63249500D01*
X151702123Y-63249501D01*
X151642516Y-63255908D01*
X151507671Y-63306202D01*
X151507664Y-63306206D01*
X151392455Y-63392452D01*
X151392452Y-63392455D01*
X151306206Y-63507664D01*
X151306202Y-63507671D01*
X151255908Y-63642517D01*
X151249501Y-63702116D01*
X151249501Y-63702123D01*
X151249500Y-63702135D01*
X151249500Y-65797870D01*
X112000500Y-65797870D01*
X112000500Y-60000001D01*
X157694532Y-60000001D01*
X157714364Y-60226686D01*
X157714366Y-60226697D01*
X157773258Y-60446488D01*
X157773261Y-60446497D01*
X157869431Y-60652732D01*
X157869432Y-60652734D01*
X157999954Y-60839141D01*
X158160858Y-61000045D01*
X158160861Y-61000047D01*
X158347266Y-61130568D01*
X158553504Y-61226739D01*
X158773308Y-61285635D01*
X158935230Y-61299801D01*
X158999998Y-61305468D01*
X159000000Y-61305468D01*
X159000002Y-61305468D01*
X159056673Y-61300509D01*
X159226692Y-61285635D01*
X159446496Y-61226739D01*
X159652734Y-61130568D01*
X159839139Y-61000047D01*
X160000047Y-60839139D01*
X160130568Y-60652734D01*
X160226739Y-60446496D01*
X160285635Y-60226692D01*
X160305468Y-60000000D01*
X160285635Y-59773308D01*
X160226739Y-59553504D01*
X160130568Y-59347266D01*
X160000047Y-59160861D01*
X160000045Y-59160858D01*
X159839141Y-58999954D01*
X159745978Y-58934721D01*
X159702353Y-58880144D01*
X159695159Y-58810646D01*
X159726682Y-58748291D01*
X159786911Y-58712877D01*
X159803842Y-58709857D01*
X159857483Y-58704091D01*
X159992331Y-58653796D01*
X160107546Y-58567546D01*
X160193796Y-58452331D01*
X160244091Y-58317483D01*
X160250500Y-58257873D01*
X160250499Y-56662128D01*
X160244091Y-56602517D01*
X160193796Y-56467669D01*
X160193795Y-56467668D01*
X160193793Y-56467664D01*
X160107547Y-56352455D01*
X160107544Y-56352452D01*
X159992335Y-56266206D01*
X159992328Y-56266202D01*
X159857482Y-56215908D01*
X159857483Y-56215908D01*
X159803846Y-56210142D01*
X159739295Y-56183404D01*
X159699446Y-56126012D01*
X159696953Y-56056187D01*
X159732605Y-55996098D01*
X159745972Y-55985282D01*
X159839139Y-55920047D01*
X160000047Y-55759139D01*
X160130568Y-55572734D01*
X160226739Y-55366496D01*
X160285635Y-55146692D01*
X160305468Y-54920000D01*
X160285635Y-54693308D01*
X160226739Y-54473504D01*
X160130568Y-54267266D01*
X160000047Y-54080861D01*
X160000045Y-54080858D01*
X159839141Y-53919954D01*
X159652734Y-53789432D01*
X159652732Y-53789431D01*
X159446497Y-53693261D01*
X159446488Y-53693258D01*
X159226697Y-53634366D01*
X159226693Y-53634365D01*
X159226692Y-53634365D01*
X159226691Y-53634364D01*
X159226686Y-53634364D01*
X159000002Y-53614532D01*
X158999998Y-53614532D01*
X158773313Y-53634364D01*
X158773302Y-53634366D01*
X158553511Y-53693258D01*
X158553502Y-53693261D01*
X158347267Y-53789431D01*
X158347265Y-53789432D01*
X158160858Y-53919954D01*
X157999954Y-54080858D01*
X157869432Y-54267265D01*
X157869431Y-54267267D01*
X157773261Y-54473502D01*
X157773258Y-54473511D01*
X157714366Y-54693302D01*
X157714364Y-54693313D01*
X157694532Y-54919998D01*
X157694532Y-54920001D01*
X157714364Y-55146686D01*
X157714366Y-55146697D01*
X157773258Y-55366488D01*
X157773261Y-55366497D01*
X157869431Y-55572732D01*
X157869432Y-55572734D01*
X157999954Y-55759141D01*
X158160858Y-55920045D01*
X158254021Y-55985278D01*
X158297646Y-56039854D01*
X158304840Y-56109353D01*
X158273317Y-56171708D01*
X158213088Y-56207122D01*
X158196152Y-56210143D01*
X158142516Y-56215908D01*
X158007671Y-56266202D01*
X158007664Y-56266206D01*
X157892455Y-56352452D01*
X157892452Y-56352455D01*
X157806206Y-56467664D01*
X157806202Y-56467671D01*
X157755908Y-56602517D01*
X157749501Y-56662116D01*
X157749501Y-56662123D01*
X157749500Y-56662135D01*
X157749500Y-58257870D01*
X157749501Y-58257876D01*
X157755908Y-58317483D01*
X157806202Y-58452328D01*
X157806206Y-58452335D01*
X157892452Y-58567544D01*
X157892455Y-58567547D01*
X158007664Y-58653793D01*
X158007671Y-58653797D01*
X158052618Y-58670561D01*
X158142517Y-58704091D01*
X158196157Y-58709858D01*
X158260703Y-58736594D01*
X158300552Y-58793986D01*
X158303047Y-58863811D01*
X158267395Y-58923900D01*
X158254022Y-58934721D01*
X158160856Y-58999956D01*
X157999954Y-59160858D01*
X157869432Y-59347265D01*
X157869431Y-59347267D01*
X157773261Y-59553502D01*
X157773258Y-59553511D01*
X157714366Y-59773302D01*
X157714364Y-59773313D01*
X157694532Y-59999998D01*
X157694532Y-60000001D01*
X112000500Y-60000001D01*
X112000500Y-58040006D01*
X148594700Y-58040006D01*
X148613864Y-58271297D01*
X148613866Y-58271308D01*
X148670842Y-58496300D01*
X148764075Y-58708848D01*
X148891016Y-58903147D01*
X148891019Y-58903151D01*
X148891021Y-58903153D01*
X149048216Y-59073913D01*
X149048219Y-59073915D01*
X149048222Y-59073918D01*
X149231365Y-59216464D01*
X149231371Y-59216468D01*
X149231374Y-59216470D01*
X149435497Y-59326936D01*
X149549487Y-59366068D01*
X149655015Y-59402297D01*
X149655017Y-59402297D01*
X149655019Y-59402298D01*
X149883951Y-59440500D01*
X149883952Y-59440500D01*
X150116048Y-59440500D01*
X150116049Y-59440500D01*
X150344981Y-59402298D01*
X150564503Y-59326936D01*
X150768626Y-59216470D01*
X150951784Y-59073913D01*
X151108979Y-58903153D01*
X151235924Y-58708849D01*
X151329157Y-58496300D01*
X151386134Y-58271305D01*
X151387247Y-58257872D01*
X151405300Y-58040006D01*
X151405300Y-58039993D01*
X151386135Y-57808702D01*
X151386133Y-57808691D01*
X151329157Y-57583699D01*
X151235924Y-57371151D01*
X151108983Y-57176852D01*
X151108980Y-57176849D01*
X151108979Y-57176847D01*
X150951784Y-57006087D01*
X150951779Y-57006083D01*
X150951777Y-57006081D01*
X150768634Y-56863535D01*
X150768628Y-56863531D01*
X150564504Y-56753064D01*
X150564495Y-56753061D01*
X150344984Y-56677702D01*
X150173282Y-56649050D01*
X150116049Y-56639500D01*
X149883951Y-56639500D01*
X149838164Y-56647140D01*
X149655015Y-56677702D01*
X149435504Y-56753061D01*
X149435495Y-56753064D01*
X149231371Y-56863531D01*
X149231365Y-56863535D01*
X149048222Y-57006081D01*
X149048219Y-57006084D01*
X148891016Y-57176852D01*
X148764075Y-57371151D01*
X148670842Y-57583699D01*
X148613866Y-57808691D01*
X148613864Y-57808702D01*
X148594700Y-58039993D01*
X148594700Y-58040006D01*
X112000500Y-58040006D01*
X112000500Y-46502706D01*
X112000618Y-46497297D01*
X112003377Y-46434108D01*
X112017386Y-46113226D01*
X112018326Y-46102495D01*
X112068152Y-45724025D01*
X112070025Y-45713405D01*
X112090447Y-45621288D01*
X119149500Y-45621288D01*
X119181161Y-45861785D01*
X119243947Y-46096104D01*
X119261390Y-46138214D01*
X119336776Y-46320212D01*
X119458064Y-46530289D01*
X119458066Y-46530292D01*
X119458067Y-46530293D01*
X119605733Y-46722736D01*
X119605739Y-46722743D01*
X119777256Y-46894260D01*
X119777262Y-46894265D01*
X119969711Y-47041936D01*
X120179788Y-47163224D01*
X120403900Y-47256054D01*
X120638211Y-47318838D01*
X120818586Y-47342584D01*
X120878711Y-47350500D01*
X120878712Y-47350500D01*
X121121289Y-47350500D01*
X121169388Y-47344167D01*
X121361789Y-47318838D01*
X121596100Y-47256054D01*
X121820212Y-47163224D01*
X122030289Y-47041936D01*
X122222738Y-46894265D01*
X122394265Y-46722738D01*
X122541936Y-46530289D01*
X122663224Y-46320212D01*
X122756054Y-46096100D01*
X122818838Y-45861789D01*
X122850500Y-45621288D01*
X122850500Y-45378712D01*
X122818838Y-45138211D01*
X122756054Y-44903900D01*
X122663224Y-44679788D01*
X122541936Y-44469711D01*
X122394265Y-44277262D01*
X122394260Y-44277256D01*
X122222743Y-44105739D01*
X122222736Y-44105733D01*
X122030293Y-43958067D01*
X122030292Y-43958066D01*
X122030289Y-43958064D01*
X121820212Y-43836776D01*
X121820205Y-43836773D01*
X121596104Y-43743947D01*
X121478944Y-43712554D01*
X121361789Y-43681162D01*
X121361788Y-43681161D01*
X121361785Y-43681161D01*
X121121289Y-43649500D01*
X121121288Y-43649500D01*
X120878712Y-43649500D01*
X120878711Y-43649500D01*
X120638214Y-43681161D01*
X120403895Y-43743947D01*
X120179794Y-43836773D01*
X120179785Y-43836777D01*
X119969706Y-43958067D01*
X119777263Y-44105733D01*
X119777256Y-44105739D01*
X119605739Y-44277256D01*
X119605733Y-44277263D01*
X119458067Y-44469706D01*
X119336777Y-44679785D01*
X119336773Y-44679794D01*
X119243947Y-44903895D01*
X119181161Y-45138214D01*
X119149500Y-45378711D01*
X119149500Y-45621288D01*
X112090447Y-45621288D01*
X112152649Y-45340709D01*
X112155440Y-45330295D01*
X112270230Y-44966227D01*
X112273917Y-44956095D01*
X112420003Y-44603412D01*
X112424561Y-44593638D01*
X112600822Y-44255045D01*
X112606217Y-44245700D01*
X112811325Y-43923744D01*
X112817515Y-43914905D01*
X113049896Y-43612060D01*
X113056834Y-43603791D01*
X113314726Y-43322352D01*
X113322352Y-43314726D01*
X113603791Y-43056834D01*
X113612060Y-43049896D01*
X113914905Y-42817515D01*
X113923744Y-42811325D01*
X114245700Y-42606217D01*
X114255045Y-42600822D01*
X114593638Y-42424561D01*
X114603412Y-42420003D01*
X114956095Y-42273917D01*
X114966227Y-42270230D01*
X115330295Y-42155440D01*
X115340709Y-42152649D01*
X115713405Y-42070025D01*
X115724025Y-42068152D01*
X116102495Y-42018326D01*
X116113226Y-42017386D01*
X116497297Y-42000617D01*
X116502706Y-42000500D01*
X116565892Y-42000500D01*
X122434108Y-42000500D01*
X122497294Y-42000500D01*
X122502702Y-42000617D01*
G37*
%TD.AperFunction*%
%TD*%
M02*
